G04 #@! TF.GenerationSoftware,KiCad,Pcbnew,8.0.5*
G04 #@! TF.CreationDate,2025-04-14T13:42:12-04:00*
G04 #@! TF.ProjectId,Big Daddy,42696720-4461-4646-9479-2e6b69636164,rev?*
G04 #@! TF.SameCoordinates,Original*
G04 #@! TF.FileFunction,Legend,Bot*
G04 #@! TF.FilePolarity,Positive*
%FSLAX46Y46*%
G04 Gerber Fmt 4.6, Leading zero omitted, Abs format (unit mm)*
G04 Created by KiCad (PCBNEW 8.0.5) date 2025-04-14 13:42:12*
%MOMM*%
%LPD*%
G01*
G04 APERTURE LIST*
G04 Aperture macros list*
%AMRoundRect*
0 Rectangle with rounded corners*
0 $1 Rounding radius*
0 $2 $3 $4 $5 $6 $7 $8 $9 X,Y pos of 4 corners*
0 Add a 4 corners polygon primitive as box body*
4,1,4,$2,$3,$4,$5,$6,$7,$8,$9,$2,$3,0*
0 Add four circle primitives for the rounded corners*
1,1,$1+$1,$2,$3*
1,1,$1+$1,$4,$5*
1,1,$1+$1,$6,$7*
1,1,$1+$1,$8,$9*
0 Add four rect primitives between the rounded corners*
20,1,$1+$1,$2,$3,$4,$5,0*
20,1,$1+$1,$4,$5,$6,$7,0*
20,1,$1+$1,$6,$7,$8,$9,0*
20,1,$1+$1,$8,$9,$2,$3,0*%
G04 Aperture macros list end*
%ADD10C,0.150000*%
%ADD11C,0.300000*%
%ADD12C,0.254000*%
%ADD13C,0.120000*%
%ADD14C,0.100000*%
%ADD15C,0.200000*%
%ADD16C,2.850000*%
%ADD17R,2.625000X2.625000*%
%ADD18C,2.625000*%
%ADD19R,1.200000X2.000000*%
%ADD20O,1.200000X2.000000*%
%ADD21C,1.600000*%
%ADD22RoundRect,0.250000X1.150000X-0.980000X1.150000X0.980000X-1.150000X0.980000X-1.150000X-0.980000X0*%
%ADD23C,2.780000*%
%ADD24R,2.500000X4.500000*%
%ADD25O,2.500000X4.500000*%
%ADD26R,1.400000X1.400000*%
%ADD27C,1.400000*%
%ADD28C,2.000000*%
%ADD29RoundRect,0.250000X-1.150000X0.980000X-1.150000X-0.980000X1.150000X-0.980000X1.150000X0.980000X0*%
%ADD30O,2.800000X2.460000*%
%ADD31C,0.800000*%
%ADD32C,6.400000*%
%ADD33C,1.699848*%
%ADD34RoundRect,0.250000X0.980000X1.150000X-0.980000X1.150000X-0.980000X-1.150000X0.980000X-1.150000X0*%
%ADD35C,3.180000*%
%ADD36RoundRect,0.250000X-1.070000X1.400000X-1.070000X-1.400000X1.070000X-1.400000X1.070000X1.400000X0*%
%ADD37O,2.640000X3.300000*%
%ADD38RoundRect,0.250000X-0.980000X-1.150000X0.980000X-1.150000X0.980000X1.150000X-0.980000X1.150000X0*%
%ADD39C,2.400000*%
%ADD40C,1.524000*%
%ADD41R,2.000000X2.000000*%
%ADD42O,2.400000X2.400000*%
%ADD43C,2.700000*%
%ADD44C,3.000000*%
%ADD45C,1.200000*%
%ADD46RoundRect,0.250000X0.750000X-0.600000X0.750000X0.600000X-0.750000X0.600000X-0.750000X-0.600000X0*%
%ADD47O,2.000000X1.700000*%
%ADD48C,1.635000*%
%ADD49O,2.670000X5.340000*%
%ADD50O,5.850000X2.925000*%
%ADD51RoundRect,0.237500X-0.237500X0.250000X-0.237500X-0.250000X0.237500X-0.250000X0.237500X0.250000X0*%
%ADD52RoundRect,0.237500X-0.300000X-0.237500X0.300000X-0.237500X0.300000X0.237500X-0.300000X0.237500X0*%
%ADD53RoundRect,0.237500X0.250000X0.237500X-0.250000X0.237500X-0.250000X-0.237500X0.250000X-0.237500X0*%
%ADD54R,2.000000X1.780000*%
%ADD55RoundRect,0.237500X-0.237500X0.287500X-0.237500X-0.287500X0.237500X-0.287500X0.237500X0.287500X0*%
%ADD56RoundRect,0.150000X0.150000X-0.512500X0.150000X0.512500X-0.150000X0.512500X-0.150000X-0.512500X0*%
%ADD57RoundRect,0.237500X0.287500X0.237500X-0.287500X0.237500X-0.287500X-0.237500X0.287500X-0.237500X0*%
%ADD58RoundRect,0.237500X0.237500X-0.250000X0.237500X0.250000X-0.237500X0.250000X-0.237500X-0.250000X0*%
%ADD59RoundRect,0.225000X0.225000X0.375000X-0.225000X0.375000X-0.225000X-0.375000X0.225000X-0.375000X0*%
%ADD60RoundRect,0.237500X-0.237500X0.300000X-0.237500X-0.300000X0.237500X-0.300000X0.237500X0.300000X0*%
%ADD61RoundRect,0.250000X2.050000X0.300000X-2.050000X0.300000X-2.050000X-0.300000X2.050000X-0.300000X0*%
%ADD62RoundRect,0.250002X4.449998X5.149998X-4.449998X5.149998X-4.449998X-5.149998X4.449998X-5.149998X0*%
%ADD63RoundRect,0.249999X-1.425001X0.450001X-1.425001X-0.450001X1.425001X-0.450001X1.425001X0.450001X0*%
%ADD64RoundRect,0.150000X0.587500X0.150000X-0.587500X0.150000X-0.587500X-0.150000X0.587500X-0.150000X0*%
%ADD65RoundRect,0.250000X0.350000X0.450000X-0.350000X0.450000X-0.350000X-0.450000X0.350000X-0.450000X0*%
%ADD66RoundRect,0.250000X0.450000X-0.325000X0.450000X0.325000X-0.450000X0.325000X-0.450000X-0.325000X0*%
%ADD67R,2.000000X1.500000*%
%ADD68R,2.000000X3.800000*%
%ADD69R,2.286000X1.067000*%
%ADD70R,8.890000X10.668000*%
%ADD71RoundRect,0.237500X0.237500X-0.300000X0.237500X0.300000X-0.237500X0.300000X-0.237500X-0.300000X0*%
%ADD72RoundRect,0.250000X0.625000X-0.400000X0.625000X0.400000X-0.625000X0.400000X-0.625000X-0.400000X0*%
%ADD73RoundRect,0.150000X-0.587500X-0.150000X0.587500X-0.150000X0.587500X0.150000X-0.587500X0.150000X0*%
%ADD74R,1.200000X1.200000*%
%ADD75R,1.600000X1.500000*%
%ADD76R,1.200000X0.800000*%
G04 APERTURE END LIST*
D10*
X245500000Y-89500000D02*
X271500000Y-89500000D01*
X271500000Y-110000000D01*
X245500000Y-110000000D01*
X245500000Y-89500000D01*
D11*
X114721774Y-82624996D02*
X113864632Y-82624996D01*
X114293203Y-84124996D02*
X114293203Y-82624996D01*
X113436060Y-84053568D02*
X113221775Y-84124996D01*
X113221775Y-84124996D02*
X112864632Y-84124996D01*
X112864632Y-84124996D02*
X112721775Y-84053568D01*
X112721775Y-84053568D02*
X112650346Y-83982139D01*
X112650346Y-83982139D02*
X112578917Y-83839282D01*
X112578917Y-83839282D02*
X112578917Y-83696425D01*
X112578917Y-83696425D02*
X112650346Y-83553568D01*
X112650346Y-83553568D02*
X112721775Y-83482139D01*
X112721775Y-83482139D02*
X112864632Y-83410710D01*
X112864632Y-83410710D02*
X113150346Y-83339282D01*
X113150346Y-83339282D02*
X113293203Y-83267853D01*
X113293203Y-83267853D02*
X113364632Y-83196425D01*
X113364632Y-83196425D02*
X113436060Y-83053568D01*
X113436060Y-83053568D02*
X113436060Y-82910710D01*
X113436060Y-82910710D02*
X113364632Y-82767853D01*
X113364632Y-82767853D02*
X113293203Y-82696425D01*
X113293203Y-82696425D02*
X113150346Y-82624996D01*
X113150346Y-82624996D02*
X112793203Y-82624996D01*
X112793203Y-82624996D02*
X112578917Y-82696425D01*
X110864632Y-82553568D02*
X112150346Y-84482139D01*
X110578917Y-82624996D02*
X109721775Y-82624996D01*
X110150346Y-84124996D02*
X110150346Y-82624996D01*
X109293203Y-84053568D02*
X109078918Y-84124996D01*
X109078918Y-84124996D02*
X108721775Y-84124996D01*
X108721775Y-84124996D02*
X108578918Y-84053568D01*
X108578918Y-84053568D02*
X108507489Y-83982139D01*
X108507489Y-83982139D02*
X108436060Y-83839282D01*
X108436060Y-83839282D02*
X108436060Y-83696425D01*
X108436060Y-83696425D02*
X108507489Y-83553568D01*
X108507489Y-83553568D02*
X108578918Y-83482139D01*
X108578918Y-83482139D02*
X108721775Y-83410710D01*
X108721775Y-83410710D02*
X109007489Y-83339282D01*
X109007489Y-83339282D02*
X109150346Y-83267853D01*
X109150346Y-83267853D02*
X109221775Y-83196425D01*
X109221775Y-83196425D02*
X109293203Y-83053568D01*
X109293203Y-83053568D02*
X109293203Y-82910710D01*
X109293203Y-82910710D02*
X109221775Y-82767853D01*
X109221775Y-82767853D02*
X109150346Y-82696425D01*
X109150346Y-82696425D02*
X109007489Y-82624996D01*
X109007489Y-82624996D02*
X108650346Y-82624996D01*
X108650346Y-82624996D02*
X108436060Y-82696425D01*
X106650347Y-83339282D02*
X105507490Y-83339282D01*
X105507490Y-83767853D02*
X106650347Y-83767853D01*
X103578918Y-84124996D02*
X103293204Y-84124996D01*
X103293204Y-84124996D02*
X103150347Y-84053568D01*
X103150347Y-84053568D02*
X103078918Y-83982139D01*
X103078918Y-83982139D02*
X102936061Y-83767853D01*
X102936061Y-83767853D02*
X102864632Y-83482139D01*
X102864632Y-83482139D02*
X102864632Y-82910710D01*
X102864632Y-82910710D02*
X102936061Y-82767853D01*
X102936061Y-82767853D02*
X103007490Y-82696425D01*
X103007490Y-82696425D02*
X103150347Y-82624996D01*
X103150347Y-82624996D02*
X103436061Y-82624996D01*
X103436061Y-82624996D02*
X103578918Y-82696425D01*
X103578918Y-82696425D02*
X103650347Y-82767853D01*
X103650347Y-82767853D02*
X103721775Y-82910710D01*
X103721775Y-82910710D02*
X103721775Y-83267853D01*
X103721775Y-83267853D02*
X103650347Y-83410710D01*
X103650347Y-83410710D02*
X103578918Y-83482139D01*
X103578918Y-83482139D02*
X103436061Y-83553568D01*
X103436061Y-83553568D02*
X103150347Y-83553568D01*
X103150347Y-83553568D02*
X103007490Y-83482139D01*
X103007490Y-83482139D02*
X102936061Y-83410710D01*
X102936061Y-83410710D02*
X102864632Y-83267853D01*
X102221776Y-83982139D02*
X102150347Y-84053568D01*
X102150347Y-84053568D02*
X102221776Y-84124996D01*
X102221776Y-84124996D02*
X102293204Y-84053568D01*
X102293204Y-84053568D02*
X102221776Y-83982139D01*
X102221776Y-83982139D02*
X102221776Y-84124996D01*
X100864633Y-82624996D02*
X101150347Y-82624996D01*
X101150347Y-82624996D02*
X101293204Y-82696425D01*
X101293204Y-82696425D02*
X101364633Y-82767853D01*
X101364633Y-82767853D02*
X101507490Y-82982139D01*
X101507490Y-82982139D02*
X101578918Y-83267853D01*
X101578918Y-83267853D02*
X101578918Y-83839282D01*
X101578918Y-83839282D02*
X101507490Y-83982139D01*
X101507490Y-83982139D02*
X101436061Y-84053568D01*
X101436061Y-84053568D02*
X101293204Y-84124996D01*
X101293204Y-84124996D02*
X101007490Y-84124996D01*
X101007490Y-84124996D02*
X100864633Y-84053568D01*
X100864633Y-84053568D02*
X100793204Y-83982139D01*
X100793204Y-83982139D02*
X100721775Y-83839282D01*
X100721775Y-83839282D02*
X100721775Y-83482139D01*
X100721775Y-83482139D02*
X100793204Y-83339282D01*
X100793204Y-83339282D02*
X100864633Y-83267853D01*
X100864633Y-83267853D02*
X101007490Y-83196425D01*
X101007490Y-83196425D02*
X101293204Y-83196425D01*
X101293204Y-83196425D02*
X101436061Y-83267853D01*
X101436061Y-83267853D02*
X101507490Y-83339282D01*
X101507490Y-83339282D02*
X101578918Y-83482139D01*
X100078919Y-84124996D02*
X100078919Y-83124996D01*
X100078919Y-83267853D02*
X100007490Y-83196425D01*
X100007490Y-83196425D02*
X99864633Y-83124996D01*
X99864633Y-83124996D02*
X99650347Y-83124996D01*
X99650347Y-83124996D02*
X99507490Y-83196425D01*
X99507490Y-83196425D02*
X99436062Y-83339282D01*
X99436062Y-83339282D02*
X99436062Y-84124996D01*
X99436062Y-83339282D02*
X99364633Y-83196425D01*
X99364633Y-83196425D02*
X99221776Y-83124996D01*
X99221776Y-83124996D02*
X99007490Y-83124996D01*
X99007490Y-83124996D02*
X98864633Y-83196425D01*
X98864633Y-83196425D02*
X98793204Y-83339282D01*
X98793204Y-83339282D02*
X98793204Y-84124996D01*
X98078919Y-84124996D02*
X98078919Y-83124996D01*
X98078919Y-83267853D02*
X98007490Y-83196425D01*
X98007490Y-83196425D02*
X97864633Y-83124996D01*
X97864633Y-83124996D02*
X97650347Y-83124996D01*
X97650347Y-83124996D02*
X97507490Y-83196425D01*
X97507490Y-83196425D02*
X97436062Y-83339282D01*
X97436062Y-83339282D02*
X97436062Y-84124996D01*
X97436062Y-83339282D02*
X97364633Y-83196425D01*
X97364633Y-83196425D02*
X97221776Y-83124996D01*
X97221776Y-83124996D02*
X97007490Y-83124996D01*
X97007490Y-83124996D02*
X96864633Y-83196425D01*
X96864633Y-83196425D02*
X96793204Y-83339282D01*
X96793204Y-83339282D02*
X96793204Y-84124996D01*
X93864633Y-82553568D02*
X95150347Y-84482139D01*
X92293204Y-83696425D02*
X91578919Y-83696425D01*
X92436061Y-84124996D02*
X91936061Y-82624996D01*
X91936061Y-82624996D02*
X91436061Y-84124996D01*
X90936062Y-84124996D02*
X90936062Y-83124996D01*
X90936062Y-82624996D02*
X91007490Y-82696425D01*
X91007490Y-82696425D02*
X90936062Y-82767853D01*
X90936062Y-82767853D02*
X90864633Y-82696425D01*
X90864633Y-82696425D02*
X90936062Y-82624996D01*
X90936062Y-82624996D02*
X90936062Y-82767853D01*
X90221776Y-84124996D02*
X90221776Y-83124996D01*
X90221776Y-83410710D02*
X90150347Y-83267853D01*
X90150347Y-83267853D02*
X90078919Y-83196425D01*
X90078919Y-83196425D02*
X89936061Y-83124996D01*
X89936061Y-83124996D02*
X89793204Y-83124996D01*
X87507491Y-82624996D02*
X87793205Y-82624996D01*
X87793205Y-82624996D02*
X87936062Y-82696425D01*
X87936062Y-82696425D02*
X88007491Y-82767853D01*
X88007491Y-82767853D02*
X88150348Y-82982139D01*
X88150348Y-82982139D02*
X88221776Y-83267853D01*
X88221776Y-83267853D02*
X88221776Y-83839282D01*
X88221776Y-83839282D02*
X88150348Y-83982139D01*
X88150348Y-83982139D02*
X88078919Y-84053568D01*
X88078919Y-84053568D02*
X87936062Y-84124996D01*
X87936062Y-84124996D02*
X87650348Y-84124996D01*
X87650348Y-84124996D02*
X87507491Y-84053568D01*
X87507491Y-84053568D02*
X87436062Y-83982139D01*
X87436062Y-83982139D02*
X87364633Y-83839282D01*
X87364633Y-83839282D02*
X87364633Y-83482139D01*
X87364633Y-83482139D02*
X87436062Y-83339282D01*
X87436062Y-83339282D02*
X87507491Y-83267853D01*
X87507491Y-83267853D02*
X87650348Y-83196425D01*
X87650348Y-83196425D02*
X87936062Y-83196425D01*
X87936062Y-83196425D02*
X88078919Y-83267853D01*
X88078919Y-83267853D02*
X88150348Y-83339282D01*
X88150348Y-83339282D02*
X88221776Y-83482139D01*
X86721777Y-83982139D02*
X86650348Y-84053568D01*
X86650348Y-84053568D02*
X86721777Y-84124996D01*
X86721777Y-84124996D02*
X86793205Y-84053568D01*
X86793205Y-84053568D02*
X86721777Y-83982139D01*
X86721777Y-83982139D02*
X86721777Y-84124996D01*
X85364634Y-83124996D02*
X85364634Y-84124996D01*
X85721776Y-82553568D02*
X86078919Y-83624996D01*
X86078919Y-83624996D02*
X85150348Y-83624996D01*
X114721774Y-85039912D02*
X113864632Y-85039912D01*
X114293203Y-86539912D02*
X114293203Y-85039912D01*
X113436060Y-86468484D02*
X113221775Y-86539912D01*
X113221775Y-86539912D02*
X112864632Y-86539912D01*
X112864632Y-86539912D02*
X112721775Y-86468484D01*
X112721775Y-86468484D02*
X112650346Y-86397055D01*
X112650346Y-86397055D02*
X112578917Y-86254198D01*
X112578917Y-86254198D02*
X112578917Y-86111341D01*
X112578917Y-86111341D02*
X112650346Y-85968484D01*
X112650346Y-85968484D02*
X112721775Y-85897055D01*
X112721775Y-85897055D02*
X112864632Y-85825626D01*
X112864632Y-85825626D02*
X113150346Y-85754198D01*
X113150346Y-85754198D02*
X113293203Y-85682769D01*
X113293203Y-85682769D02*
X113364632Y-85611341D01*
X113364632Y-85611341D02*
X113436060Y-85468484D01*
X113436060Y-85468484D02*
X113436060Y-85325626D01*
X113436060Y-85325626D02*
X113364632Y-85182769D01*
X113364632Y-85182769D02*
X113293203Y-85111341D01*
X113293203Y-85111341D02*
X113150346Y-85039912D01*
X113150346Y-85039912D02*
X112793203Y-85039912D01*
X112793203Y-85039912D02*
X112578917Y-85111341D01*
X110864632Y-84968484D02*
X112150346Y-86897055D01*
X109650346Y-86539912D02*
X110364632Y-86539912D01*
X110364632Y-86539912D02*
X110364632Y-85039912D01*
X109364631Y-85039912D02*
X108864631Y-86539912D01*
X108864631Y-86539912D02*
X108364631Y-85039912D01*
X106721775Y-85754198D02*
X105578918Y-85754198D01*
X105578918Y-86182769D02*
X106721775Y-86182769D01*
X102936060Y-86539912D02*
X103793203Y-86539912D01*
X103364632Y-86539912D02*
X103364632Y-85039912D01*
X103364632Y-85039912D02*
X103507489Y-85254198D01*
X103507489Y-85254198D02*
X103650346Y-85397055D01*
X103650346Y-85397055D02*
X103793203Y-85468484D01*
X102364632Y-85182769D02*
X102293204Y-85111341D01*
X102293204Y-85111341D02*
X102150347Y-85039912D01*
X102150347Y-85039912D02*
X101793204Y-85039912D01*
X101793204Y-85039912D02*
X101650347Y-85111341D01*
X101650347Y-85111341D02*
X101578918Y-85182769D01*
X101578918Y-85182769D02*
X101507489Y-85325626D01*
X101507489Y-85325626D02*
X101507489Y-85468484D01*
X101507489Y-85468484D02*
X101578918Y-85682769D01*
X101578918Y-85682769D02*
X102436061Y-86539912D01*
X102436061Y-86539912D02*
X101507489Y-86539912D01*
X100864633Y-86397055D02*
X100793204Y-86468484D01*
X100793204Y-86468484D02*
X100864633Y-86539912D01*
X100864633Y-86539912D02*
X100936061Y-86468484D01*
X100936061Y-86468484D02*
X100864633Y-86397055D01*
X100864633Y-86397055D02*
X100864633Y-86539912D01*
X100293204Y-85039912D02*
X99293204Y-85039912D01*
X99293204Y-85039912D02*
X99936061Y-86539912D01*
X96507490Y-84968484D02*
X97793204Y-86897055D01*
X94221776Y-85539912D02*
X94221776Y-86539912D01*
X94578918Y-84968484D02*
X94936061Y-86039912D01*
X94936061Y-86039912D02*
X94007490Y-86039912D01*
X93221776Y-85039912D02*
X93221776Y-85397055D01*
X93578919Y-85254198D02*
X93221776Y-85397055D01*
X93221776Y-85397055D02*
X92864633Y-85254198D01*
X93436062Y-85682769D02*
X93221776Y-85397055D01*
X93221776Y-85397055D02*
X93007490Y-85682769D01*
X91150348Y-86539912D02*
X91150348Y-85539912D01*
X91150348Y-85682769D02*
X91078919Y-85611341D01*
X91078919Y-85611341D02*
X90936062Y-85539912D01*
X90936062Y-85539912D02*
X90721776Y-85539912D01*
X90721776Y-85539912D02*
X90578919Y-85611341D01*
X90578919Y-85611341D02*
X90507491Y-85754198D01*
X90507491Y-85754198D02*
X90507491Y-86539912D01*
X90507491Y-85754198D02*
X90436062Y-85611341D01*
X90436062Y-85611341D02*
X90293205Y-85539912D01*
X90293205Y-85539912D02*
X90078919Y-85539912D01*
X90078919Y-85539912D02*
X89936062Y-85611341D01*
X89936062Y-85611341D02*
X89864633Y-85754198D01*
X89864633Y-85754198D02*
X89864633Y-86539912D01*
X89150348Y-86539912D02*
X89150348Y-85539912D01*
X89150348Y-85682769D02*
X89078919Y-85611341D01*
X89078919Y-85611341D02*
X88936062Y-85539912D01*
X88936062Y-85539912D02*
X88721776Y-85539912D01*
X88721776Y-85539912D02*
X88578919Y-85611341D01*
X88578919Y-85611341D02*
X88507491Y-85754198D01*
X88507491Y-85754198D02*
X88507491Y-86539912D01*
X88507491Y-85754198D02*
X88436062Y-85611341D01*
X88436062Y-85611341D02*
X88293205Y-85539912D01*
X88293205Y-85539912D02*
X88078919Y-85539912D01*
X88078919Y-85539912D02*
X87936062Y-85611341D01*
X87936062Y-85611341D02*
X87864633Y-85754198D01*
X87864633Y-85754198D02*
X87864633Y-86539912D01*
X84936062Y-84968484D02*
X86221776Y-86897055D01*
X83364633Y-86111341D02*
X82650348Y-86111341D01*
X83507490Y-86539912D02*
X83007490Y-85039912D01*
X83007490Y-85039912D02*
X82507490Y-86539912D01*
X82007491Y-86539912D02*
X82007491Y-85539912D01*
X82007491Y-85039912D02*
X82078919Y-85111341D01*
X82078919Y-85111341D02*
X82007491Y-85182769D01*
X82007491Y-85182769D02*
X81936062Y-85111341D01*
X81936062Y-85111341D02*
X82007491Y-85039912D01*
X82007491Y-85039912D02*
X82007491Y-85182769D01*
X81293205Y-86539912D02*
X81293205Y-85539912D01*
X81293205Y-85825626D02*
X81221776Y-85682769D01*
X81221776Y-85682769D02*
X81150348Y-85611341D01*
X81150348Y-85611341D02*
X81007490Y-85539912D01*
X81007490Y-85539912D02*
X80864633Y-85539912D01*
X79150348Y-86539912D02*
X78864634Y-86539912D01*
X78864634Y-86539912D02*
X78721777Y-86468484D01*
X78721777Y-86468484D02*
X78650348Y-86397055D01*
X78650348Y-86397055D02*
X78507491Y-86182769D01*
X78507491Y-86182769D02*
X78436062Y-85897055D01*
X78436062Y-85897055D02*
X78436062Y-85325626D01*
X78436062Y-85325626D02*
X78507491Y-85182769D01*
X78507491Y-85182769D02*
X78578920Y-85111341D01*
X78578920Y-85111341D02*
X78721777Y-85039912D01*
X78721777Y-85039912D02*
X79007491Y-85039912D01*
X79007491Y-85039912D02*
X79150348Y-85111341D01*
X79150348Y-85111341D02*
X79221777Y-85182769D01*
X79221777Y-85182769D02*
X79293205Y-85325626D01*
X79293205Y-85325626D02*
X79293205Y-85682769D01*
X79293205Y-85682769D02*
X79221777Y-85825626D01*
X79221777Y-85825626D02*
X79150348Y-85897055D01*
X79150348Y-85897055D02*
X79007491Y-85968484D01*
X79007491Y-85968484D02*
X78721777Y-85968484D01*
X78721777Y-85968484D02*
X78578920Y-85897055D01*
X78578920Y-85897055D02*
X78507491Y-85825626D01*
X78507491Y-85825626D02*
X78436062Y-85682769D01*
X77793206Y-86397055D02*
X77721777Y-86468484D01*
X77721777Y-86468484D02*
X77793206Y-86539912D01*
X77793206Y-86539912D02*
X77864634Y-86468484D01*
X77864634Y-86468484D02*
X77793206Y-86397055D01*
X77793206Y-86397055D02*
X77793206Y-86539912D01*
X76364634Y-85039912D02*
X77078920Y-85039912D01*
X77078920Y-85039912D02*
X77150348Y-85754198D01*
X77150348Y-85754198D02*
X77078920Y-85682769D01*
X77078920Y-85682769D02*
X76936063Y-85611341D01*
X76936063Y-85611341D02*
X76578920Y-85611341D01*
X76578920Y-85611341D02*
X76436063Y-85682769D01*
X76436063Y-85682769D02*
X76364634Y-85754198D01*
X76364634Y-85754198D02*
X76293205Y-85897055D01*
X76293205Y-85897055D02*
X76293205Y-86254198D01*
X76293205Y-86254198D02*
X76364634Y-86397055D01*
X76364634Y-86397055D02*
X76436063Y-86468484D01*
X76436063Y-86468484D02*
X76578920Y-86539912D01*
X76578920Y-86539912D02*
X76936063Y-86539912D01*
X76936063Y-86539912D02*
X77078920Y-86468484D01*
X77078920Y-86468484D02*
X77150348Y-86397055D01*
X114293203Y-87454828D02*
X114293203Y-87811971D01*
X114650346Y-87669114D02*
X114293203Y-87811971D01*
X114293203Y-87811971D02*
X113936060Y-87669114D01*
X114507489Y-88097685D02*
X114293203Y-87811971D01*
X114293203Y-87811971D02*
X114078917Y-88097685D01*
X113364632Y-87454828D02*
X113364632Y-88669114D01*
X113364632Y-88669114D02*
X113293203Y-88811971D01*
X113293203Y-88811971D02*
X113221775Y-88883400D01*
X113221775Y-88883400D02*
X113078917Y-88954828D01*
X113078917Y-88954828D02*
X112793203Y-88954828D01*
X112793203Y-88954828D02*
X112650346Y-88883400D01*
X112650346Y-88883400D02*
X112578917Y-88811971D01*
X112578917Y-88811971D02*
X112507489Y-88669114D01*
X112507489Y-88669114D02*
X112507489Y-87454828D01*
X111793203Y-87954828D02*
X111793203Y-88954828D01*
X111793203Y-88097685D02*
X111721774Y-88026257D01*
X111721774Y-88026257D02*
X111578917Y-87954828D01*
X111578917Y-87954828D02*
X111364631Y-87954828D01*
X111364631Y-87954828D02*
X111221774Y-88026257D01*
X111221774Y-88026257D02*
X111150346Y-88169114D01*
X111150346Y-88169114D02*
X111150346Y-88954828D01*
X109793203Y-88954828D02*
X109793203Y-87454828D01*
X109793203Y-88883400D02*
X109936060Y-88954828D01*
X109936060Y-88954828D02*
X110221774Y-88954828D01*
X110221774Y-88954828D02*
X110364631Y-88883400D01*
X110364631Y-88883400D02*
X110436060Y-88811971D01*
X110436060Y-88811971D02*
X110507488Y-88669114D01*
X110507488Y-88669114D02*
X110507488Y-88240542D01*
X110507488Y-88240542D02*
X110436060Y-88097685D01*
X110436060Y-88097685D02*
X110364631Y-88026257D01*
X110364631Y-88026257D02*
X110221774Y-87954828D01*
X110221774Y-87954828D02*
X109936060Y-87954828D01*
X109936060Y-87954828D02*
X109793203Y-88026257D01*
X108507488Y-88883400D02*
X108650345Y-88954828D01*
X108650345Y-88954828D02*
X108936060Y-88954828D01*
X108936060Y-88954828D02*
X109078917Y-88883400D01*
X109078917Y-88883400D02*
X109150345Y-88740542D01*
X109150345Y-88740542D02*
X109150345Y-88169114D01*
X109150345Y-88169114D02*
X109078917Y-88026257D01*
X109078917Y-88026257D02*
X108936060Y-87954828D01*
X108936060Y-87954828D02*
X108650345Y-87954828D01*
X108650345Y-87954828D02*
X108507488Y-88026257D01*
X108507488Y-88026257D02*
X108436060Y-88169114D01*
X108436060Y-88169114D02*
X108436060Y-88311971D01*
X108436060Y-88311971D02*
X109150345Y-88454828D01*
X107793203Y-88954828D02*
X107793203Y-87954828D01*
X107793203Y-88240542D02*
X107721774Y-88097685D01*
X107721774Y-88097685D02*
X107650346Y-88026257D01*
X107650346Y-88026257D02*
X107507488Y-87954828D01*
X107507488Y-87954828D02*
X107364631Y-87954828D01*
X104864632Y-88811971D02*
X104936060Y-88883400D01*
X104936060Y-88883400D02*
X105150346Y-88954828D01*
X105150346Y-88954828D02*
X105293203Y-88954828D01*
X105293203Y-88954828D02*
X105507489Y-88883400D01*
X105507489Y-88883400D02*
X105650346Y-88740542D01*
X105650346Y-88740542D02*
X105721775Y-88597685D01*
X105721775Y-88597685D02*
X105793203Y-88311971D01*
X105793203Y-88311971D02*
X105793203Y-88097685D01*
X105793203Y-88097685D02*
X105721775Y-87811971D01*
X105721775Y-87811971D02*
X105650346Y-87669114D01*
X105650346Y-87669114D02*
X105507489Y-87526257D01*
X105507489Y-87526257D02*
X105293203Y-87454828D01*
X105293203Y-87454828D02*
X105150346Y-87454828D01*
X105150346Y-87454828D02*
X104936060Y-87526257D01*
X104936060Y-87526257D02*
X104864632Y-87597685D01*
X104007489Y-88954828D02*
X104150346Y-88883400D01*
X104150346Y-88883400D02*
X104221775Y-88811971D01*
X104221775Y-88811971D02*
X104293203Y-88669114D01*
X104293203Y-88669114D02*
X104293203Y-88240542D01*
X104293203Y-88240542D02*
X104221775Y-88097685D01*
X104221775Y-88097685D02*
X104150346Y-88026257D01*
X104150346Y-88026257D02*
X104007489Y-87954828D01*
X104007489Y-87954828D02*
X103793203Y-87954828D01*
X103793203Y-87954828D02*
X103650346Y-88026257D01*
X103650346Y-88026257D02*
X103578918Y-88097685D01*
X103578918Y-88097685D02*
X103507489Y-88240542D01*
X103507489Y-88240542D02*
X103507489Y-88669114D01*
X103507489Y-88669114D02*
X103578918Y-88811971D01*
X103578918Y-88811971D02*
X103650346Y-88883400D01*
X103650346Y-88883400D02*
X103793203Y-88954828D01*
X103793203Y-88954828D02*
X104007489Y-88954828D01*
X102864632Y-87954828D02*
X102864632Y-88954828D01*
X102864632Y-88097685D02*
X102793203Y-88026257D01*
X102793203Y-88026257D02*
X102650346Y-87954828D01*
X102650346Y-87954828D02*
X102436060Y-87954828D01*
X102436060Y-87954828D02*
X102293203Y-88026257D01*
X102293203Y-88026257D02*
X102221775Y-88169114D01*
X102221775Y-88169114D02*
X102221775Y-88954828D01*
X101721774Y-87954828D02*
X101150346Y-87954828D01*
X101507489Y-88954828D02*
X101507489Y-87669114D01*
X101507489Y-87669114D02*
X101436060Y-87526257D01*
X101436060Y-87526257D02*
X101293203Y-87454828D01*
X101293203Y-87454828D02*
X101150346Y-87454828D01*
X100436060Y-88954828D02*
X100578917Y-88883400D01*
X100578917Y-88883400D02*
X100650346Y-88811971D01*
X100650346Y-88811971D02*
X100721774Y-88669114D01*
X100721774Y-88669114D02*
X100721774Y-88240542D01*
X100721774Y-88240542D02*
X100650346Y-88097685D01*
X100650346Y-88097685D02*
X100578917Y-88026257D01*
X100578917Y-88026257D02*
X100436060Y-87954828D01*
X100436060Y-87954828D02*
X100221774Y-87954828D01*
X100221774Y-87954828D02*
X100078917Y-88026257D01*
X100078917Y-88026257D02*
X100007489Y-88097685D01*
X100007489Y-88097685D02*
X99936060Y-88240542D01*
X99936060Y-88240542D02*
X99936060Y-88669114D01*
X99936060Y-88669114D02*
X100007489Y-88811971D01*
X100007489Y-88811971D02*
X100078917Y-88883400D01*
X100078917Y-88883400D02*
X100221774Y-88954828D01*
X100221774Y-88954828D02*
X100436060Y-88954828D01*
X99293203Y-88954828D02*
X99293203Y-87954828D01*
X99293203Y-88240542D02*
X99221774Y-88097685D01*
X99221774Y-88097685D02*
X99150346Y-88026257D01*
X99150346Y-88026257D02*
X99007488Y-87954828D01*
X99007488Y-87954828D02*
X98864631Y-87954828D01*
X98364632Y-88954828D02*
X98364632Y-87954828D01*
X98364632Y-88097685D02*
X98293203Y-88026257D01*
X98293203Y-88026257D02*
X98150346Y-87954828D01*
X98150346Y-87954828D02*
X97936060Y-87954828D01*
X97936060Y-87954828D02*
X97793203Y-88026257D01*
X97793203Y-88026257D02*
X97721775Y-88169114D01*
X97721775Y-88169114D02*
X97721775Y-88954828D01*
X97721775Y-88169114D02*
X97650346Y-88026257D01*
X97650346Y-88026257D02*
X97507489Y-87954828D01*
X97507489Y-87954828D02*
X97293203Y-87954828D01*
X97293203Y-87954828D02*
X97150346Y-88026257D01*
X97150346Y-88026257D02*
X97078917Y-88169114D01*
X97078917Y-88169114D02*
X97078917Y-88954828D01*
X95721775Y-88954828D02*
X95721775Y-88169114D01*
X95721775Y-88169114D02*
X95793203Y-88026257D01*
X95793203Y-88026257D02*
X95936060Y-87954828D01*
X95936060Y-87954828D02*
X96221775Y-87954828D01*
X96221775Y-87954828D02*
X96364632Y-88026257D01*
X95721775Y-88883400D02*
X95864632Y-88954828D01*
X95864632Y-88954828D02*
X96221775Y-88954828D01*
X96221775Y-88954828D02*
X96364632Y-88883400D01*
X96364632Y-88883400D02*
X96436060Y-88740542D01*
X96436060Y-88740542D02*
X96436060Y-88597685D01*
X96436060Y-88597685D02*
X96364632Y-88454828D01*
X96364632Y-88454828D02*
X96221775Y-88383400D01*
X96221775Y-88383400D02*
X95864632Y-88383400D01*
X95864632Y-88383400D02*
X95721775Y-88311971D01*
X94793203Y-88954828D02*
X94936060Y-88883400D01*
X94936060Y-88883400D02*
X95007489Y-88740542D01*
X95007489Y-88740542D02*
X95007489Y-87454828D01*
D10*
X254860588Y-88869819D02*
X254289160Y-88869819D01*
X254574874Y-88869819D02*
X254574874Y-87869819D01*
X254574874Y-87869819D02*
X254479636Y-88012676D01*
X254479636Y-88012676D02*
X254384398Y-88107914D01*
X254384398Y-88107914D02*
X254289160Y-88155533D01*
X255241541Y-87965057D02*
X255289160Y-87917438D01*
X255289160Y-87917438D02*
X255384398Y-87869819D01*
X255384398Y-87869819D02*
X255622493Y-87869819D01*
X255622493Y-87869819D02*
X255717731Y-87917438D01*
X255717731Y-87917438D02*
X255765350Y-87965057D01*
X255765350Y-87965057D02*
X255812969Y-88060295D01*
X255812969Y-88060295D02*
X255812969Y-88155533D01*
X255812969Y-88155533D02*
X255765350Y-88298390D01*
X255765350Y-88298390D02*
X255193922Y-88869819D01*
X255193922Y-88869819D02*
X255812969Y-88869819D01*
X256146303Y-88203152D02*
X256384398Y-88869819D01*
X256384398Y-88869819D02*
X256622493Y-88203152D01*
X257765351Y-88488866D02*
X258527256Y-88488866D01*
X259003446Y-88203152D02*
X259765351Y-88488866D01*
X259765351Y-88488866D02*
X259003446Y-88774580D01*
X260908208Y-87869819D02*
X261527255Y-87869819D01*
X261527255Y-87869819D02*
X261193922Y-88250771D01*
X261193922Y-88250771D02*
X261336779Y-88250771D01*
X261336779Y-88250771D02*
X261432017Y-88298390D01*
X261432017Y-88298390D02*
X261479636Y-88346009D01*
X261479636Y-88346009D02*
X261527255Y-88441247D01*
X261527255Y-88441247D02*
X261527255Y-88679342D01*
X261527255Y-88679342D02*
X261479636Y-88774580D01*
X261479636Y-88774580D02*
X261432017Y-88822200D01*
X261432017Y-88822200D02*
X261336779Y-88869819D01*
X261336779Y-88869819D02*
X261051065Y-88869819D01*
X261051065Y-88869819D02*
X260955827Y-88822200D01*
X260955827Y-88822200D02*
X260908208Y-88774580D01*
X261860589Y-88203152D02*
X262098684Y-88869819D01*
X262098684Y-88869819D02*
X262336779Y-88203152D01*
X134202381Y-92304819D02*
X133630953Y-92304819D01*
X133916667Y-92304819D02*
X133916667Y-91304819D01*
X133916667Y-91304819D02*
X133821429Y-91447676D01*
X133821429Y-91447676D02*
X133726191Y-91542914D01*
X133726191Y-91542914D02*
X133630953Y-91590533D01*
X135107143Y-91304819D02*
X134630953Y-91304819D01*
X134630953Y-91304819D02*
X134583334Y-91781009D01*
X134583334Y-91781009D02*
X134630953Y-91733390D01*
X134630953Y-91733390D02*
X134726191Y-91685771D01*
X134726191Y-91685771D02*
X134964286Y-91685771D01*
X134964286Y-91685771D02*
X135059524Y-91733390D01*
X135059524Y-91733390D02*
X135107143Y-91781009D01*
X135107143Y-91781009D02*
X135154762Y-91876247D01*
X135154762Y-91876247D02*
X135154762Y-92114342D01*
X135154762Y-92114342D02*
X135107143Y-92209580D01*
X135107143Y-92209580D02*
X135059524Y-92257200D01*
X135059524Y-92257200D02*
X134964286Y-92304819D01*
X134964286Y-92304819D02*
X134726191Y-92304819D01*
X134726191Y-92304819D02*
X134630953Y-92257200D01*
X134630953Y-92257200D02*
X134583334Y-92209580D01*
X135583334Y-92209580D02*
X135630953Y-92257200D01*
X135630953Y-92257200D02*
X135583334Y-92304819D01*
X135583334Y-92304819D02*
X135535715Y-92257200D01*
X135535715Y-92257200D02*
X135583334Y-92209580D01*
X135583334Y-92209580D02*
X135583334Y-92304819D01*
X136535714Y-91304819D02*
X136059524Y-91304819D01*
X136059524Y-91304819D02*
X136011905Y-91781009D01*
X136011905Y-91781009D02*
X136059524Y-91733390D01*
X136059524Y-91733390D02*
X136154762Y-91685771D01*
X136154762Y-91685771D02*
X136392857Y-91685771D01*
X136392857Y-91685771D02*
X136488095Y-91733390D01*
X136488095Y-91733390D02*
X136535714Y-91781009D01*
X136535714Y-91781009D02*
X136583333Y-91876247D01*
X136583333Y-91876247D02*
X136583333Y-92114342D01*
X136583333Y-92114342D02*
X136535714Y-92209580D01*
X136535714Y-92209580D02*
X136488095Y-92257200D01*
X136488095Y-92257200D02*
X136392857Y-92304819D01*
X136392857Y-92304819D02*
X136154762Y-92304819D01*
X136154762Y-92304819D02*
X136059524Y-92257200D01*
X136059524Y-92257200D02*
X136011905Y-92209580D01*
X137202381Y-91304819D02*
X137297619Y-91304819D01*
X137297619Y-91304819D02*
X137392857Y-91352438D01*
X137392857Y-91352438D02*
X137440476Y-91400057D01*
X137440476Y-91400057D02*
X137488095Y-91495295D01*
X137488095Y-91495295D02*
X137535714Y-91685771D01*
X137535714Y-91685771D02*
X137535714Y-91923866D01*
X137535714Y-91923866D02*
X137488095Y-92114342D01*
X137488095Y-92114342D02*
X137440476Y-92209580D01*
X137440476Y-92209580D02*
X137392857Y-92257200D01*
X137392857Y-92257200D02*
X137297619Y-92304819D01*
X137297619Y-92304819D02*
X137202381Y-92304819D01*
X137202381Y-92304819D02*
X137107143Y-92257200D01*
X137107143Y-92257200D02*
X137059524Y-92209580D01*
X137059524Y-92209580D02*
X137011905Y-92114342D01*
X137011905Y-92114342D02*
X136964286Y-91923866D01*
X136964286Y-91923866D02*
X136964286Y-91685771D01*
X136964286Y-91685771D02*
X137011905Y-91495295D01*
X137011905Y-91495295D02*
X137059524Y-91400057D01*
X137059524Y-91400057D02*
X137107143Y-91352438D01*
X137107143Y-91352438D02*
X137202381Y-91304819D01*
X138154762Y-91304819D02*
X138250000Y-91304819D01*
X138250000Y-91304819D02*
X138345238Y-91352438D01*
X138345238Y-91352438D02*
X138392857Y-91400057D01*
X138392857Y-91400057D02*
X138440476Y-91495295D01*
X138440476Y-91495295D02*
X138488095Y-91685771D01*
X138488095Y-91685771D02*
X138488095Y-91923866D01*
X138488095Y-91923866D02*
X138440476Y-92114342D01*
X138440476Y-92114342D02*
X138392857Y-92209580D01*
X138392857Y-92209580D02*
X138345238Y-92257200D01*
X138345238Y-92257200D02*
X138250000Y-92304819D01*
X138250000Y-92304819D02*
X138154762Y-92304819D01*
X138154762Y-92304819D02*
X138059524Y-92257200D01*
X138059524Y-92257200D02*
X138011905Y-92209580D01*
X138011905Y-92209580D02*
X137964286Y-92114342D01*
X137964286Y-92114342D02*
X137916667Y-91923866D01*
X137916667Y-91923866D02*
X137916667Y-91685771D01*
X137916667Y-91685771D02*
X137964286Y-91495295D01*
X137964286Y-91495295D02*
X138011905Y-91400057D01*
X138011905Y-91400057D02*
X138059524Y-91352438D01*
X138059524Y-91352438D02*
X138154762Y-91304819D01*
X139107143Y-91304819D02*
X139202381Y-91304819D01*
X139202381Y-91304819D02*
X139297619Y-91352438D01*
X139297619Y-91352438D02*
X139345238Y-91400057D01*
X139345238Y-91400057D02*
X139392857Y-91495295D01*
X139392857Y-91495295D02*
X139440476Y-91685771D01*
X139440476Y-91685771D02*
X139440476Y-91923866D01*
X139440476Y-91923866D02*
X139392857Y-92114342D01*
X139392857Y-92114342D02*
X139345238Y-92209580D01*
X139345238Y-92209580D02*
X139297619Y-92257200D01*
X139297619Y-92257200D02*
X139202381Y-92304819D01*
X139202381Y-92304819D02*
X139107143Y-92304819D01*
X139107143Y-92304819D02*
X139011905Y-92257200D01*
X139011905Y-92257200D02*
X138964286Y-92209580D01*
X138964286Y-92209580D02*
X138916667Y-92114342D01*
X138916667Y-92114342D02*
X138869048Y-91923866D01*
X138869048Y-91923866D02*
X138869048Y-91685771D01*
X138869048Y-91685771D02*
X138916667Y-91495295D01*
X138916667Y-91495295D02*
X138964286Y-91400057D01*
X138964286Y-91400057D02*
X139011905Y-91352438D01*
X139011905Y-91352438D02*
X139107143Y-91304819D01*
X140630953Y-92304819D02*
X140630953Y-91638152D01*
X140630953Y-91733390D02*
X140678572Y-91685771D01*
X140678572Y-91685771D02*
X140773810Y-91638152D01*
X140773810Y-91638152D02*
X140916667Y-91638152D01*
X140916667Y-91638152D02*
X141011905Y-91685771D01*
X141011905Y-91685771D02*
X141059524Y-91781009D01*
X141059524Y-91781009D02*
X141059524Y-92304819D01*
X141059524Y-91781009D02*
X141107143Y-91685771D01*
X141107143Y-91685771D02*
X141202381Y-91638152D01*
X141202381Y-91638152D02*
X141345238Y-91638152D01*
X141345238Y-91638152D02*
X141440477Y-91685771D01*
X141440477Y-91685771D02*
X141488096Y-91781009D01*
X141488096Y-91781009D02*
X141488096Y-92304819D01*
X141964286Y-92304819D02*
X141964286Y-91638152D01*
X141964286Y-91733390D02*
X142011905Y-91685771D01*
X142011905Y-91685771D02*
X142107143Y-91638152D01*
X142107143Y-91638152D02*
X142250000Y-91638152D01*
X142250000Y-91638152D02*
X142345238Y-91685771D01*
X142345238Y-91685771D02*
X142392857Y-91781009D01*
X142392857Y-91781009D02*
X142392857Y-92304819D01*
X142392857Y-91781009D02*
X142440476Y-91685771D01*
X142440476Y-91685771D02*
X142535714Y-91638152D01*
X142535714Y-91638152D02*
X142678571Y-91638152D01*
X142678571Y-91638152D02*
X142773810Y-91685771D01*
X142773810Y-91685771D02*
X142821429Y-91781009D01*
X142821429Y-91781009D02*
X142821429Y-92304819D01*
X130500000Y-84000000D02*
X130500000Y-93586420D01*
X146000000Y-84000000D02*
X146000000Y-93586420D01*
X130500000Y-93000000D02*
X146000000Y-93000000D01*
X130500000Y-93000000D02*
X146000000Y-93000000D01*
X130500000Y-93000000D02*
X131626504Y-92413579D01*
X130500000Y-93000000D02*
X131626504Y-93586421D01*
X146000000Y-93000000D02*
X144873496Y-93586421D01*
X146000000Y-93000000D02*
X144873496Y-92413579D01*
X291792819Y-137120333D02*
X291316628Y-136787000D01*
X291792819Y-136548905D02*
X290792819Y-136548905D01*
X290792819Y-136548905D02*
X290792819Y-136929857D01*
X290792819Y-136929857D02*
X290840438Y-137025095D01*
X290840438Y-137025095D02*
X290888057Y-137072714D01*
X290888057Y-137072714D02*
X290983295Y-137120333D01*
X290983295Y-137120333D02*
X291126152Y-137120333D01*
X291126152Y-137120333D02*
X291221390Y-137072714D01*
X291221390Y-137072714D02*
X291269009Y-137025095D01*
X291269009Y-137025095D02*
X291316628Y-136929857D01*
X291316628Y-136929857D02*
X291316628Y-136548905D01*
X291221390Y-137691762D02*
X291173771Y-137596524D01*
X291173771Y-137596524D02*
X291126152Y-137548905D01*
X291126152Y-137548905D02*
X291030914Y-137501286D01*
X291030914Y-137501286D02*
X290983295Y-137501286D01*
X290983295Y-137501286D02*
X290888057Y-137548905D01*
X290888057Y-137548905D02*
X290840438Y-137596524D01*
X290840438Y-137596524D02*
X290792819Y-137691762D01*
X290792819Y-137691762D02*
X290792819Y-137882238D01*
X290792819Y-137882238D02*
X290840438Y-137977476D01*
X290840438Y-137977476D02*
X290888057Y-138025095D01*
X290888057Y-138025095D02*
X290983295Y-138072714D01*
X290983295Y-138072714D02*
X291030914Y-138072714D01*
X291030914Y-138072714D02*
X291126152Y-138025095D01*
X291126152Y-138025095D02*
X291173771Y-137977476D01*
X291173771Y-137977476D02*
X291221390Y-137882238D01*
X291221390Y-137882238D02*
X291221390Y-137691762D01*
X291221390Y-137691762D02*
X291269009Y-137596524D01*
X291269009Y-137596524D02*
X291316628Y-137548905D01*
X291316628Y-137548905D02*
X291411866Y-137501286D01*
X291411866Y-137501286D02*
X291602342Y-137501286D01*
X291602342Y-137501286D02*
X291697580Y-137548905D01*
X291697580Y-137548905D02*
X291745200Y-137596524D01*
X291745200Y-137596524D02*
X291792819Y-137691762D01*
X291792819Y-137691762D02*
X291792819Y-137882238D01*
X291792819Y-137882238D02*
X291745200Y-137977476D01*
X291745200Y-137977476D02*
X291697580Y-138025095D01*
X291697580Y-138025095D02*
X291602342Y-138072714D01*
X291602342Y-138072714D02*
X291411866Y-138072714D01*
X291411866Y-138072714D02*
X291316628Y-138025095D01*
X291316628Y-138025095D02*
X291269009Y-137977476D01*
X291269009Y-137977476D02*
X291221390Y-137882238D01*
X187962357Y-85891580D02*
X188009976Y-85939200D01*
X188009976Y-85939200D02*
X188152833Y-85986819D01*
X188152833Y-85986819D02*
X188248071Y-85986819D01*
X188248071Y-85986819D02*
X188390928Y-85939200D01*
X188390928Y-85939200D02*
X188486166Y-85843961D01*
X188486166Y-85843961D02*
X188533785Y-85748723D01*
X188533785Y-85748723D02*
X188581404Y-85558247D01*
X188581404Y-85558247D02*
X188581404Y-85415390D01*
X188581404Y-85415390D02*
X188533785Y-85224914D01*
X188533785Y-85224914D02*
X188486166Y-85129676D01*
X188486166Y-85129676D02*
X188390928Y-85034438D01*
X188390928Y-85034438D02*
X188248071Y-84986819D01*
X188248071Y-84986819D02*
X188152833Y-84986819D01*
X188152833Y-84986819D02*
X188009976Y-85034438D01*
X188009976Y-85034438D02*
X187962357Y-85082057D01*
X187009976Y-85986819D02*
X187581404Y-85986819D01*
X187295690Y-85986819D02*
X187295690Y-84986819D01*
X187295690Y-84986819D02*
X187390928Y-85129676D01*
X187390928Y-85129676D02*
X187486166Y-85224914D01*
X187486166Y-85224914D02*
X187581404Y-85272533D01*
X186438547Y-85415390D02*
X186533785Y-85367771D01*
X186533785Y-85367771D02*
X186581404Y-85320152D01*
X186581404Y-85320152D02*
X186629023Y-85224914D01*
X186629023Y-85224914D02*
X186629023Y-85177295D01*
X186629023Y-85177295D02*
X186581404Y-85082057D01*
X186581404Y-85082057D02*
X186533785Y-85034438D01*
X186533785Y-85034438D02*
X186438547Y-84986819D01*
X186438547Y-84986819D02*
X186248071Y-84986819D01*
X186248071Y-84986819D02*
X186152833Y-85034438D01*
X186152833Y-85034438D02*
X186105214Y-85082057D01*
X186105214Y-85082057D02*
X186057595Y-85177295D01*
X186057595Y-85177295D02*
X186057595Y-85224914D01*
X186057595Y-85224914D02*
X186105214Y-85320152D01*
X186105214Y-85320152D02*
X186152833Y-85367771D01*
X186152833Y-85367771D02*
X186248071Y-85415390D01*
X186248071Y-85415390D02*
X186438547Y-85415390D01*
X186438547Y-85415390D02*
X186533785Y-85463009D01*
X186533785Y-85463009D02*
X186581404Y-85510628D01*
X186581404Y-85510628D02*
X186629023Y-85605866D01*
X186629023Y-85605866D02*
X186629023Y-85796342D01*
X186629023Y-85796342D02*
X186581404Y-85891580D01*
X186581404Y-85891580D02*
X186533785Y-85939200D01*
X186533785Y-85939200D02*
X186438547Y-85986819D01*
X186438547Y-85986819D02*
X186248071Y-85986819D01*
X186248071Y-85986819D02*
X186152833Y-85939200D01*
X186152833Y-85939200D02*
X186105214Y-85891580D01*
X186105214Y-85891580D02*
X186057595Y-85796342D01*
X186057595Y-85796342D02*
X186057595Y-85605866D01*
X186057595Y-85605866D02*
X186105214Y-85510628D01*
X186105214Y-85510628D02*
X186152833Y-85463009D01*
X186152833Y-85463009D02*
X186248071Y-85415390D01*
X215470357Y-144950819D02*
X215803690Y-144474628D01*
X216041785Y-144950819D02*
X216041785Y-143950819D01*
X216041785Y-143950819D02*
X215660833Y-143950819D01*
X215660833Y-143950819D02*
X215565595Y-143998438D01*
X215565595Y-143998438D02*
X215517976Y-144046057D01*
X215517976Y-144046057D02*
X215470357Y-144141295D01*
X215470357Y-144141295D02*
X215470357Y-144284152D01*
X215470357Y-144284152D02*
X215517976Y-144379390D01*
X215517976Y-144379390D02*
X215565595Y-144427009D01*
X215565595Y-144427009D02*
X215660833Y-144474628D01*
X215660833Y-144474628D02*
X216041785Y-144474628D01*
X214517976Y-144950819D02*
X215089404Y-144950819D01*
X214803690Y-144950819D02*
X214803690Y-143950819D01*
X214803690Y-143950819D02*
X214898928Y-144093676D01*
X214898928Y-144093676D02*
X214994166Y-144188914D01*
X214994166Y-144188914D02*
X215089404Y-144236533D01*
X213946547Y-144379390D02*
X214041785Y-144331771D01*
X214041785Y-144331771D02*
X214089404Y-144284152D01*
X214089404Y-144284152D02*
X214137023Y-144188914D01*
X214137023Y-144188914D02*
X214137023Y-144141295D01*
X214137023Y-144141295D02*
X214089404Y-144046057D01*
X214089404Y-144046057D02*
X214041785Y-143998438D01*
X214041785Y-143998438D02*
X213946547Y-143950819D01*
X213946547Y-143950819D02*
X213756071Y-143950819D01*
X213756071Y-143950819D02*
X213660833Y-143998438D01*
X213660833Y-143998438D02*
X213613214Y-144046057D01*
X213613214Y-144046057D02*
X213565595Y-144141295D01*
X213565595Y-144141295D02*
X213565595Y-144188914D01*
X213565595Y-144188914D02*
X213613214Y-144284152D01*
X213613214Y-144284152D02*
X213660833Y-144331771D01*
X213660833Y-144331771D02*
X213756071Y-144379390D01*
X213756071Y-144379390D02*
X213946547Y-144379390D01*
X213946547Y-144379390D02*
X214041785Y-144427009D01*
X214041785Y-144427009D02*
X214089404Y-144474628D01*
X214089404Y-144474628D02*
X214137023Y-144569866D01*
X214137023Y-144569866D02*
X214137023Y-144760342D01*
X214137023Y-144760342D02*
X214089404Y-144855580D01*
X214089404Y-144855580D02*
X214041785Y-144903200D01*
X214041785Y-144903200D02*
X213946547Y-144950819D01*
X213946547Y-144950819D02*
X213756071Y-144950819D01*
X213756071Y-144950819D02*
X213660833Y-144903200D01*
X213660833Y-144903200D02*
X213613214Y-144855580D01*
X213613214Y-144855580D02*
X213565595Y-144760342D01*
X213565595Y-144760342D02*
X213565595Y-144569866D01*
X213565595Y-144569866D02*
X213613214Y-144474628D01*
X213613214Y-144474628D02*
X213660833Y-144427009D01*
X213660833Y-144427009D02*
X213756071Y-144379390D01*
X135442904Y-157688819D02*
X135442904Y-158498342D01*
X135442904Y-158498342D02*
X135395285Y-158593580D01*
X135395285Y-158593580D02*
X135347666Y-158641200D01*
X135347666Y-158641200D02*
X135252428Y-158688819D01*
X135252428Y-158688819D02*
X135061952Y-158688819D01*
X135061952Y-158688819D02*
X134966714Y-158641200D01*
X134966714Y-158641200D02*
X134919095Y-158593580D01*
X134919095Y-158593580D02*
X134871476Y-158498342D01*
X134871476Y-158498342D02*
X134871476Y-157688819D01*
X133919095Y-157688819D02*
X134395285Y-157688819D01*
X134395285Y-157688819D02*
X134442904Y-158165009D01*
X134442904Y-158165009D02*
X134395285Y-158117390D01*
X134395285Y-158117390D02*
X134300047Y-158069771D01*
X134300047Y-158069771D02*
X134061952Y-158069771D01*
X134061952Y-158069771D02*
X133966714Y-158117390D01*
X133966714Y-158117390D02*
X133919095Y-158165009D01*
X133919095Y-158165009D02*
X133871476Y-158260247D01*
X133871476Y-158260247D02*
X133871476Y-158498342D01*
X133871476Y-158498342D02*
X133919095Y-158593580D01*
X133919095Y-158593580D02*
X133966714Y-158641200D01*
X133966714Y-158641200D02*
X134061952Y-158688819D01*
X134061952Y-158688819D02*
X134300047Y-158688819D01*
X134300047Y-158688819D02*
X134395285Y-158641200D01*
X134395285Y-158641200D02*
X134442904Y-158593580D01*
X247182819Y-97051905D02*
X246182819Y-97051905D01*
X246182819Y-97051905D02*
X246182819Y-97290000D01*
X246182819Y-97290000D02*
X246230438Y-97432857D01*
X246230438Y-97432857D02*
X246325676Y-97528095D01*
X246325676Y-97528095D02*
X246420914Y-97575714D01*
X246420914Y-97575714D02*
X246611390Y-97623333D01*
X246611390Y-97623333D02*
X246754247Y-97623333D01*
X246754247Y-97623333D02*
X246944723Y-97575714D01*
X246944723Y-97575714D02*
X247039961Y-97528095D01*
X247039961Y-97528095D02*
X247135200Y-97432857D01*
X247135200Y-97432857D02*
X247182819Y-97290000D01*
X247182819Y-97290000D02*
X247182819Y-97051905D01*
X246182819Y-97956667D02*
X246182819Y-98575714D01*
X246182819Y-98575714D02*
X246563771Y-98242381D01*
X246563771Y-98242381D02*
X246563771Y-98385238D01*
X246563771Y-98385238D02*
X246611390Y-98480476D01*
X246611390Y-98480476D02*
X246659009Y-98528095D01*
X246659009Y-98528095D02*
X246754247Y-98575714D01*
X246754247Y-98575714D02*
X246992342Y-98575714D01*
X246992342Y-98575714D02*
X247087580Y-98528095D01*
X247087580Y-98528095D02*
X247135200Y-98480476D01*
X247135200Y-98480476D02*
X247182819Y-98385238D01*
X247182819Y-98385238D02*
X247182819Y-98099524D01*
X247182819Y-98099524D02*
X247135200Y-98004286D01*
X247135200Y-98004286D02*
X247087580Y-97956667D01*
X101734857Y-120638819D02*
X102068190Y-120162628D01*
X102306285Y-120638819D02*
X102306285Y-119638819D01*
X102306285Y-119638819D02*
X101925333Y-119638819D01*
X101925333Y-119638819D02*
X101830095Y-119686438D01*
X101830095Y-119686438D02*
X101782476Y-119734057D01*
X101782476Y-119734057D02*
X101734857Y-119829295D01*
X101734857Y-119829295D02*
X101734857Y-119972152D01*
X101734857Y-119972152D02*
X101782476Y-120067390D01*
X101782476Y-120067390D02*
X101830095Y-120115009D01*
X101830095Y-120115009D02*
X101925333Y-120162628D01*
X101925333Y-120162628D02*
X102306285Y-120162628D01*
X101401523Y-119638819D02*
X100782476Y-119638819D01*
X100782476Y-119638819D02*
X101115809Y-120019771D01*
X101115809Y-120019771D02*
X100972952Y-120019771D01*
X100972952Y-120019771D02*
X100877714Y-120067390D01*
X100877714Y-120067390D02*
X100830095Y-120115009D01*
X100830095Y-120115009D02*
X100782476Y-120210247D01*
X100782476Y-120210247D02*
X100782476Y-120448342D01*
X100782476Y-120448342D02*
X100830095Y-120543580D01*
X100830095Y-120543580D02*
X100877714Y-120591200D01*
X100877714Y-120591200D02*
X100972952Y-120638819D01*
X100972952Y-120638819D02*
X101258666Y-120638819D01*
X101258666Y-120638819D02*
X101353904Y-120591200D01*
X101353904Y-120591200D02*
X101401523Y-120543580D01*
X99925333Y-119638819D02*
X100115809Y-119638819D01*
X100115809Y-119638819D02*
X100211047Y-119686438D01*
X100211047Y-119686438D02*
X100258666Y-119734057D01*
X100258666Y-119734057D02*
X100353904Y-119876914D01*
X100353904Y-119876914D02*
X100401523Y-120067390D01*
X100401523Y-120067390D02*
X100401523Y-120448342D01*
X100401523Y-120448342D02*
X100353904Y-120543580D01*
X100353904Y-120543580D02*
X100306285Y-120591200D01*
X100306285Y-120591200D02*
X100211047Y-120638819D01*
X100211047Y-120638819D02*
X100020571Y-120638819D01*
X100020571Y-120638819D02*
X99925333Y-120591200D01*
X99925333Y-120591200D02*
X99877714Y-120543580D01*
X99877714Y-120543580D02*
X99830095Y-120448342D01*
X99830095Y-120448342D02*
X99830095Y-120210247D01*
X99830095Y-120210247D02*
X99877714Y-120115009D01*
X99877714Y-120115009D02*
X99925333Y-120067390D01*
X99925333Y-120067390D02*
X100020571Y-120019771D01*
X100020571Y-120019771D02*
X100211047Y-120019771D01*
X100211047Y-120019771D02*
X100306285Y-120067390D01*
X100306285Y-120067390D02*
X100353904Y-120115009D01*
X100353904Y-120115009D02*
X100401523Y-120210247D01*
X182146819Y-96927405D02*
X182956342Y-96927405D01*
X182956342Y-96927405D02*
X183051580Y-96975024D01*
X183051580Y-96975024D02*
X183099200Y-97022643D01*
X183099200Y-97022643D02*
X183146819Y-97117881D01*
X183146819Y-97117881D02*
X183146819Y-97308357D01*
X183146819Y-97308357D02*
X183099200Y-97403595D01*
X183099200Y-97403595D02*
X183051580Y-97451214D01*
X183051580Y-97451214D02*
X182956342Y-97498833D01*
X182956342Y-97498833D02*
X182146819Y-97498833D01*
X183146819Y-98498833D02*
X183146819Y-97927405D01*
X183146819Y-98213119D02*
X182146819Y-98213119D01*
X182146819Y-98213119D02*
X182289676Y-98117881D01*
X182289676Y-98117881D02*
X182384914Y-98022643D01*
X182384914Y-98022643D02*
X182432533Y-97927405D01*
X182242057Y-98879786D02*
X182194438Y-98927405D01*
X182194438Y-98927405D02*
X182146819Y-99022643D01*
X182146819Y-99022643D02*
X182146819Y-99260738D01*
X182146819Y-99260738D02*
X182194438Y-99355976D01*
X182194438Y-99355976D02*
X182242057Y-99403595D01*
X182242057Y-99403595D02*
X182337295Y-99451214D01*
X182337295Y-99451214D02*
X182432533Y-99451214D01*
X182432533Y-99451214D02*
X182575390Y-99403595D01*
X182575390Y-99403595D02*
X183146819Y-98832167D01*
X183146819Y-98832167D02*
X183146819Y-99451214D01*
X184432819Y-85629905D02*
X185242342Y-85629905D01*
X185242342Y-85629905D02*
X185337580Y-85677524D01*
X185337580Y-85677524D02*
X185385200Y-85725143D01*
X185385200Y-85725143D02*
X185432819Y-85820381D01*
X185432819Y-85820381D02*
X185432819Y-86010857D01*
X185432819Y-86010857D02*
X185385200Y-86106095D01*
X185385200Y-86106095D02*
X185337580Y-86153714D01*
X185337580Y-86153714D02*
X185242342Y-86201333D01*
X185242342Y-86201333D02*
X184432819Y-86201333D01*
X185432819Y-87201333D02*
X185432819Y-86629905D01*
X185432819Y-86915619D02*
X184432819Y-86915619D01*
X184432819Y-86915619D02*
X184575676Y-86820381D01*
X184575676Y-86820381D02*
X184670914Y-86725143D01*
X184670914Y-86725143D02*
X184718533Y-86629905D01*
X185432819Y-88153714D02*
X185432819Y-87582286D01*
X185432819Y-87868000D02*
X184432819Y-87868000D01*
X184432819Y-87868000D02*
X184575676Y-87772762D01*
X184575676Y-87772762D02*
X184670914Y-87677524D01*
X184670914Y-87677524D02*
X184718533Y-87582286D01*
X254674666Y-91037580D02*
X254722285Y-91085200D01*
X254722285Y-91085200D02*
X254865142Y-91132819D01*
X254865142Y-91132819D02*
X254960380Y-91132819D01*
X254960380Y-91132819D02*
X255103237Y-91085200D01*
X255103237Y-91085200D02*
X255198475Y-90989961D01*
X255198475Y-90989961D02*
X255246094Y-90894723D01*
X255246094Y-90894723D02*
X255293713Y-90704247D01*
X255293713Y-90704247D02*
X255293713Y-90561390D01*
X255293713Y-90561390D02*
X255246094Y-90370914D01*
X255246094Y-90370914D02*
X255198475Y-90275676D01*
X255198475Y-90275676D02*
X255103237Y-90180438D01*
X255103237Y-90180438D02*
X254960380Y-90132819D01*
X254960380Y-90132819D02*
X254865142Y-90132819D01*
X254865142Y-90132819D02*
X254722285Y-90180438D01*
X254722285Y-90180438D02*
X254674666Y-90228057D01*
X253817523Y-90466152D02*
X253817523Y-91132819D01*
X254055618Y-90085200D02*
X254293713Y-90799485D01*
X254293713Y-90799485D02*
X253674666Y-90799485D01*
X249749294Y-108784108D02*
X249749294Y-107784108D01*
X249749294Y-107784108D02*
X249511199Y-107784108D01*
X249511199Y-107784108D02*
X249368342Y-107831727D01*
X249368342Y-107831727D02*
X249273104Y-107926965D01*
X249273104Y-107926965D02*
X249225485Y-108022203D01*
X249225485Y-108022203D02*
X249177866Y-108212679D01*
X249177866Y-108212679D02*
X249177866Y-108355536D01*
X249177866Y-108355536D02*
X249225485Y-108546012D01*
X249225485Y-108546012D02*
X249273104Y-108641250D01*
X249273104Y-108641250D02*
X249368342Y-108736489D01*
X249368342Y-108736489D02*
X249511199Y-108784108D01*
X249511199Y-108784108D02*
X249749294Y-108784108D01*
X248320723Y-108117441D02*
X248320723Y-108784108D01*
X248558818Y-107736489D02*
X248796913Y-108450774D01*
X248796913Y-108450774D02*
X248177866Y-108450774D01*
X166222819Y-83504642D02*
X165746628Y-83171309D01*
X166222819Y-82933214D02*
X165222819Y-82933214D01*
X165222819Y-82933214D02*
X165222819Y-83314166D01*
X165222819Y-83314166D02*
X165270438Y-83409404D01*
X165270438Y-83409404D02*
X165318057Y-83457023D01*
X165318057Y-83457023D02*
X165413295Y-83504642D01*
X165413295Y-83504642D02*
X165556152Y-83504642D01*
X165556152Y-83504642D02*
X165651390Y-83457023D01*
X165651390Y-83457023D02*
X165699009Y-83409404D01*
X165699009Y-83409404D02*
X165746628Y-83314166D01*
X165746628Y-83314166D02*
X165746628Y-82933214D01*
X165556152Y-84361785D02*
X166222819Y-84361785D01*
X165175200Y-84123690D02*
X165889485Y-83885595D01*
X165889485Y-83885595D02*
X165889485Y-84504642D01*
X165222819Y-84790357D02*
X165222819Y-85409404D01*
X165222819Y-85409404D02*
X165603771Y-85076071D01*
X165603771Y-85076071D02*
X165603771Y-85218928D01*
X165603771Y-85218928D02*
X165651390Y-85314166D01*
X165651390Y-85314166D02*
X165699009Y-85361785D01*
X165699009Y-85361785D02*
X165794247Y-85409404D01*
X165794247Y-85409404D02*
X166032342Y-85409404D01*
X166032342Y-85409404D02*
X166127580Y-85361785D01*
X166127580Y-85361785D02*
X166175200Y-85314166D01*
X166175200Y-85314166D02*
X166222819Y-85218928D01*
X166222819Y-85218928D02*
X166222819Y-84933214D01*
X166222819Y-84933214D02*
X166175200Y-84837976D01*
X166175200Y-84837976D02*
X166127580Y-84790357D01*
X205186694Y-122513419D02*
X205186694Y-121513419D01*
X205186694Y-121513419D02*
X204948599Y-121513419D01*
X204948599Y-121513419D02*
X204805742Y-121561038D01*
X204805742Y-121561038D02*
X204710504Y-121656276D01*
X204710504Y-121656276D02*
X204662885Y-121751514D01*
X204662885Y-121751514D02*
X204615266Y-121941990D01*
X204615266Y-121941990D02*
X204615266Y-122084847D01*
X204615266Y-122084847D02*
X204662885Y-122275323D01*
X204662885Y-122275323D02*
X204710504Y-122370561D01*
X204710504Y-122370561D02*
X204805742Y-122465800D01*
X204805742Y-122465800D02*
X204948599Y-122513419D01*
X204948599Y-122513419D02*
X205186694Y-122513419D01*
X204234313Y-121608657D02*
X204186694Y-121561038D01*
X204186694Y-121561038D02*
X204091456Y-121513419D01*
X204091456Y-121513419D02*
X203853361Y-121513419D01*
X203853361Y-121513419D02*
X203758123Y-121561038D01*
X203758123Y-121561038D02*
X203710504Y-121608657D01*
X203710504Y-121608657D02*
X203662885Y-121703895D01*
X203662885Y-121703895D02*
X203662885Y-121799133D01*
X203662885Y-121799133D02*
X203710504Y-121941990D01*
X203710504Y-121941990D02*
X204281932Y-122513419D01*
X204281932Y-122513419D02*
X203662885Y-122513419D01*
X281759819Y-127825833D02*
X281283628Y-127492500D01*
X281759819Y-127254405D02*
X280759819Y-127254405D01*
X280759819Y-127254405D02*
X280759819Y-127635357D01*
X280759819Y-127635357D02*
X280807438Y-127730595D01*
X280807438Y-127730595D02*
X280855057Y-127778214D01*
X280855057Y-127778214D02*
X280950295Y-127825833D01*
X280950295Y-127825833D02*
X281093152Y-127825833D01*
X281093152Y-127825833D02*
X281188390Y-127778214D01*
X281188390Y-127778214D02*
X281236009Y-127730595D01*
X281236009Y-127730595D02*
X281283628Y-127635357D01*
X281283628Y-127635357D02*
X281283628Y-127254405D01*
X280759819Y-128730595D02*
X280759819Y-128254405D01*
X280759819Y-128254405D02*
X281236009Y-128206786D01*
X281236009Y-128206786D02*
X281188390Y-128254405D01*
X281188390Y-128254405D02*
X281140771Y-128349643D01*
X281140771Y-128349643D02*
X281140771Y-128587738D01*
X281140771Y-128587738D02*
X281188390Y-128682976D01*
X281188390Y-128682976D02*
X281236009Y-128730595D01*
X281236009Y-128730595D02*
X281331247Y-128778214D01*
X281331247Y-128778214D02*
X281569342Y-128778214D01*
X281569342Y-128778214D02*
X281664580Y-128730595D01*
X281664580Y-128730595D02*
X281712200Y-128682976D01*
X281712200Y-128682976D02*
X281759819Y-128587738D01*
X281759819Y-128587738D02*
X281759819Y-128349643D01*
X281759819Y-128349643D02*
X281712200Y-128254405D01*
X281712200Y-128254405D02*
X281664580Y-128206786D01*
X284299819Y-133310333D02*
X283823628Y-132977000D01*
X284299819Y-132738905D02*
X283299819Y-132738905D01*
X283299819Y-132738905D02*
X283299819Y-133119857D01*
X283299819Y-133119857D02*
X283347438Y-133215095D01*
X283347438Y-133215095D02*
X283395057Y-133262714D01*
X283395057Y-133262714D02*
X283490295Y-133310333D01*
X283490295Y-133310333D02*
X283633152Y-133310333D01*
X283633152Y-133310333D02*
X283728390Y-133262714D01*
X283728390Y-133262714D02*
X283776009Y-133215095D01*
X283776009Y-133215095D02*
X283823628Y-133119857D01*
X283823628Y-133119857D02*
X283823628Y-132738905D01*
X283299819Y-134167476D02*
X283299819Y-133977000D01*
X283299819Y-133977000D02*
X283347438Y-133881762D01*
X283347438Y-133881762D02*
X283395057Y-133834143D01*
X283395057Y-133834143D02*
X283537914Y-133738905D01*
X283537914Y-133738905D02*
X283728390Y-133691286D01*
X283728390Y-133691286D02*
X284109342Y-133691286D01*
X284109342Y-133691286D02*
X284204580Y-133738905D01*
X284204580Y-133738905D02*
X284252200Y-133786524D01*
X284252200Y-133786524D02*
X284299819Y-133881762D01*
X284299819Y-133881762D02*
X284299819Y-134072238D01*
X284299819Y-134072238D02*
X284252200Y-134167476D01*
X284252200Y-134167476D02*
X284204580Y-134215095D01*
X284204580Y-134215095D02*
X284109342Y-134262714D01*
X284109342Y-134262714D02*
X283871247Y-134262714D01*
X283871247Y-134262714D02*
X283776009Y-134215095D01*
X283776009Y-134215095D02*
X283728390Y-134167476D01*
X283728390Y-134167476D02*
X283680771Y-134072238D01*
X283680771Y-134072238D02*
X283680771Y-133881762D01*
X283680771Y-133881762D02*
X283728390Y-133786524D01*
X283728390Y-133786524D02*
X283776009Y-133738905D01*
X283776009Y-133738905D02*
X283871247Y-133691286D01*
X240865580Y-74863833D02*
X240913200Y-74816214D01*
X240913200Y-74816214D02*
X240960819Y-74673357D01*
X240960819Y-74673357D02*
X240960819Y-74578119D01*
X240960819Y-74578119D02*
X240913200Y-74435262D01*
X240913200Y-74435262D02*
X240817961Y-74340024D01*
X240817961Y-74340024D02*
X240722723Y-74292405D01*
X240722723Y-74292405D02*
X240532247Y-74244786D01*
X240532247Y-74244786D02*
X240389390Y-74244786D01*
X240389390Y-74244786D02*
X240198914Y-74292405D01*
X240198914Y-74292405D02*
X240103676Y-74340024D01*
X240103676Y-74340024D02*
X240008438Y-74435262D01*
X240008438Y-74435262D02*
X239960819Y-74578119D01*
X239960819Y-74578119D02*
X239960819Y-74673357D01*
X239960819Y-74673357D02*
X240008438Y-74816214D01*
X240008438Y-74816214D02*
X240056057Y-74863833D01*
X239960819Y-75197167D02*
X239960819Y-75863833D01*
X239960819Y-75863833D02*
X240960819Y-75435262D01*
X154049094Y-80942819D02*
X154049094Y-81752342D01*
X154049094Y-81752342D02*
X154001475Y-81847580D01*
X154001475Y-81847580D02*
X153953856Y-81895200D01*
X153953856Y-81895200D02*
X153858618Y-81942819D01*
X153858618Y-81942819D02*
X153668142Y-81942819D01*
X153668142Y-81942819D02*
X153572904Y-81895200D01*
X153572904Y-81895200D02*
X153525285Y-81847580D01*
X153525285Y-81847580D02*
X153477666Y-81752342D01*
X153477666Y-81752342D02*
X153477666Y-80942819D01*
X152477666Y-81942819D02*
X153049094Y-81942819D01*
X152763380Y-81942819D02*
X152763380Y-80942819D01*
X152763380Y-80942819D02*
X152858618Y-81085676D01*
X152858618Y-81085676D02*
X152953856Y-81180914D01*
X152953856Y-81180914D02*
X153049094Y-81228533D01*
X151620523Y-81276152D02*
X151620523Y-81942819D01*
X151858618Y-80895200D02*
X152096713Y-81609485D01*
X152096713Y-81609485D02*
X151477666Y-81609485D01*
X206890857Y-156664819D02*
X207224190Y-156188628D01*
X207462285Y-156664819D02*
X207462285Y-155664819D01*
X207462285Y-155664819D02*
X207081333Y-155664819D01*
X207081333Y-155664819D02*
X206986095Y-155712438D01*
X206986095Y-155712438D02*
X206938476Y-155760057D01*
X206938476Y-155760057D02*
X206890857Y-155855295D01*
X206890857Y-155855295D02*
X206890857Y-155998152D01*
X206890857Y-155998152D02*
X206938476Y-156093390D01*
X206938476Y-156093390D02*
X206986095Y-156141009D01*
X206986095Y-156141009D02*
X207081333Y-156188628D01*
X207081333Y-156188628D02*
X207462285Y-156188628D01*
X206509904Y-155760057D02*
X206462285Y-155712438D01*
X206462285Y-155712438D02*
X206367047Y-155664819D01*
X206367047Y-155664819D02*
X206128952Y-155664819D01*
X206128952Y-155664819D02*
X206033714Y-155712438D01*
X206033714Y-155712438D02*
X205986095Y-155760057D01*
X205986095Y-155760057D02*
X205938476Y-155855295D01*
X205938476Y-155855295D02*
X205938476Y-155950533D01*
X205938476Y-155950533D02*
X205986095Y-156093390D01*
X205986095Y-156093390D02*
X206557523Y-156664819D01*
X206557523Y-156664819D02*
X205938476Y-156664819D01*
X205605142Y-155664819D02*
X204986095Y-155664819D01*
X204986095Y-155664819D02*
X205319428Y-156045771D01*
X205319428Y-156045771D02*
X205176571Y-156045771D01*
X205176571Y-156045771D02*
X205081333Y-156093390D01*
X205081333Y-156093390D02*
X205033714Y-156141009D01*
X205033714Y-156141009D02*
X204986095Y-156236247D01*
X204986095Y-156236247D02*
X204986095Y-156474342D01*
X204986095Y-156474342D02*
X205033714Y-156569580D01*
X205033714Y-156569580D02*
X205081333Y-156617200D01*
X205081333Y-156617200D02*
X205176571Y-156664819D01*
X205176571Y-156664819D02*
X205462285Y-156664819D01*
X205462285Y-156664819D02*
X205557523Y-156617200D01*
X205557523Y-156617200D02*
X205605142Y-156569580D01*
X294477719Y-125637642D02*
X294001528Y-125304309D01*
X294477719Y-125066214D02*
X293477719Y-125066214D01*
X293477719Y-125066214D02*
X293477719Y-125447166D01*
X293477719Y-125447166D02*
X293525338Y-125542404D01*
X293525338Y-125542404D02*
X293572957Y-125590023D01*
X293572957Y-125590023D02*
X293668195Y-125637642D01*
X293668195Y-125637642D02*
X293811052Y-125637642D01*
X293811052Y-125637642D02*
X293906290Y-125590023D01*
X293906290Y-125590023D02*
X293953909Y-125542404D01*
X293953909Y-125542404D02*
X294001528Y-125447166D01*
X294001528Y-125447166D02*
X294001528Y-125066214D01*
X294477719Y-126590023D02*
X294477719Y-126018595D01*
X294477719Y-126304309D02*
X293477719Y-126304309D01*
X293477719Y-126304309D02*
X293620576Y-126209071D01*
X293620576Y-126209071D02*
X293715814Y-126113833D01*
X293715814Y-126113833D02*
X293763433Y-126018595D01*
X293477719Y-127494785D02*
X293477719Y-127018595D01*
X293477719Y-127018595D02*
X293953909Y-126970976D01*
X293953909Y-126970976D02*
X293906290Y-127018595D01*
X293906290Y-127018595D02*
X293858671Y-127113833D01*
X293858671Y-127113833D02*
X293858671Y-127351928D01*
X293858671Y-127351928D02*
X293906290Y-127447166D01*
X293906290Y-127447166D02*
X293953909Y-127494785D01*
X293953909Y-127494785D02*
X294049147Y-127542404D01*
X294049147Y-127542404D02*
X294287242Y-127542404D01*
X294287242Y-127542404D02*
X294382480Y-127494785D01*
X294382480Y-127494785D02*
X294430100Y-127447166D01*
X294430100Y-127447166D02*
X294477719Y-127351928D01*
X294477719Y-127351928D02*
X294477719Y-127113833D01*
X294477719Y-127113833D02*
X294430100Y-127018595D01*
X294430100Y-127018595D02*
X294382480Y-126970976D01*
X261439819Y-141715833D02*
X260963628Y-141382500D01*
X261439819Y-141144405D02*
X260439819Y-141144405D01*
X260439819Y-141144405D02*
X260439819Y-141525357D01*
X260439819Y-141525357D02*
X260487438Y-141620595D01*
X260487438Y-141620595D02*
X260535057Y-141668214D01*
X260535057Y-141668214D02*
X260630295Y-141715833D01*
X260630295Y-141715833D02*
X260773152Y-141715833D01*
X260773152Y-141715833D02*
X260868390Y-141668214D01*
X260868390Y-141668214D02*
X260916009Y-141620595D01*
X260916009Y-141620595D02*
X260963628Y-141525357D01*
X260963628Y-141525357D02*
X260963628Y-141144405D01*
X260773152Y-142572976D02*
X261439819Y-142572976D01*
X260392200Y-142334881D02*
X261106485Y-142096786D01*
X261106485Y-142096786D02*
X261106485Y-142715833D01*
X256190519Y-141668833D02*
X255714328Y-141335500D01*
X256190519Y-141097405D02*
X255190519Y-141097405D01*
X255190519Y-141097405D02*
X255190519Y-141478357D01*
X255190519Y-141478357D02*
X255238138Y-141573595D01*
X255238138Y-141573595D02*
X255285757Y-141621214D01*
X255285757Y-141621214D02*
X255380995Y-141668833D01*
X255380995Y-141668833D02*
X255523852Y-141668833D01*
X255523852Y-141668833D02*
X255619090Y-141621214D01*
X255619090Y-141621214D02*
X255666709Y-141573595D01*
X255666709Y-141573595D02*
X255714328Y-141478357D01*
X255714328Y-141478357D02*
X255714328Y-141097405D01*
X255285757Y-142049786D02*
X255238138Y-142097405D01*
X255238138Y-142097405D02*
X255190519Y-142192643D01*
X255190519Y-142192643D02*
X255190519Y-142430738D01*
X255190519Y-142430738D02*
X255238138Y-142525976D01*
X255238138Y-142525976D02*
X255285757Y-142573595D01*
X255285757Y-142573595D02*
X255380995Y-142621214D01*
X255380995Y-142621214D02*
X255476233Y-142621214D01*
X255476233Y-142621214D02*
X255619090Y-142573595D01*
X255619090Y-142573595D02*
X256190519Y-142002167D01*
X256190519Y-142002167D02*
X256190519Y-142621214D01*
X258815119Y-141715833D02*
X258338928Y-141382500D01*
X258815119Y-141144405D02*
X257815119Y-141144405D01*
X257815119Y-141144405D02*
X257815119Y-141525357D01*
X257815119Y-141525357D02*
X257862738Y-141620595D01*
X257862738Y-141620595D02*
X257910357Y-141668214D01*
X257910357Y-141668214D02*
X258005595Y-141715833D01*
X258005595Y-141715833D02*
X258148452Y-141715833D01*
X258148452Y-141715833D02*
X258243690Y-141668214D01*
X258243690Y-141668214D02*
X258291309Y-141620595D01*
X258291309Y-141620595D02*
X258338928Y-141525357D01*
X258338928Y-141525357D02*
X258338928Y-141144405D01*
X257815119Y-142049167D02*
X257815119Y-142668214D01*
X257815119Y-142668214D02*
X258196071Y-142334881D01*
X258196071Y-142334881D02*
X258196071Y-142477738D01*
X258196071Y-142477738D02*
X258243690Y-142572976D01*
X258243690Y-142572976D02*
X258291309Y-142620595D01*
X258291309Y-142620595D02*
X258386547Y-142668214D01*
X258386547Y-142668214D02*
X258624642Y-142668214D01*
X258624642Y-142668214D02*
X258719880Y-142620595D01*
X258719880Y-142620595D02*
X258767500Y-142572976D01*
X258767500Y-142572976D02*
X258815119Y-142477738D01*
X258815119Y-142477738D02*
X258815119Y-142192024D01*
X258815119Y-142192024D02*
X258767500Y-142096786D01*
X258767500Y-142096786D02*
X258719880Y-142049167D01*
X135442904Y-117722819D02*
X135442904Y-118532342D01*
X135442904Y-118532342D02*
X135395285Y-118627580D01*
X135395285Y-118627580D02*
X135347666Y-118675200D01*
X135347666Y-118675200D02*
X135252428Y-118722819D01*
X135252428Y-118722819D02*
X135061952Y-118722819D01*
X135061952Y-118722819D02*
X134966714Y-118675200D01*
X134966714Y-118675200D02*
X134919095Y-118627580D01*
X134919095Y-118627580D02*
X134871476Y-118532342D01*
X134871476Y-118532342D02*
X134871476Y-117722819D01*
X134347666Y-118722819D02*
X134157190Y-118722819D01*
X134157190Y-118722819D02*
X134061952Y-118675200D01*
X134061952Y-118675200D02*
X134014333Y-118627580D01*
X134014333Y-118627580D02*
X133919095Y-118484723D01*
X133919095Y-118484723D02*
X133871476Y-118294247D01*
X133871476Y-118294247D02*
X133871476Y-117913295D01*
X133871476Y-117913295D02*
X133919095Y-117818057D01*
X133919095Y-117818057D02*
X133966714Y-117770438D01*
X133966714Y-117770438D02*
X134061952Y-117722819D01*
X134061952Y-117722819D02*
X134252428Y-117722819D01*
X134252428Y-117722819D02*
X134347666Y-117770438D01*
X134347666Y-117770438D02*
X134395285Y-117818057D01*
X134395285Y-117818057D02*
X134442904Y-117913295D01*
X134442904Y-117913295D02*
X134442904Y-118151390D01*
X134442904Y-118151390D02*
X134395285Y-118246628D01*
X134395285Y-118246628D02*
X134347666Y-118294247D01*
X134347666Y-118294247D02*
X134252428Y-118341866D01*
X134252428Y-118341866D02*
X134061952Y-118341866D01*
X134061952Y-118341866D02*
X133966714Y-118294247D01*
X133966714Y-118294247D02*
X133919095Y-118246628D01*
X133919095Y-118246628D02*
X133871476Y-118151390D01*
X185032819Y-120697642D02*
X184556628Y-120364309D01*
X185032819Y-120126214D02*
X184032819Y-120126214D01*
X184032819Y-120126214D02*
X184032819Y-120507166D01*
X184032819Y-120507166D02*
X184080438Y-120602404D01*
X184080438Y-120602404D02*
X184128057Y-120650023D01*
X184128057Y-120650023D02*
X184223295Y-120697642D01*
X184223295Y-120697642D02*
X184366152Y-120697642D01*
X184366152Y-120697642D02*
X184461390Y-120650023D01*
X184461390Y-120650023D02*
X184509009Y-120602404D01*
X184509009Y-120602404D02*
X184556628Y-120507166D01*
X184556628Y-120507166D02*
X184556628Y-120126214D01*
X184366152Y-121554785D02*
X185032819Y-121554785D01*
X183985200Y-121316690D02*
X184699485Y-121078595D01*
X184699485Y-121078595D02*
X184699485Y-121697642D01*
X184032819Y-122269071D02*
X184032819Y-122364309D01*
X184032819Y-122364309D02*
X184080438Y-122459547D01*
X184080438Y-122459547D02*
X184128057Y-122507166D01*
X184128057Y-122507166D02*
X184223295Y-122554785D01*
X184223295Y-122554785D02*
X184413771Y-122602404D01*
X184413771Y-122602404D02*
X184651866Y-122602404D01*
X184651866Y-122602404D02*
X184842342Y-122554785D01*
X184842342Y-122554785D02*
X184937580Y-122507166D01*
X184937580Y-122507166D02*
X184985200Y-122459547D01*
X184985200Y-122459547D02*
X185032819Y-122364309D01*
X185032819Y-122364309D02*
X185032819Y-122269071D01*
X185032819Y-122269071D02*
X184985200Y-122173833D01*
X184985200Y-122173833D02*
X184937580Y-122126214D01*
X184937580Y-122126214D02*
X184842342Y-122078595D01*
X184842342Y-122078595D02*
X184651866Y-122030976D01*
X184651866Y-122030976D02*
X184413771Y-122030976D01*
X184413771Y-122030976D02*
X184223295Y-122078595D01*
X184223295Y-122078595D02*
X184128057Y-122126214D01*
X184128057Y-122126214D02*
X184080438Y-122173833D01*
X184080438Y-122173833D02*
X184032819Y-122269071D01*
X266392819Y-105402142D02*
X265916628Y-105068809D01*
X266392819Y-104830714D02*
X265392819Y-104830714D01*
X265392819Y-104830714D02*
X265392819Y-105211666D01*
X265392819Y-105211666D02*
X265440438Y-105306904D01*
X265440438Y-105306904D02*
X265488057Y-105354523D01*
X265488057Y-105354523D02*
X265583295Y-105402142D01*
X265583295Y-105402142D02*
X265726152Y-105402142D01*
X265726152Y-105402142D02*
X265821390Y-105354523D01*
X265821390Y-105354523D02*
X265869009Y-105306904D01*
X265869009Y-105306904D02*
X265916628Y-105211666D01*
X265916628Y-105211666D02*
X265916628Y-104830714D01*
X266392819Y-106354523D02*
X266392819Y-105783095D01*
X266392819Y-106068809D02*
X265392819Y-106068809D01*
X265392819Y-106068809D02*
X265535676Y-105973571D01*
X265535676Y-105973571D02*
X265630914Y-105878333D01*
X265630914Y-105878333D02*
X265678533Y-105783095D01*
X265392819Y-106687857D02*
X265392819Y-107306904D01*
X265392819Y-107306904D02*
X265773771Y-106973571D01*
X265773771Y-106973571D02*
X265773771Y-107116428D01*
X265773771Y-107116428D02*
X265821390Y-107211666D01*
X265821390Y-107211666D02*
X265869009Y-107259285D01*
X265869009Y-107259285D02*
X265964247Y-107306904D01*
X265964247Y-107306904D02*
X266202342Y-107306904D01*
X266202342Y-107306904D02*
X266297580Y-107259285D01*
X266297580Y-107259285D02*
X266345200Y-107211666D01*
X266345200Y-107211666D02*
X266392819Y-107116428D01*
X266392819Y-107116428D02*
X266392819Y-106830714D01*
X266392819Y-106830714D02*
X266345200Y-106735476D01*
X266345200Y-106735476D02*
X266297580Y-106687857D01*
X166222819Y-87211142D02*
X165746628Y-86877809D01*
X166222819Y-86639714D02*
X165222819Y-86639714D01*
X165222819Y-86639714D02*
X165222819Y-87020666D01*
X165222819Y-87020666D02*
X165270438Y-87115904D01*
X165270438Y-87115904D02*
X165318057Y-87163523D01*
X165318057Y-87163523D02*
X165413295Y-87211142D01*
X165413295Y-87211142D02*
X165556152Y-87211142D01*
X165556152Y-87211142D02*
X165651390Y-87163523D01*
X165651390Y-87163523D02*
X165699009Y-87115904D01*
X165699009Y-87115904D02*
X165746628Y-87020666D01*
X165746628Y-87020666D02*
X165746628Y-86639714D01*
X165556152Y-88068285D02*
X166222819Y-88068285D01*
X165175200Y-87830190D02*
X165889485Y-87592095D01*
X165889485Y-87592095D02*
X165889485Y-88211142D01*
X165318057Y-88544476D02*
X165270438Y-88592095D01*
X165270438Y-88592095D02*
X165222819Y-88687333D01*
X165222819Y-88687333D02*
X165222819Y-88925428D01*
X165222819Y-88925428D02*
X165270438Y-89020666D01*
X165270438Y-89020666D02*
X165318057Y-89068285D01*
X165318057Y-89068285D02*
X165413295Y-89115904D01*
X165413295Y-89115904D02*
X165508533Y-89115904D01*
X165508533Y-89115904D02*
X165651390Y-89068285D01*
X165651390Y-89068285D02*
X166222819Y-88496857D01*
X166222819Y-88496857D02*
X166222819Y-89115904D01*
X254521166Y-108469580D02*
X254568785Y-108517200D01*
X254568785Y-108517200D02*
X254711642Y-108564819D01*
X254711642Y-108564819D02*
X254806880Y-108564819D01*
X254806880Y-108564819D02*
X254949737Y-108517200D01*
X254949737Y-108517200D02*
X255044975Y-108421961D01*
X255044975Y-108421961D02*
X255092594Y-108326723D01*
X255092594Y-108326723D02*
X255140213Y-108136247D01*
X255140213Y-108136247D02*
X255140213Y-107993390D01*
X255140213Y-107993390D02*
X255092594Y-107802914D01*
X255092594Y-107802914D02*
X255044975Y-107707676D01*
X255044975Y-107707676D02*
X254949737Y-107612438D01*
X254949737Y-107612438D02*
X254806880Y-107564819D01*
X254806880Y-107564819D02*
X254711642Y-107564819D01*
X254711642Y-107564819D02*
X254568785Y-107612438D01*
X254568785Y-107612438D02*
X254521166Y-107660057D01*
X253616404Y-107564819D02*
X254092594Y-107564819D01*
X254092594Y-107564819D02*
X254140213Y-108041009D01*
X254140213Y-108041009D02*
X254092594Y-107993390D01*
X254092594Y-107993390D02*
X253997356Y-107945771D01*
X253997356Y-107945771D02*
X253759261Y-107945771D01*
X253759261Y-107945771D02*
X253664023Y-107993390D01*
X253664023Y-107993390D02*
X253616404Y-108041009D01*
X253616404Y-108041009D02*
X253568785Y-108136247D01*
X253568785Y-108136247D02*
X253568785Y-108374342D01*
X253568785Y-108374342D02*
X253616404Y-108469580D01*
X253616404Y-108469580D02*
X253664023Y-108517200D01*
X253664023Y-108517200D02*
X253759261Y-108564819D01*
X253759261Y-108564819D02*
X253997356Y-108564819D01*
X253997356Y-108564819D02*
X254092594Y-108517200D01*
X254092594Y-108517200D02*
X254140213Y-108469580D01*
X168829738Y-84292057D02*
X168924976Y-84244438D01*
X168924976Y-84244438D02*
X169020214Y-84149200D01*
X169020214Y-84149200D02*
X169163071Y-84006342D01*
X169163071Y-84006342D02*
X169258309Y-83958723D01*
X169258309Y-83958723D02*
X169353547Y-83958723D01*
X169305928Y-84196819D02*
X169401166Y-84149200D01*
X169401166Y-84149200D02*
X169496404Y-84053961D01*
X169496404Y-84053961D02*
X169544023Y-83863485D01*
X169544023Y-83863485D02*
X169544023Y-83530152D01*
X169544023Y-83530152D02*
X169496404Y-83339676D01*
X169496404Y-83339676D02*
X169401166Y-83244438D01*
X169401166Y-83244438D02*
X169305928Y-83196819D01*
X169305928Y-83196819D02*
X169115452Y-83196819D01*
X169115452Y-83196819D02*
X169020214Y-83244438D01*
X169020214Y-83244438D02*
X168924976Y-83339676D01*
X168924976Y-83339676D02*
X168877357Y-83530152D01*
X168877357Y-83530152D02*
X168877357Y-83863485D01*
X168877357Y-83863485D02*
X168924976Y-84053961D01*
X168924976Y-84053961D02*
X169020214Y-84149200D01*
X169020214Y-84149200D02*
X169115452Y-84196819D01*
X169115452Y-84196819D02*
X169305928Y-84196819D01*
X168020214Y-83196819D02*
X168210690Y-83196819D01*
X168210690Y-83196819D02*
X168305928Y-83244438D01*
X168305928Y-83244438D02*
X168353547Y-83292057D01*
X168353547Y-83292057D02*
X168448785Y-83434914D01*
X168448785Y-83434914D02*
X168496404Y-83625390D01*
X168496404Y-83625390D02*
X168496404Y-84006342D01*
X168496404Y-84006342D02*
X168448785Y-84101580D01*
X168448785Y-84101580D02*
X168401166Y-84149200D01*
X168401166Y-84149200D02*
X168305928Y-84196819D01*
X168305928Y-84196819D02*
X168115452Y-84196819D01*
X168115452Y-84196819D02*
X168020214Y-84149200D01*
X168020214Y-84149200D02*
X167972595Y-84101580D01*
X167972595Y-84101580D02*
X167924976Y-84006342D01*
X167924976Y-84006342D02*
X167924976Y-83768247D01*
X167924976Y-83768247D02*
X167972595Y-83673009D01*
X167972595Y-83673009D02*
X168020214Y-83625390D01*
X168020214Y-83625390D02*
X168115452Y-83577771D01*
X168115452Y-83577771D02*
X168305928Y-83577771D01*
X168305928Y-83577771D02*
X168401166Y-83625390D01*
X168401166Y-83625390D02*
X168448785Y-83673009D01*
X168448785Y-83673009D02*
X168496404Y-83768247D01*
X253565819Y-141715833D02*
X253089628Y-141382500D01*
X253565819Y-141144405D02*
X252565819Y-141144405D01*
X252565819Y-141144405D02*
X252565819Y-141525357D01*
X252565819Y-141525357D02*
X252613438Y-141620595D01*
X252613438Y-141620595D02*
X252661057Y-141668214D01*
X252661057Y-141668214D02*
X252756295Y-141715833D01*
X252756295Y-141715833D02*
X252899152Y-141715833D01*
X252899152Y-141715833D02*
X252994390Y-141668214D01*
X252994390Y-141668214D02*
X253042009Y-141620595D01*
X253042009Y-141620595D02*
X253089628Y-141525357D01*
X253089628Y-141525357D02*
X253089628Y-141144405D01*
X253565819Y-142668214D02*
X253565819Y-142096786D01*
X253565819Y-142382500D02*
X252565819Y-142382500D01*
X252565819Y-142382500D02*
X252708676Y-142287262D01*
X252708676Y-142287262D02*
X252803914Y-142192024D01*
X252803914Y-142192024D02*
X252851533Y-142096786D01*
X161916857Y-81704819D02*
X162250190Y-81228628D01*
X162488285Y-81704819D02*
X162488285Y-80704819D01*
X162488285Y-80704819D02*
X162107333Y-80704819D01*
X162107333Y-80704819D02*
X162012095Y-80752438D01*
X162012095Y-80752438D02*
X161964476Y-80800057D01*
X161964476Y-80800057D02*
X161916857Y-80895295D01*
X161916857Y-80895295D02*
X161916857Y-81038152D01*
X161916857Y-81038152D02*
X161964476Y-81133390D01*
X161964476Y-81133390D02*
X162012095Y-81181009D01*
X162012095Y-81181009D02*
X162107333Y-81228628D01*
X162107333Y-81228628D02*
X162488285Y-81228628D01*
X161583523Y-80704819D02*
X160964476Y-80704819D01*
X160964476Y-80704819D02*
X161297809Y-81085771D01*
X161297809Y-81085771D02*
X161154952Y-81085771D01*
X161154952Y-81085771D02*
X161059714Y-81133390D01*
X161059714Y-81133390D02*
X161012095Y-81181009D01*
X161012095Y-81181009D02*
X160964476Y-81276247D01*
X160964476Y-81276247D02*
X160964476Y-81514342D01*
X160964476Y-81514342D02*
X161012095Y-81609580D01*
X161012095Y-81609580D02*
X161059714Y-81657200D01*
X161059714Y-81657200D02*
X161154952Y-81704819D01*
X161154952Y-81704819D02*
X161440666Y-81704819D01*
X161440666Y-81704819D02*
X161535904Y-81657200D01*
X161535904Y-81657200D02*
X161583523Y-81609580D01*
X160107333Y-81038152D02*
X160107333Y-81704819D01*
X160345428Y-80657200D02*
X160583523Y-81371485D01*
X160583523Y-81371485D02*
X159964476Y-81371485D01*
X147558357Y-122882819D02*
X147891690Y-122406628D01*
X148129785Y-122882819D02*
X148129785Y-121882819D01*
X148129785Y-121882819D02*
X147748833Y-121882819D01*
X147748833Y-121882819D02*
X147653595Y-121930438D01*
X147653595Y-121930438D02*
X147605976Y-121978057D01*
X147605976Y-121978057D02*
X147558357Y-122073295D01*
X147558357Y-122073295D02*
X147558357Y-122216152D01*
X147558357Y-122216152D02*
X147605976Y-122311390D01*
X147605976Y-122311390D02*
X147653595Y-122359009D01*
X147653595Y-122359009D02*
X147748833Y-122406628D01*
X147748833Y-122406628D02*
X148129785Y-122406628D01*
X147225023Y-121882819D02*
X146605976Y-121882819D01*
X146605976Y-121882819D02*
X146939309Y-122263771D01*
X146939309Y-122263771D02*
X146796452Y-122263771D01*
X146796452Y-122263771D02*
X146701214Y-122311390D01*
X146701214Y-122311390D02*
X146653595Y-122359009D01*
X146653595Y-122359009D02*
X146605976Y-122454247D01*
X146605976Y-122454247D02*
X146605976Y-122692342D01*
X146605976Y-122692342D02*
X146653595Y-122787580D01*
X146653595Y-122787580D02*
X146701214Y-122835200D01*
X146701214Y-122835200D02*
X146796452Y-122882819D01*
X146796452Y-122882819D02*
X147082166Y-122882819D01*
X147082166Y-122882819D02*
X147177404Y-122835200D01*
X147177404Y-122835200D02*
X147225023Y-122787580D01*
X146034547Y-122311390D02*
X146129785Y-122263771D01*
X146129785Y-122263771D02*
X146177404Y-122216152D01*
X146177404Y-122216152D02*
X146225023Y-122120914D01*
X146225023Y-122120914D02*
X146225023Y-122073295D01*
X146225023Y-122073295D02*
X146177404Y-121978057D01*
X146177404Y-121978057D02*
X146129785Y-121930438D01*
X146129785Y-121930438D02*
X146034547Y-121882819D01*
X146034547Y-121882819D02*
X145844071Y-121882819D01*
X145844071Y-121882819D02*
X145748833Y-121930438D01*
X145748833Y-121930438D02*
X145701214Y-121978057D01*
X145701214Y-121978057D02*
X145653595Y-122073295D01*
X145653595Y-122073295D02*
X145653595Y-122120914D01*
X145653595Y-122120914D02*
X145701214Y-122216152D01*
X145701214Y-122216152D02*
X145748833Y-122263771D01*
X145748833Y-122263771D02*
X145844071Y-122311390D01*
X145844071Y-122311390D02*
X146034547Y-122311390D01*
X146034547Y-122311390D02*
X146129785Y-122359009D01*
X146129785Y-122359009D02*
X146177404Y-122406628D01*
X146177404Y-122406628D02*
X146225023Y-122501866D01*
X146225023Y-122501866D02*
X146225023Y-122692342D01*
X146225023Y-122692342D02*
X146177404Y-122787580D01*
X146177404Y-122787580D02*
X146129785Y-122835200D01*
X146129785Y-122835200D02*
X146034547Y-122882819D01*
X146034547Y-122882819D02*
X145844071Y-122882819D01*
X145844071Y-122882819D02*
X145748833Y-122835200D01*
X145748833Y-122835200D02*
X145701214Y-122787580D01*
X145701214Y-122787580D02*
X145653595Y-122692342D01*
X145653595Y-122692342D02*
X145653595Y-122501866D01*
X145653595Y-122501866D02*
X145701214Y-122406628D01*
X145701214Y-122406628D02*
X145748833Y-122359009D01*
X145748833Y-122359009D02*
X145844071Y-122311390D01*
X205771357Y-143520819D02*
X206104690Y-143044628D01*
X206342785Y-143520819D02*
X206342785Y-142520819D01*
X206342785Y-142520819D02*
X205961833Y-142520819D01*
X205961833Y-142520819D02*
X205866595Y-142568438D01*
X205866595Y-142568438D02*
X205818976Y-142616057D01*
X205818976Y-142616057D02*
X205771357Y-142711295D01*
X205771357Y-142711295D02*
X205771357Y-142854152D01*
X205771357Y-142854152D02*
X205818976Y-142949390D01*
X205818976Y-142949390D02*
X205866595Y-142997009D01*
X205866595Y-142997009D02*
X205961833Y-143044628D01*
X205961833Y-143044628D02*
X206342785Y-143044628D01*
X205390404Y-142616057D02*
X205342785Y-142568438D01*
X205342785Y-142568438D02*
X205247547Y-142520819D01*
X205247547Y-142520819D02*
X205009452Y-142520819D01*
X205009452Y-142520819D02*
X204914214Y-142568438D01*
X204914214Y-142568438D02*
X204866595Y-142616057D01*
X204866595Y-142616057D02*
X204818976Y-142711295D01*
X204818976Y-142711295D02*
X204818976Y-142806533D01*
X204818976Y-142806533D02*
X204866595Y-142949390D01*
X204866595Y-142949390D02*
X205438023Y-143520819D01*
X205438023Y-143520819D02*
X204818976Y-143520819D01*
X204199928Y-142520819D02*
X204104690Y-142520819D01*
X204104690Y-142520819D02*
X204009452Y-142568438D01*
X204009452Y-142568438D02*
X203961833Y-142616057D01*
X203961833Y-142616057D02*
X203914214Y-142711295D01*
X203914214Y-142711295D02*
X203866595Y-142901771D01*
X203866595Y-142901771D02*
X203866595Y-143139866D01*
X203866595Y-143139866D02*
X203914214Y-143330342D01*
X203914214Y-143330342D02*
X203961833Y-143425580D01*
X203961833Y-143425580D02*
X204009452Y-143473200D01*
X204009452Y-143473200D02*
X204104690Y-143520819D01*
X204104690Y-143520819D02*
X204199928Y-143520819D01*
X204199928Y-143520819D02*
X204295166Y-143473200D01*
X204295166Y-143473200D02*
X204342785Y-143425580D01*
X204342785Y-143425580D02*
X204390404Y-143330342D01*
X204390404Y-143330342D02*
X204438023Y-143139866D01*
X204438023Y-143139866D02*
X204438023Y-142901771D01*
X204438023Y-142901771D02*
X204390404Y-142711295D01*
X204390404Y-142711295D02*
X204342785Y-142616057D01*
X204342785Y-142616057D02*
X204295166Y-142568438D01*
X204295166Y-142568438D02*
X204199928Y-142520819D01*
X185912080Y-97401142D02*
X185959700Y-97353523D01*
X185959700Y-97353523D02*
X186007319Y-97210666D01*
X186007319Y-97210666D02*
X186007319Y-97115428D01*
X186007319Y-97115428D02*
X185959700Y-96972571D01*
X185959700Y-96972571D02*
X185864461Y-96877333D01*
X185864461Y-96877333D02*
X185769223Y-96829714D01*
X185769223Y-96829714D02*
X185578747Y-96782095D01*
X185578747Y-96782095D02*
X185435890Y-96782095D01*
X185435890Y-96782095D02*
X185245414Y-96829714D01*
X185245414Y-96829714D02*
X185150176Y-96877333D01*
X185150176Y-96877333D02*
X185054938Y-96972571D01*
X185054938Y-96972571D02*
X185007319Y-97115428D01*
X185007319Y-97115428D02*
X185007319Y-97210666D01*
X185007319Y-97210666D02*
X185054938Y-97353523D01*
X185054938Y-97353523D02*
X185102557Y-97401142D01*
X186007319Y-98353523D02*
X186007319Y-97782095D01*
X186007319Y-98067809D02*
X185007319Y-98067809D01*
X185007319Y-98067809D02*
X185150176Y-97972571D01*
X185150176Y-97972571D02*
X185245414Y-97877333D01*
X185245414Y-97877333D02*
X185293033Y-97782095D01*
X186007319Y-98829714D02*
X186007319Y-99020190D01*
X186007319Y-99020190D02*
X185959700Y-99115428D01*
X185959700Y-99115428D02*
X185912080Y-99163047D01*
X185912080Y-99163047D02*
X185769223Y-99258285D01*
X185769223Y-99258285D02*
X185578747Y-99305904D01*
X185578747Y-99305904D02*
X185197795Y-99305904D01*
X185197795Y-99305904D02*
X185102557Y-99258285D01*
X185102557Y-99258285D02*
X185054938Y-99210666D01*
X185054938Y-99210666D02*
X185007319Y-99115428D01*
X185007319Y-99115428D02*
X185007319Y-98924952D01*
X185007319Y-98924952D02*
X185054938Y-98829714D01*
X185054938Y-98829714D02*
X185102557Y-98782095D01*
X185102557Y-98782095D02*
X185197795Y-98734476D01*
X185197795Y-98734476D02*
X185435890Y-98734476D01*
X185435890Y-98734476D02*
X185531128Y-98782095D01*
X185531128Y-98782095D02*
X185578747Y-98829714D01*
X185578747Y-98829714D02*
X185626366Y-98924952D01*
X185626366Y-98924952D02*
X185626366Y-99115428D01*
X185626366Y-99115428D02*
X185578747Y-99210666D01*
X185578747Y-99210666D02*
X185531128Y-99258285D01*
X185531128Y-99258285D02*
X185435890Y-99305904D01*
X183206819Y-121679833D02*
X183206819Y-121203643D01*
X183206819Y-121203643D02*
X182206819Y-121203643D01*
X182206819Y-121917929D02*
X182206819Y-122536976D01*
X182206819Y-122536976D02*
X182587771Y-122203643D01*
X182587771Y-122203643D02*
X182587771Y-122346500D01*
X182587771Y-122346500D02*
X182635390Y-122441738D01*
X182635390Y-122441738D02*
X182683009Y-122489357D01*
X182683009Y-122489357D02*
X182778247Y-122536976D01*
X182778247Y-122536976D02*
X183016342Y-122536976D01*
X183016342Y-122536976D02*
X183111580Y-122489357D01*
X183111580Y-122489357D02*
X183159200Y-122441738D01*
X183159200Y-122441738D02*
X183206819Y-122346500D01*
X183206819Y-122346500D02*
X183206819Y-122060786D01*
X183206819Y-122060786D02*
X183159200Y-121965548D01*
X183159200Y-121965548D02*
X183111580Y-121917929D01*
X222871580Y-82077333D02*
X222919200Y-82029714D01*
X222919200Y-82029714D02*
X222966819Y-81886857D01*
X222966819Y-81886857D02*
X222966819Y-81791619D01*
X222966819Y-81791619D02*
X222919200Y-81648762D01*
X222919200Y-81648762D02*
X222823961Y-81553524D01*
X222823961Y-81553524D02*
X222728723Y-81505905D01*
X222728723Y-81505905D02*
X222538247Y-81458286D01*
X222538247Y-81458286D02*
X222395390Y-81458286D01*
X222395390Y-81458286D02*
X222204914Y-81505905D01*
X222204914Y-81505905D02*
X222109676Y-81553524D01*
X222109676Y-81553524D02*
X222014438Y-81648762D01*
X222014438Y-81648762D02*
X221966819Y-81791619D01*
X221966819Y-81791619D02*
X221966819Y-81886857D01*
X221966819Y-81886857D02*
X222014438Y-82029714D01*
X222014438Y-82029714D02*
X222062057Y-82077333D01*
X221966819Y-82934476D02*
X221966819Y-82744000D01*
X221966819Y-82744000D02*
X222014438Y-82648762D01*
X222014438Y-82648762D02*
X222062057Y-82601143D01*
X222062057Y-82601143D02*
X222204914Y-82505905D01*
X222204914Y-82505905D02*
X222395390Y-82458286D01*
X222395390Y-82458286D02*
X222776342Y-82458286D01*
X222776342Y-82458286D02*
X222871580Y-82505905D01*
X222871580Y-82505905D02*
X222919200Y-82553524D01*
X222919200Y-82553524D02*
X222966819Y-82648762D01*
X222966819Y-82648762D02*
X222966819Y-82839238D01*
X222966819Y-82839238D02*
X222919200Y-82934476D01*
X222919200Y-82934476D02*
X222871580Y-82982095D01*
X222871580Y-82982095D02*
X222776342Y-83029714D01*
X222776342Y-83029714D02*
X222538247Y-83029714D01*
X222538247Y-83029714D02*
X222443009Y-82982095D01*
X222443009Y-82982095D02*
X222395390Y-82934476D01*
X222395390Y-82934476D02*
X222347771Y-82839238D01*
X222347771Y-82839238D02*
X222347771Y-82648762D01*
X222347771Y-82648762D02*
X222395390Y-82553524D01*
X222395390Y-82553524D02*
X222443009Y-82505905D01*
X222443009Y-82505905D02*
X222538247Y-82458286D01*
X167735238Y-157702557D02*
X167830476Y-157654938D01*
X167830476Y-157654938D02*
X167925714Y-157559700D01*
X167925714Y-157559700D02*
X168068571Y-157416842D01*
X168068571Y-157416842D02*
X168163809Y-157369223D01*
X168163809Y-157369223D02*
X168259047Y-157369223D01*
X168211428Y-157607319D02*
X168306666Y-157559700D01*
X168306666Y-157559700D02*
X168401904Y-157464461D01*
X168401904Y-157464461D02*
X168449523Y-157273985D01*
X168449523Y-157273985D02*
X168449523Y-156940652D01*
X168449523Y-156940652D02*
X168401904Y-156750176D01*
X168401904Y-156750176D02*
X168306666Y-156654938D01*
X168306666Y-156654938D02*
X168211428Y-156607319D01*
X168211428Y-156607319D02*
X168020952Y-156607319D01*
X168020952Y-156607319D02*
X167925714Y-156654938D01*
X167925714Y-156654938D02*
X167830476Y-156750176D01*
X167830476Y-156750176D02*
X167782857Y-156940652D01*
X167782857Y-156940652D02*
X167782857Y-157273985D01*
X167782857Y-157273985D02*
X167830476Y-157464461D01*
X167830476Y-157464461D02*
X167925714Y-157559700D01*
X167925714Y-157559700D02*
X168020952Y-157607319D01*
X168020952Y-157607319D02*
X168211428Y-157607319D01*
X167401904Y-156702557D02*
X167354285Y-156654938D01*
X167354285Y-156654938D02*
X167259047Y-156607319D01*
X167259047Y-156607319D02*
X167020952Y-156607319D01*
X167020952Y-156607319D02*
X166925714Y-156654938D01*
X166925714Y-156654938D02*
X166878095Y-156702557D01*
X166878095Y-156702557D02*
X166830476Y-156797795D01*
X166830476Y-156797795D02*
X166830476Y-156893033D01*
X166830476Y-156893033D02*
X166878095Y-157035890D01*
X166878095Y-157035890D02*
X167449523Y-157607319D01*
X167449523Y-157607319D02*
X166830476Y-157607319D01*
X215018857Y-155264819D02*
X215352190Y-154788628D01*
X215590285Y-155264819D02*
X215590285Y-154264819D01*
X215590285Y-154264819D02*
X215209333Y-154264819D01*
X215209333Y-154264819D02*
X215114095Y-154312438D01*
X215114095Y-154312438D02*
X215066476Y-154360057D01*
X215066476Y-154360057D02*
X215018857Y-154455295D01*
X215018857Y-154455295D02*
X215018857Y-154598152D01*
X215018857Y-154598152D02*
X215066476Y-154693390D01*
X215066476Y-154693390D02*
X215114095Y-154741009D01*
X215114095Y-154741009D02*
X215209333Y-154788628D01*
X215209333Y-154788628D02*
X215590285Y-154788628D01*
X214637904Y-154360057D02*
X214590285Y-154312438D01*
X214590285Y-154312438D02*
X214495047Y-154264819D01*
X214495047Y-154264819D02*
X214256952Y-154264819D01*
X214256952Y-154264819D02*
X214161714Y-154312438D01*
X214161714Y-154312438D02*
X214114095Y-154360057D01*
X214114095Y-154360057D02*
X214066476Y-154455295D01*
X214066476Y-154455295D02*
X214066476Y-154550533D01*
X214066476Y-154550533D02*
X214114095Y-154693390D01*
X214114095Y-154693390D02*
X214685523Y-155264819D01*
X214685523Y-155264819D02*
X214066476Y-155264819D01*
X213685523Y-154360057D02*
X213637904Y-154312438D01*
X213637904Y-154312438D02*
X213542666Y-154264819D01*
X213542666Y-154264819D02*
X213304571Y-154264819D01*
X213304571Y-154264819D02*
X213209333Y-154312438D01*
X213209333Y-154312438D02*
X213161714Y-154360057D01*
X213161714Y-154360057D02*
X213114095Y-154455295D01*
X213114095Y-154455295D02*
X213114095Y-154550533D01*
X213114095Y-154550533D02*
X213161714Y-154693390D01*
X213161714Y-154693390D02*
X213733142Y-155264819D01*
X213733142Y-155264819D02*
X213114095Y-155264819D01*
X247067030Y-103346642D02*
X246590839Y-103013309D01*
X247067030Y-102775214D02*
X246067030Y-102775214D01*
X246067030Y-102775214D02*
X246067030Y-103156166D01*
X246067030Y-103156166D02*
X246114649Y-103251404D01*
X246114649Y-103251404D02*
X246162268Y-103299023D01*
X246162268Y-103299023D02*
X246257506Y-103346642D01*
X246257506Y-103346642D02*
X246400363Y-103346642D01*
X246400363Y-103346642D02*
X246495601Y-103299023D01*
X246495601Y-103299023D02*
X246543220Y-103251404D01*
X246543220Y-103251404D02*
X246590839Y-103156166D01*
X246590839Y-103156166D02*
X246590839Y-102775214D01*
X247067030Y-104299023D02*
X247067030Y-103727595D01*
X247067030Y-104013309D02*
X246067030Y-104013309D01*
X246067030Y-104013309D02*
X246209887Y-103918071D01*
X246209887Y-103918071D02*
X246305125Y-103822833D01*
X246305125Y-103822833D02*
X246352744Y-103727595D01*
X246067030Y-104632357D02*
X246067030Y-105299023D01*
X246067030Y-105299023D02*
X247067030Y-104870452D01*
D12*
X266131318Y-98092380D02*
X267159413Y-98092380D01*
X267159413Y-98092380D02*
X267280365Y-98152857D01*
X267280365Y-98152857D02*
X267340842Y-98213333D01*
X267340842Y-98213333D02*
X267401318Y-98334285D01*
X267401318Y-98334285D02*
X267401318Y-98576190D01*
X267401318Y-98576190D02*
X267340842Y-98697142D01*
X267340842Y-98697142D02*
X267280365Y-98757619D01*
X267280365Y-98757619D02*
X267159413Y-98818095D01*
X267159413Y-98818095D02*
X266131318Y-98818095D01*
X266554651Y-99967142D02*
X267401318Y-99967142D01*
X266070842Y-99664761D02*
X266977984Y-99362380D01*
X266977984Y-99362380D02*
X266977984Y-100148571D01*
D10*
X229092094Y-87302819D02*
X229092094Y-86302819D01*
X229092094Y-86302819D02*
X228853999Y-86302819D01*
X228853999Y-86302819D02*
X228711142Y-86350438D01*
X228711142Y-86350438D02*
X228615904Y-86445676D01*
X228615904Y-86445676D02*
X228568285Y-86540914D01*
X228568285Y-86540914D02*
X228520666Y-86731390D01*
X228520666Y-86731390D02*
X228520666Y-86874247D01*
X228520666Y-86874247D02*
X228568285Y-87064723D01*
X228568285Y-87064723D02*
X228615904Y-87159961D01*
X228615904Y-87159961D02*
X228711142Y-87255200D01*
X228711142Y-87255200D02*
X228853999Y-87302819D01*
X228853999Y-87302819D02*
X229092094Y-87302819D01*
X228187332Y-86302819D02*
X227520666Y-86302819D01*
X227520666Y-86302819D02*
X227949237Y-87302819D01*
X209581357Y-143550819D02*
X209914690Y-143074628D01*
X210152785Y-143550819D02*
X210152785Y-142550819D01*
X210152785Y-142550819D02*
X209771833Y-142550819D01*
X209771833Y-142550819D02*
X209676595Y-142598438D01*
X209676595Y-142598438D02*
X209628976Y-142646057D01*
X209628976Y-142646057D02*
X209581357Y-142741295D01*
X209581357Y-142741295D02*
X209581357Y-142884152D01*
X209581357Y-142884152D02*
X209628976Y-142979390D01*
X209628976Y-142979390D02*
X209676595Y-143027009D01*
X209676595Y-143027009D02*
X209771833Y-143074628D01*
X209771833Y-143074628D02*
X210152785Y-143074628D01*
X208628976Y-143550819D02*
X209200404Y-143550819D01*
X208914690Y-143550819D02*
X208914690Y-142550819D01*
X208914690Y-142550819D02*
X209009928Y-142693676D01*
X209009928Y-142693676D02*
X209105166Y-142788914D01*
X209105166Y-142788914D02*
X209200404Y-142836533D01*
X208152785Y-143550819D02*
X207962309Y-143550819D01*
X207962309Y-143550819D02*
X207867071Y-143503200D01*
X207867071Y-143503200D02*
X207819452Y-143455580D01*
X207819452Y-143455580D02*
X207724214Y-143312723D01*
X207724214Y-143312723D02*
X207676595Y-143122247D01*
X207676595Y-143122247D02*
X207676595Y-142741295D01*
X207676595Y-142741295D02*
X207724214Y-142646057D01*
X207724214Y-142646057D02*
X207771833Y-142598438D01*
X207771833Y-142598438D02*
X207867071Y-142550819D01*
X207867071Y-142550819D02*
X208057547Y-142550819D01*
X208057547Y-142550819D02*
X208152785Y-142598438D01*
X208152785Y-142598438D02*
X208200404Y-142646057D01*
X208200404Y-142646057D02*
X208248023Y-142741295D01*
X208248023Y-142741295D02*
X208248023Y-142979390D01*
X208248023Y-142979390D02*
X208200404Y-143074628D01*
X208200404Y-143074628D02*
X208152785Y-143122247D01*
X208152785Y-143122247D02*
X208057547Y-143169866D01*
X208057547Y-143169866D02*
X207867071Y-143169866D01*
X207867071Y-143169866D02*
X207771833Y-143122247D01*
X207771833Y-143122247D02*
X207724214Y-143074628D01*
X207724214Y-143074628D02*
X207676595Y-142979390D01*
X166127580Y-90870642D02*
X166175200Y-90823023D01*
X166175200Y-90823023D02*
X166222819Y-90680166D01*
X166222819Y-90680166D02*
X166222819Y-90584928D01*
X166222819Y-90584928D02*
X166175200Y-90442071D01*
X166175200Y-90442071D02*
X166079961Y-90346833D01*
X166079961Y-90346833D02*
X165984723Y-90299214D01*
X165984723Y-90299214D02*
X165794247Y-90251595D01*
X165794247Y-90251595D02*
X165651390Y-90251595D01*
X165651390Y-90251595D02*
X165460914Y-90299214D01*
X165460914Y-90299214D02*
X165365676Y-90346833D01*
X165365676Y-90346833D02*
X165270438Y-90442071D01*
X165270438Y-90442071D02*
X165222819Y-90584928D01*
X165222819Y-90584928D02*
X165222819Y-90680166D01*
X165222819Y-90680166D02*
X165270438Y-90823023D01*
X165270438Y-90823023D02*
X165318057Y-90870642D01*
X165318057Y-91251595D02*
X165270438Y-91299214D01*
X165270438Y-91299214D02*
X165222819Y-91394452D01*
X165222819Y-91394452D02*
X165222819Y-91632547D01*
X165222819Y-91632547D02*
X165270438Y-91727785D01*
X165270438Y-91727785D02*
X165318057Y-91775404D01*
X165318057Y-91775404D02*
X165413295Y-91823023D01*
X165413295Y-91823023D02*
X165508533Y-91823023D01*
X165508533Y-91823023D02*
X165651390Y-91775404D01*
X165651390Y-91775404D02*
X166222819Y-91203976D01*
X166222819Y-91203976D02*
X166222819Y-91823023D01*
X165222819Y-92442071D02*
X165222819Y-92537309D01*
X165222819Y-92537309D02*
X165270438Y-92632547D01*
X165270438Y-92632547D02*
X165318057Y-92680166D01*
X165318057Y-92680166D02*
X165413295Y-92727785D01*
X165413295Y-92727785D02*
X165603771Y-92775404D01*
X165603771Y-92775404D02*
X165841866Y-92775404D01*
X165841866Y-92775404D02*
X166032342Y-92727785D01*
X166032342Y-92727785D02*
X166127580Y-92680166D01*
X166127580Y-92680166D02*
X166175200Y-92632547D01*
X166175200Y-92632547D02*
X166222819Y-92537309D01*
X166222819Y-92537309D02*
X166222819Y-92442071D01*
X166222819Y-92442071D02*
X166175200Y-92346833D01*
X166175200Y-92346833D02*
X166127580Y-92299214D01*
X166127580Y-92299214D02*
X166032342Y-92251595D01*
X166032342Y-92251595D02*
X165841866Y-92203976D01*
X165841866Y-92203976D02*
X165603771Y-92203976D01*
X165603771Y-92203976D02*
X165413295Y-92251595D01*
X165413295Y-92251595D02*
X165318057Y-92299214D01*
X165318057Y-92299214D02*
X165270438Y-92346833D01*
X165270438Y-92346833D02*
X165222819Y-92442071D01*
X129331357Y-129020819D02*
X129664690Y-128544628D01*
X129902785Y-129020819D02*
X129902785Y-128020819D01*
X129902785Y-128020819D02*
X129521833Y-128020819D01*
X129521833Y-128020819D02*
X129426595Y-128068438D01*
X129426595Y-128068438D02*
X129378976Y-128116057D01*
X129378976Y-128116057D02*
X129331357Y-128211295D01*
X129331357Y-128211295D02*
X129331357Y-128354152D01*
X129331357Y-128354152D02*
X129378976Y-128449390D01*
X129378976Y-128449390D02*
X129426595Y-128497009D01*
X129426595Y-128497009D02*
X129521833Y-128544628D01*
X129521833Y-128544628D02*
X129902785Y-128544628D01*
X128998023Y-128020819D02*
X128378976Y-128020819D01*
X128378976Y-128020819D02*
X128712309Y-128401771D01*
X128712309Y-128401771D02*
X128569452Y-128401771D01*
X128569452Y-128401771D02*
X128474214Y-128449390D01*
X128474214Y-128449390D02*
X128426595Y-128497009D01*
X128426595Y-128497009D02*
X128378976Y-128592247D01*
X128378976Y-128592247D02*
X128378976Y-128830342D01*
X128378976Y-128830342D02*
X128426595Y-128925580D01*
X128426595Y-128925580D02*
X128474214Y-128973200D01*
X128474214Y-128973200D02*
X128569452Y-129020819D01*
X128569452Y-129020819D02*
X128855166Y-129020819D01*
X128855166Y-129020819D02*
X128950404Y-128973200D01*
X128950404Y-128973200D02*
X128998023Y-128925580D01*
X128045642Y-128020819D02*
X127378976Y-128020819D01*
X127378976Y-128020819D02*
X127807547Y-129020819D01*
X154632819Y-158287642D02*
X154156628Y-157954309D01*
X154632819Y-157716214D02*
X153632819Y-157716214D01*
X153632819Y-157716214D02*
X153632819Y-158097166D01*
X153632819Y-158097166D02*
X153680438Y-158192404D01*
X153680438Y-158192404D02*
X153728057Y-158240023D01*
X153728057Y-158240023D02*
X153823295Y-158287642D01*
X153823295Y-158287642D02*
X153966152Y-158287642D01*
X153966152Y-158287642D02*
X154061390Y-158240023D01*
X154061390Y-158240023D02*
X154109009Y-158192404D01*
X154109009Y-158192404D02*
X154156628Y-158097166D01*
X154156628Y-158097166D02*
X154156628Y-157716214D01*
X153632819Y-158620976D02*
X153632819Y-159240023D01*
X153632819Y-159240023D02*
X154013771Y-158906690D01*
X154013771Y-158906690D02*
X154013771Y-159049547D01*
X154013771Y-159049547D02*
X154061390Y-159144785D01*
X154061390Y-159144785D02*
X154109009Y-159192404D01*
X154109009Y-159192404D02*
X154204247Y-159240023D01*
X154204247Y-159240023D02*
X154442342Y-159240023D01*
X154442342Y-159240023D02*
X154537580Y-159192404D01*
X154537580Y-159192404D02*
X154585200Y-159144785D01*
X154585200Y-159144785D02*
X154632819Y-159049547D01*
X154632819Y-159049547D02*
X154632819Y-158763833D01*
X154632819Y-158763833D02*
X154585200Y-158668595D01*
X154585200Y-158668595D02*
X154537580Y-158620976D01*
X154632819Y-160192404D02*
X154632819Y-159620976D01*
X154632819Y-159906690D02*
X153632819Y-159906690D01*
X153632819Y-159906690D02*
X153775676Y-159811452D01*
X153775676Y-159811452D02*
X153870914Y-159716214D01*
X153870914Y-159716214D02*
X153918533Y-159620976D01*
X163251357Y-162193319D02*
X163584690Y-161717128D01*
X163822785Y-162193319D02*
X163822785Y-161193319D01*
X163822785Y-161193319D02*
X163441833Y-161193319D01*
X163441833Y-161193319D02*
X163346595Y-161240938D01*
X163346595Y-161240938D02*
X163298976Y-161288557D01*
X163298976Y-161288557D02*
X163251357Y-161383795D01*
X163251357Y-161383795D02*
X163251357Y-161526652D01*
X163251357Y-161526652D02*
X163298976Y-161621890D01*
X163298976Y-161621890D02*
X163346595Y-161669509D01*
X163346595Y-161669509D02*
X163441833Y-161717128D01*
X163441833Y-161717128D02*
X163822785Y-161717128D01*
X162870404Y-161288557D02*
X162822785Y-161240938D01*
X162822785Y-161240938D02*
X162727547Y-161193319D01*
X162727547Y-161193319D02*
X162489452Y-161193319D01*
X162489452Y-161193319D02*
X162394214Y-161240938D01*
X162394214Y-161240938D02*
X162346595Y-161288557D01*
X162346595Y-161288557D02*
X162298976Y-161383795D01*
X162298976Y-161383795D02*
X162298976Y-161479033D01*
X162298976Y-161479033D02*
X162346595Y-161621890D01*
X162346595Y-161621890D02*
X162918023Y-162193319D01*
X162918023Y-162193319D02*
X162298976Y-162193319D01*
X161727547Y-161621890D02*
X161822785Y-161574271D01*
X161822785Y-161574271D02*
X161870404Y-161526652D01*
X161870404Y-161526652D02*
X161918023Y-161431414D01*
X161918023Y-161431414D02*
X161918023Y-161383795D01*
X161918023Y-161383795D02*
X161870404Y-161288557D01*
X161870404Y-161288557D02*
X161822785Y-161240938D01*
X161822785Y-161240938D02*
X161727547Y-161193319D01*
X161727547Y-161193319D02*
X161537071Y-161193319D01*
X161537071Y-161193319D02*
X161441833Y-161240938D01*
X161441833Y-161240938D02*
X161394214Y-161288557D01*
X161394214Y-161288557D02*
X161346595Y-161383795D01*
X161346595Y-161383795D02*
X161346595Y-161431414D01*
X161346595Y-161431414D02*
X161394214Y-161526652D01*
X161394214Y-161526652D02*
X161441833Y-161574271D01*
X161441833Y-161574271D02*
X161537071Y-161621890D01*
X161537071Y-161621890D02*
X161727547Y-161621890D01*
X161727547Y-161621890D02*
X161822785Y-161669509D01*
X161822785Y-161669509D02*
X161870404Y-161717128D01*
X161870404Y-161717128D02*
X161918023Y-161812366D01*
X161918023Y-161812366D02*
X161918023Y-162002842D01*
X161918023Y-162002842D02*
X161870404Y-162098080D01*
X161870404Y-162098080D02*
X161822785Y-162145700D01*
X161822785Y-162145700D02*
X161727547Y-162193319D01*
X161727547Y-162193319D02*
X161537071Y-162193319D01*
X161537071Y-162193319D02*
X161441833Y-162145700D01*
X161441833Y-162145700D02*
X161394214Y-162098080D01*
X161394214Y-162098080D02*
X161346595Y-162002842D01*
X161346595Y-162002842D02*
X161346595Y-161812366D01*
X161346595Y-161812366D02*
X161394214Y-161717128D01*
X161394214Y-161717128D02*
X161441833Y-161669509D01*
X161441833Y-161669509D02*
X161537071Y-161621890D01*
X286839819Y-133413833D02*
X286363628Y-133080500D01*
X286839819Y-132842405D02*
X285839819Y-132842405D01*
X285839819Y-132842405D02*
X285839819Y-133223357D01*
X285839819Y-133223357D02*
X285887438Y-133318595D01*
X285887438Y-133318595D02*
X285935057Y-133366214D01*
X285935057Y-133366214D02*
X286030295Y-133413833D01*
X286030295Y-133413833D02*
X286173152Y-133413833D01*
X286173152Y-133413833D02*
X286268390Y-133366214D01*
X286268390Y-133366214D02*
X286316009Y-133318595D01*
X286316009Y-133318595D02*
X286363628Y-133223357D01*
X286363628Y-133223357D02*
X286363628Y-132842405D01*
X285839819Y-133747167D02*
X285839819Y-134413833D01*
X285839819Y-134413833D02*
X286839819Y-133985262D01*
X218574857Y-155234819D02*
X218908190Y-154758628D01*
X219146285Y-155234819D02*
X219146285Y-154234819D01*
X219146285Y-154234819D02*
X218765333Y-154234819D01*
X218765333Y-154234819D02*
X218670095Y-154282438D01*
X218670095Y-154282438D02*
X218622476Y-154330057D01*
X218622476Y-154330057D02*
X218574857Y-154425295D01*
X218574857Y-154425295D02*
X218574857Y-154568152D01*
X218574857Y-154568152D02*
X218622476Y-154663390D01*
X218622476Y-154663390D02*
X218670095Y-154711009D01*
X218670095Y-154711009D02*
X218765333Y-154758628D01*
X218765333Y-154758628D02*
X219146285Y-154758628D01*
X218193904Y-154330057D02*
X218146285Y-154282438D01*
X218146285Y-154282438D02*
X218051047Y-154234819D01*
X218051047Y-154234819D02*
X217812952Y-154234819D01*
X217812952Y-154234819D02*
X217717714Y-154282438D01*
X217717714Y-154282438D02*
X217670095Y-154330057D01*
X217670095Y-154330057D02*
X217622476Y-154425295D01*
X217622476Y-154425295D02*
X217622476Y-154520533D01*
X217622476Y-154520533D02*
X217670095Y-154663390D01*
X217670095Y-154663390D02*
X218241523Y-155234819D01*
X218241523Y-155234819D02*
X217622476Y-155234819D01*
X216670095Y-155234819D02*
X217241523Y-155234819D01*
X216955809Y-155234819D02*
X216955809Y-154234819D01*
X216955809Y-154234819D02*
X217051047Y-154377676D01*
X217051047Y-154377676D02*
X217146285Y-154472914D01*
X217146285Y-154472914D02*
X217241523Y-154520533D01*
X268932819Y-105402142D02*
X268456628Y-105068809D01*
X268932819Y-104830714D02*
X267932819Y-104830714D01*
X267932819Y-104830714D02*
X267932819Y-105211666D01*
X267932819Y-105211666D02*
X267980438Y-105306904D01*
X267980438Y-105306904D02*
X268028057Y-105354523D01*
X268028057Y-105354523D02*
X268123295Y-105402142D01*
X268123295Y-105402142D02*
X268266152Y-105402142D01*
X268266152Y-105402142D02*
X268361390Y-105354523D01*
X268361390Y-105354523D02*
X268409009Y-105306904D01*
X268409009Y-105306904D02*
X268456628Y-105211666D01*
X268456628Y-105211666D02*
X268456628Y-104830714D01*
X268932819Y-106354523D02*
X268932819Y-105783095D01*
X268932819Y-106068809D02*
X267932819Y-106068809D01*
X267932819Y-106068809D02*
X268075676Y-105973571D01*
X268075676Y-105973571D02*
X268170914Y-105878333D01*
X268170914Y-105878333D02*
X268218533Y-105783095D01*
X268028057Y-106735476D02*
X267980438Y-106783095D01*
X267980438Y-106783095D02*
X267932819Y-106878333D01*
X267932819Y-106878333D02*
X267932819Y-107116428D01*
X267932819Y-107116428D02*
X267980438Y-107211666D01*
X267980438Y-107211666D02*
X268028057Y-107259285D01*
X268028057Y-107259285D02*
X268123295Y-107306904D01*
X268123295Y-107306904D02*
X268218533Y-107306904D01*
X268218533Y-107306904D02*
X268361390Y-107259285D01*
X268361390Y-107259285D02*
X268932819Y-106687857D01*
X268932819Y-106687857D02*
X268932819Y-107306904D01*
X297450738Y-126981057D02*
X297545976Y-126933438D01*
X297545976Y-126933438D02*
X297641214Y-126838200D01*
X297641214Y-126838200D02*
X297784071Y-126695342D01*
X297784071Y-126695342D02*
X297879309Y-126647723D01*
X297879309Y-126647723D02*
X297974547Y-126647723D01*
X297926928Y-126885819D02*
X298022166Y-126838200D01*
X298022166Y-126838200D02*
X298117404Y-126742961D01*
X298117404Y-126742961D02*
X298165023Y-126552485D01*
X298165023Y-126552485D02*
X298165023Y-126219152D01*
X298165023Y-126219152D02*
X298117404Y-126028676D01*
X298117404Y-126028676D02*
X298022166Y-125933438D01*
X298022166Y-125933438D02*
X297926928Y-125885819D01*
X297926928Y-125885819D02*
X297736452Y-125885819D01*
X297736452Y-125885819D02*
X297641214Y-125933438D01*
X297641214Y-125933438D02*
X297545976Y-126028676D01*
X297545976Y-126028676D02*
X297498357Y-126219152D01*
X297498357Y-126219152D02*
X297498357Y-126552485D01*
X297498357Y-126552485D02*
X297545976Y-126742961D01*
X297545976Y-126742961D02*
X297641214Y-126838200D01*
X297641214Y-126838200D02*
X297736452Y-126885819D01*
X297736452Y-126885819D02*
X297926928Y-126885819D01*
X296545976Y-126885819D02*
X297117404Y-126885819D01*
X296831690Y-126885819D02*
X296831690Y-125885819D01*
X296831690Y-125885819D02*
X296926928Y-126028676D01*
X296926928Y-126028676D02*
X297022166Y-126123914D01*
X297022166Y-126123914D02*
X297117404Y-126171533D01*
X98712819Y-126098761D02*
X98236628Y-125765428D01*
X98712819Y-125527333D02*
X97712819Y-125527333D01*
X97712819Y-125527333D02*
X97712819Y-125908285D01*
X97712819Y-125908285D02*
X97760438Y-126003523D01*
X97760438Y-126003523D02*
X97808057Y-126051142D01*
X97808057Y-126051142D02*
X97903295Y-126098761D01*
X97903295Y-126098761D02*
X98046152Y-126098761D01*
X98046152Y-126098761D02*
X98141390Y-126051142D01*
X98141390Y-126051142D02*
X98189009Y-126003523D01*
X98189009Y-126003523D02*
X98236628Y-125908285D01*
X98236628Y-125908285D02*
X98236628Y-125527333D01*
X97712819Y-126384476D02*
X98712819Y-126717809D01*
X98712819Y-126717809D02*
X97712819Y-127051142D01*
X98712819Y-127908285D02*
X98712819Y-127336857D01*
X98712819Y-127622571D02*
X97712819Y-127622571D01*
X97712819Y-127622571D02*
X97855676Y-127527333D01*
X97855676Y-127527333D02*
X97950914Y-127432095D01*
X97950914Y-127432095D02*
X97998533Y-127336857D01*
X173428819Y-85433142D02*
X172952628Y-85099809D01*
X173428819Y-84861714D02*
X172428819Y-84861714D01*
X172428819Y-84861714D02*
X172428819Y-85242666D01*
X172428819Y-85242666D02*
X172476438Y-85337904D01*
X172476438Y-85337904D02*
X172524057Y-85385523D01*
X172524057Y-85385523D02*
X172619295Y-85433142D01*
X172619295Y-85433142D02*
X172762152Y-85433142D01*
X172762152Y-85433142D02*
X172857390Y-85385523D01*
X172857390Y-85385523D02*
X172905009Y-85337904D01*
X172905009Y-85337904D02*
X172952628Y-85242666D01*
X172952628Y-85242666D02*
X172952628Y-84861714D01*
X172762152Y-86290285D02*
X173428819Y-86290285D01*
X172381200Y-86052190D02*
X173095485Y-85814095D01*
X173095485Y-85814095D02*
X173095485Y-86433142D01*
X173428819Y-87337904D02*
X173428819Y-86766476D01*
X173428819Y-87052190D02*
X172428819Y-87052190D01*
X172428819Y-87052190D02*
X172571676Y-86956952D01*
X172571676Y-86956952D02*
X172666914Y-86861714D01*
X172666914Y-86861714D02*
X172714533Y-86766476D01*
X151518857Y-119613819D02*
X151852190Y-119137628D01*
X152090285Y-119613819D02*
X152090285Y-118613819D01*
X152090285Y-118613819D02*
X151709333Y-118613819D01*
X151709333Y-118613819D02*
X151614095Y-118661438D01*
X151614095Y-118661438D02*
X151566476Y-118709057D01*
X151566476Y-118709057D02*
X151518857Y-118804295D01*
X151518857Y-118804295D02*
X151518857Y-118947152D01*
X151518857Y-118947152D02*
X151566476Y-119042390D01*
X151566476Y-119042390D02*
X151614095Y-119090009D01*
X151614095Y-119090009D02*
X151709333Y-119137628D01*
X151709333Y-119137628D02*
X152090285Y-119137628D01*
X151185523Y-118613819D02*
X150566476Y-118613819D01*
X150566476Y-118613819D02*
X150899809Y-118994771D01*
X150899809Y-118994771D02*
X150756952Y-118994771D01*
X150756952Y-118994771D02*
X150661714Y-119042390D01*
X150661714Y-119042390D02*
X150614095Y-119090009D01*
X150614095Y-119090009D02*
X150566476Y-119185247D01*
X150566476Y-119185247D02*
X150566476Y-119423342D01*
X150566476Y-119423342D02*
X150614095Y-119518580D01*
X150614095Y-119518580D02*
X150661714Y-119566200D01*
X150661714Y-119566200D02*
X150756952Y-119613819D01*
X150756952Y-119613819D02*
X151042666Y-119613819D01*
X151042666Y-119613819D02*
X151137904Y-119566200D01*
X151137904Y-119566200D02*
X151185523Y-119518580D01*
X150090285Y-119613819D02*
X149899809Y-119613819D01*
X149899809Y-119613819D02*
X149804571Y-119566200D01*
X149804571Y-119566200D02*
X149756952Y-119518580D01*
X149756952Y-119518580D02*
X149661714Y-119375723D01*
X149661714Y-119375723D02*
X149614095Y-119185247D01*
X149614095Y-119185247D02*
X149614095Y-118804295D01*
X149614095Y-118804295D02*
X149661714Y-118709057D01*
X149661714Y-118709057D02*
X149709333Y-118661438D01*
X149709333Y-118661438D02*
X149804571Y-118613819D01*
X149804571Y-118613819D02*
X149995047Y-118613819D01*
X149995047Y-118613819D02*
X150090285Y-118661438D01*
X150090285Y-118661438D02*
X150137904Y-118709057D01*
X150137904Y-118709057D02*
X150185523Y-118804295D01*
X150185523Y-118804295D02*
X150185523Y-119042390D01*
X150185523Y-119042390D02*
X150137904Y-119137628D01*
X150137904Y-119137628D02*
X150090285Y-119185247D01*
X150090285Y-119185247D02*
X149995047Y-119232866D01*
X149995047Y-119232866D02*
X149804571Y-119232866D01*
X149804571Y-119232866D02*
X149709333Y-119185247D01*
X149709333Y-119185247D02*
X149661714Y-119137628D01*
X149661714Y-119137628D02*
X149614095Y-119042390D01*
X133919094Y-130980819D02*
X133919094Y-131790342D01*
X133919094Y-131790342D02*
X133871475Y-131885580D01*
X133871475Y-131885580D02*
X133823856Y-131933200D01*
X133823856Y-131933200D02*
X133728618Y-131980819D01*
X133728618Y-131980819D02*
X133538142Y-131980819D01*
X133538142Y-131980819D02*
X133442904Y-131933200D01*
X133442904Y-131933200D02*
X133395285Y-131885580D01*
X133395285Y-131885580D02*
X133347666Y-131790342D01*
X133347666Y-131790342D02*
X133347666Y-130980819D01*
X132347666Y-131980819D02*
X132919094Y-131980819D01*
X132633380Y-131980819D02*
X132633380Y-130980819D01*
X132633380Y-130980819D02*
X132728618Y-131123676D01*
X132728618Y-131123676D02*
X132823856Y-131218914D01*
X132823856Y-131218914D02*
X132919094Y-131266533D01*
X131728618Y-130980819D02*
X131633380Y-130980819D01*
X131633380Y-130980819D02*
X131538142Y-131028438D01*
X131538142Y-131028438D02*
X131490523Y-131076057D01*
X131490523Y-131076057D02*
X131442904Y-131171295D01*
X131442904Y-131171295D02*
X131395285Y-131361771D01*
X131395285Y-131361771D02*
X131395285Y-131599866D01*
X131395285Y-131599866D02*
X131442904Y-131790342D01*
X131442904Y-131790342D02*
X131490523Y-131885580D01*
X131490523Y-131885580D02*
X131538142Y-131933200D01*
X131538142Y-131933200D02*
X131633380Y-131980819D01*
X131633380Y-131980819D02*
X131728618Y-131980819D01*
X131728618Y-131980819D02*
X131823856Y-131933200D01*
X131823856Y-131933200D02*
X131871475Y-131885580D01*
X131871475Y-131885580D02*
X131919094Y-131790342D01*
X131919094Y-131790342D02*
X131966713Y-131599866D01*
X131966713Y-131599866D02*
X131966713Y-131361771D01*
X131966713Y-131361771D02*
X131919094Y-131171295D01*
X131919094Y-131171295D02*
X131871475Y-131076057D01*
X131871475Y-131076057D02*
X131823856Y-131028438D01*
X131823856Y-131028438D02*
X131728618Y-130980819D01*
D13*
G04 #@! TO.C,R8*
X290815500Y-139572276D02*
X290815500Y-140081724D01*
X291860500Y-139572276D02*
X291860500Y-140081724D01*
G04 #@! TO.C,C18*
X187173233Y-86546000D02*
X187465767Y-86546000D01*
X187173233Y-87566000D02*
X187465767Y-87566000D01*
G04 #@! TO.C,R18*
X218487724Y-143973500D02*
X217978276Y-143973500D01*
X218487724Y-145018500D02*
X217978276Y-145018500D01*
G04 #@! TO.C,U5*
X131446000Y-152034000D02*
X137916000Y-152034000D01*
X131446000Y-157234000D02*
X131446000Y-152034000D01*
X133681000Y-157234000D02*
X131446000Y-157234000D01*
X137916000Y-152034000D02*
X137916000Y-157234000D01*
X137916000Y-157234000D02*
X135681000Y-157234000D01*
X133681000Y-157234000D02*
G75*
G02*
X135681000Y-157234000I1000000J0D01*
G01*
G04 #@! TO.C,D3*
X247423000Y-96130000D02*
X248893000Y-96130000D01*
X247423000Y-98590000D02*
X247423000Y-96130000D01*
X248893000Y-96130000D02*
X248893000Y-98590000D01*
G04 #@! TO.C,R36*
X101346724Y-121091500D02*
X100837276Y-121091500D01*
X101346724Y-122136500D02*
X100837276Y-122136500D01*
G04 #@! TO.C,U12*
X178780000Y-98044000D02*
X178780000Y-97244000D01*
X178780000Y-98044000D02*
X178780000Y-98844000D01*
X181900000Y-98044000D02*
X181900000Y-97244000D01*
X181900000Y-98044000D02*
X181900000Y-99844000D01*
G04 #@! TO.C,U11*
X184186000Y-86868000D02*
X184186000Y-88668000D01*
X184186000Y-86868000D02*
X184186000Y-86068000D01*
X181066000Y-86868000D02*
X181066000Y-87668000D01*
X181066000Y-86868000D02*
X181066000Y-86068000D01*
G04 #@! TO.C,C4*
X254462233Y-91438000D02*
X254754767Y-91438000D01*
X254462233Y-92458000D02*
X254754767Y-92458000D01*
G04 #@! TO.C,D4*
X248211200Y-106048500D02*
X250671200Y-106048500D01*
X250671200Y-106048500D02*
X250671200Y-107518500D01*
X250671200Y-107518500D02*
X248211200Y-107518500D01*
G04 #@! TO.C,R43*
X163815500Y-84402224D02*
X163815500Y-83892776D01*
X164860500Y-84402224D02*
X164860500Y-83892776D01*
G04 #@! TO.C,D2*
X206808600Y-123058600D02*
X202798600Y-123058600D01*
X206808600Y-123058600D02*
X206808600Y-125058600D01*
X206808600Y-125058600D02*
X202798600Y-125058600D01*
G04 #@! TO.C,R5*
X280782500Y-130531776D02*
X280782500Y-131041224D01*
X281827500Y-130531776D02*
X281827500Y-131041224D01*
G04 #@! TO.C,R6*
X283322500Y-130531776D02*
X283322500Y-131041224D01*
X284367500Y-130531776D02*
X284367500Y-131041224D01*
G04 #@! TO.C,C7*
X241298000Y-79456233D02*
X241298000Y-79748767D01*
X242318000Y-79456233D02*
X242318000Y-79748767D01*
G04 #@! TO.C,U14*
X156136000Y-82938000D02*
X157636000Y-82938000D01*
X156136000Y-93338000D02*
X157636000Y-93338000D01*
X157636000Y-82938000D02*
X157636000Y-84748000D01*
X157636000Y-84748000D02*
X162761000Y-84748000D01*
X157636000Y-91528000D02*
X158736000Y-91528000D01*
X157636000Y-93338000D02*
X157636000Y-91528000D01*
G04 #@! TO.C,R23*
X209550724Y-155687500D02*
X209041276Y-155687500D01*
X209550724Y-156732500D02*
X209041276Y-156732500D01*
G04 #@! TO.C,R15*
X293500400Y-129733724D02*
X293500400Y-129224276D01*
X294545400Y-129733724D02*
X294545400Y-129224276D01*
G04 #@! TO.C,R4*
X260462500Y-138937276D02*
X260462500Y-139446724D01*
X261507500Y-138937276D02*
X261507500Y-139446724D01*
G04 #@! TO.C,R2*
X255213200Y-138937276D02*
X255213200Y-139446724D01*
X256258200Y-138937276D02*
X256258200Y-139446724D01*
G04 #@! TO.C,R3*
X257837800Y-138937276D02*
X257837800Y-139446724D01*
X258882800Y-138937276D02*
X258882800Y-139446724D01*
G04 #@! TO.C,U9*
X131446000Y-119268000D02*
X133681000Y-119268000D01*
X131446000Y-124468000D02*
X131446000Y-119268000D01*
X135681000Y-119268000D02*
X137916000Y-119268000D01*
X137916000Y-119268000D02*
X137916000Y-124468000D01*
X137916000Y-124468000D02*
X131446000Y-124468000D01*
X135681000Y-119268000D02*
G75*
G02*
X133681000Y-119268000I-1000000J0D01*
G01*
G04 #@! TO.C,R40*
X185488000Y-119163436D02*
X185488000Y-123517564D01*
X188908000Y-119163436D02*
X188908000Y-123517564D01*
G04 #@! TO.C,R13*
X265415500Y-109601724D02*
X265415500Y-109092276D01*
X266460500Y-109601724D02*
X266460500Y-109092276D01*
G04 #@! TO.C,R42*
X163815500Y-88108724D02*
X163815500Y-87599276D01*
X164860500Y-88108724D02*
X164860500Y-87599276D01*
G04 #@! TO.C,C5*
X254208233Y-106170000D02*
X254500767Y-106170000D01*
X254208233Y-107190000D02*
X254500767Y-107190000D01*
G04 #@! TO.C,Q6*
X168734500Y-84582000D02*
X168084500Y-84582000D01*
X168734500Y-84582000D02*
X170409500Y-84582000D01*
X168734500Y-87702000D02*
X168084500Y-87702000D01*
X168734500Y-87702000D02*
X169384500Y-87702000D01*
G04 #@! TO.C,R1*
X252588500Y-138937276D02*
X252588500Y-139446724D01*
X253633500Y-138937276D02*
X253633500Y-139446724D01*
G04 #@! TO.C,R34*
X161517064Y-78991000D02*
X161062936Y-78991000D01*
X161517064Y-80461000D02*
X161062936Y-80461000D01*
G04 #@! TO.C,R38*
X147170224Y-120127500D02*
X146660776Y-120127500D01*
X147170224Y-121172500D02*
X146660776Y-121172500D01*
G04 #@! TO.C,R20*
X205383224Y-143973500D02*
X204873776Y-143973500D01*
X205383224Y-145018500D02*
X204873776Y-145018500D01*
G04 #@! TO.C,C19*
X183518500Y-97897733D02*
X183518500Y-98190267D01*
X184538500Y-97897733D02*
X184538500Y-98190267D01*
G04 #@! TO.C,L3*
X180392000Y-122107752D02*
X180392000Y-121585248D01*
X181812000Y-122107752D02*
X181812000Y-121585248D01*
G04 #@! TO.C,C6*
X222002000Y-84637733D02*
X222002000Y-84930267D01*
X223022000Y-84637733D02*
X223022000Y-84930267D01*
G04 #@! TO.C,Q2*
X157952000Y-160562500D02*
X163962000Y-160562500D01*
X160202000Y-153742500D02*
X163962000Y-153742500D01*
X163962000Y-153742500D02*
X163962000Y-155002500D01*
X163962000Y-160562500D02*
X163962000Y-159302500D01*
G04 #@! TO.C,R22*
X214630724Y-155717500D02*
X214121276Y-155717500D01*
X214630724Y-156762500D02*
X214121276Y-156762500D01*
G04 #@! TO.C,R17*
X247635500Y-103734776D02*
X247635500Y-104244224D01*
X248680500Y-103734776D02*
X248680500Y-104244224D01*
D14*
G04 #@! TO.C,U4*
X249929000Y-102914000D02*
X249929000Y-102914000D01*
X250029000Y-102914000D02*
X250029000Y-102914000D01*
D15*
X254381000Y-94202000D02*
X255429000Y-94202000D01*
X254381000Y-104426000D02*
X254381000Y-94202000D01*
X255429000Y-104426000D02*
X254381000Y-104426000D01*
D14*
X249929000Y-102914000D02*
G75*
G02*
X250029000Y-102914000I50000J0D01*
G01*
X250029000Y-102914000D02*
G75*
G02*
X249929000Y-102914000I-50000J0D01*
G01*
D13*
G04 #@! TO.C,D7*
X230714000Y-87848000D02*
X226704000Y-87848000D01*
X230714000Y-87848000D02*
X230714000Y-89848000D01*
X230714000Y-89848000D02*
X226704000Y-89848000D01*
G04 #@! TO.C,R19*
X209193224Y-144003500D02*
X208683776Y-144003500D01*
X209193224Y-145048500D02*
X208683776Y-145048500D01*
G04 #@! TO.C,C20*
X163828000Y-91659767D02*
X163828000Y-91367233D01*
X164848000Y-91659767D02*
X164848000Y-91367233D01*
G04 #@! TO.C,R37*
X128943224Y-129473500D02*
X128433776Y-129473500D01*
X128943224Y-130518500D02*
X128433776Y-130518500D01*
G04 #@! TO.C,R31*
X155300000Y-159657564D02*
X155300000Y-158203436D01*
X157120000Y-159657564D02*
X157120000Y-158203436D01*
G04 #@! TO.C,R28*
X159663224Y-161202000D02*
X159153776Y-161202000D01*
X159663224Y-162247000D02*
X159153776Y-162247000D01*
G04 #@! TO.C,R7*
X285862500Y-130531776D02*
X285862500Y-131041224D01*
X286907500Y-130531776D02*
X286907500Y-131041224D01*
G04 #@! TO.C,R21*
X218186724Y-155687500D02*
X217677276Y-155687500D01*
X218186724Y-156732500D02*
X217677276Y-156732500D01*
G04 #@! TO.C,R12*
X267955500Y-109601724D02*
X267955500Y-109092276D01*
X269000500Y-109601724D02*
X269000500Y-109092276D01*
G04 #@! TO.C,Q1*
X297355500Y-127665000D02*
X296705500Y-127665000D01*
X297355500Y-127665000D02*
X298005500Y-127665000D01*
X297355500Y-130785000D02*
X295680500Y-130785000D01*
X297355500Y-130785000D02*
X298005500Y-130785000D01*
G04 #@! TO.C,RV1*
X94158000Y-124794000D02*
X94758000Y-124794000D01*
X94158000Y-127694000D02*
X94158000Y-124794000D01*
X95958000Y-128794000D02*
X95558000Y-128794000D01*
X97358000Y-124794000D02*
X96758000Y-124794000D01*
X97358000Y-127694000D02*
X97358000Y-124794000D01*
X97558000Y-128594000D02*
X97558000Y-129294000D01*
X97558000Y-129294000D02*
X96858000Y-129294000D01*
G04 #@! TO.C,R41*
X170927500Y-85821276D02*
X170927500Y-86330724D01*
X171972500Y-85821276D02*
X171972500Y-86330724D01*
G04 #@! TO.C,R39*
X151130724Y-120066500D02*
X150621276Y-120066500D01*
X151130724Y-121111500D02*
X150621276Y-121111500D01*
G04 #@! TO.C,U10*
X131681000Y-130646000D02*
X136681000Y-130646000D01*
X136181000Y-126806000D02*
X133181000Y-126806000D01*
G04 #@! TD*
%LPC*%
D16*
G04 #@! TO.C,J13*
X206000000Y-179000000D03*
X235000000Y-179000000D03*
D17*
X212500000Y-174500000D03*
D18*
X216500000Y-174500000D03*
X220500000Y-174500000D03*
X224500000Y-174500000D03*
X228500000Y-174500000D03*
X214500000Y-178500000D03*
X218500000Y-178500000D03*
X222500000Y-178500000D03*
X226500000Y-178500000D03*
X212500000Y-182500000D03*
X216500000Y-182500000D03*
X220500000Y-182500000D03*
X224500000Y-182500000D03*
X228500000Y-182500000D03*
G04 #@! TD*
D19*
G04 #@! TO.C,U2*
X245618000Y-135890000D03*
D20*
X248158000Y-135890000D03*
X250698000Y-135890000D03*
X253238000Y-135890000D03*
X255778000Y-135890000D03*
X258318000Y-135890000D03*
X260858000Y-135890000D03*
X263398000Y-135890000D03*
X265938000Y-135890000D03*
X268478000Y-135890000D03*
X271018000Y-135890000D03*
X273558000Y-135890000D03*
X276098000Y-135890000D03*
X278638000Y-135890000D03*
X281178000Y-135890000D03*
X283718000Y-135890000D03*
X286258000Y-135890000D03*
X288798000Y-135890000D03*
X291338000Y-135890000D03*
X293875280Y-135893680D03*
X296415280Y-135893680D03*
X298955280Y-135893680D03*
X298958000Y-113030000D03*
X296418000Y-113030000D03*
X293878000Y-113030000D03*
X291338000Y-113030000D03*
X288798000Y-113030000D03*
X286258000Y-113030000D03*
X283718000Y-113030000D03*
X281178000Y-113030000D03*
X278638000Y-113030000D03*
X276098000Y-113030000D03*
X273558000Y-113030000D03*
X271018000Y-113030000D03*
X268478000Y-113030000D03*
X265938000Y-113030000D03*
X263398000Y-113030000D03*
X260858000Y-113030000D03*
X258318000Y-113030000D03*
X255778000Y-113030000D03*
X253238000Y-113030000D03*
X250698000Y-113030000D03*
X248158000Y-113030000D03*
X245618000Y-113030000D03*
G04 #@! TD*
D21*
G04 #@! TO.C,J5*
X157734000Y-169164000D03*
D22*
X154484000Y-167664000D03*
G04 #@! TD*
D23*
G04 #@! TO.C,F2*
X195368000Y-91776000D03*
X198768000Y-91776000D03*
X195368000Y-81856000D03*
X198768000Y-81856000D03*
G04 #@! TD*
D24*
G04 #@! TO.C,Q3*
X175280000Y-82244000D03*
D25*
X180730000Y-82244000D03*
X186180000Y-82244000D03*
G04 #@! TD*
D23*
G04 #@! TO.C,F5*
X223266000Y-98324000D03*
X223266000Y-101724000D03*
X233186000Y-98324000D03*
X233186000Y-101724000D03*
G04 #@! TD*
D26*
G04 #@! TO.C,K3*
X202574000Y-158448500D03*
D27*
X210194000Y-158448500D03*
X215274000Y-158448500D03*
X220354000Y-158448500D03*
X220354000Y-150828500D03*
X215274000Y-150828500D03*
X210194000Y-150828500D03*
X202574000Y-150828500D03*
G04 #@! TD*
D28*
G04 #@! TO.C,C16*
X181610000Y-125028000D03*
X181610000Y-132528000D03*
G04 #@! TD*
D16*
G04 #@! TO.C,J9*
X163490000Y-179122000D03*
X184490000Y-179122000D03*
D17*
X169990000Y-174622000D03*
D18*
X173990000Y-174622000D03*
X177990000Y-174622000D03*
X171990000Y-178622000D03*
X175990000Y-178622000D03*
X169990000Y-182622000D03*
X173990000Y-182622000D03*
X177990000Y-182622000D03*
G04 #@! TD*
D23*
G04 #@! TO.C,F6*
X223266000Y-106198000D03*
X223266000Y-109598000D03*
X233186000Y-106198000D03*
X233186000Y-109598000D03*
G04 #@! TD*
D21*
G04 #@! TO.C,J3*
X65330000Y-98476000D03*
D29*
X68580000Y-93016000D03*
D30*
X68580000Y-96976000D03*
G04 #@! TD*
D16*
G04 #@! TO.C,J8*
X219710000Y-67742500D03*
X190710000Y-67742500D03*
D17*
X213210000Y-72242500D03*
D18*
X209210000Y-72242500D03*
X205210000Y-72242500D03*
X201210000Y-72242500D03*
X197210000Y-72242500D03*
X211210000Y-68242500D03*
X207210000Y-68242500D03*
X203210000Y-68242500D03*
X199210000Y-68242500D03*
X213210000Y-64242500D03*
X209210000Y-64242500D03*
X205210000Y-64242500D03*
X201210000Y-64242500D03*
X197210000Y-64242500D03*
G04 #@! TD*
D31*
G04 #@! TO.C,U8*
X101756100Y-112721900D03*
X102462851Y-111015651D03*
X102462851Y-114428149D03*
X104169100Y-110308900D03*
D32*
X104169100Y-112721900D03*
D31*
X104169100Y-115134900D03*
X105875349Y-111015651D03*
X105875349Y-114428149D03*
X106582100Y-112721900D03*
D33*
X105185100Y-121738900D03*
X105185100Y-124278900D03*
X105185100Y-126818900D03*
D31*
X101801820Y-137024620D03*
X102476242Y-135304980D03*
X102540900Y-138717478D03*
X104169100Y-134565900D03*
D32*
X104214820Y-136978900D03*
D31*
X104260540Y-139391900D03*
X105888740Y-135240322D03*
X105953398Y-138652820D03*
X106627820Y-136933180D03*
X162462100Y-132660900D03*
X163168851Y-130954651D03*
X163168851Y-134367149D03*
X164875100Y-130247900D03*
D32*
X164875100Y-132660900D03*
D31*
X164875100Y-135073900D03*
X166581349Y-130954651D03*
X166581349Y-134367149D03*
X167288100Y-132660900D03*
X162462100Y-117166900D03*
X163168851Y-115460651D03*
X163168851Y-118873149D03*
X164875100Y-114753900D03*
D32*
X164875100Y-117166900D03*
D31*
X164875100Y-119579900D03*
X166581349Y-115460651D03*
X166581349Y-118873149D03*
X167288100Y-117166900D03*
G04 #@! TD*
D21*
G04 #@! TO.C,J6*
X126722000Y-90170000D03*
D34*
X125222000Y-93420000D03*
G04 #@! TD*
D23*
G04 #@! TO.C,F7*
X223132000Y-122506000D03*
X223132000Y-125906000D03*
X233052000Y-122506000D03*
X233052000Y-125906000D03*
G04 #@! TD*
D35*
G04 #@! TO.C,J10*
X278402000Y-82168000D03*
D36*
X286982000Y-82168000D03*
D37*
X282842000Y-82168000D03*
G04 #@! TD*
D21*
G04 #@! TO.C,J7*
X125500000Y-178204000D03*
D38*
X127000000Y-174954000D03*
G04 #@! TD*
D39*
G04 #@! TO.C,C15*
X80010000Y-116112000D03*
X80010000Y-131112000D03*
G04 #@! TD*
D40*
G04 #@! TO.C,R32*
X85700000Y-81250000D03*
X111100000Y-81250000D03*
G04 #@! TD*
D41*
G04 #@! TO.C,K5*
X244484000Y-84784000D03*
D28*
X244484000Y-82244000D03*
X244484000Y-74624000D03*
X239404000Y-74624000D03*
X239404000Y-82244000D03*
X239404000Y-84784000D03*
G04 #@! TD*
D23*
G04 #@! TO.C,F1*
X223062000Y-114150000D03*
X223062000Y-117550000D03*
X232982000Y-114150000D03*
X232982000Y-117550000D03*
G04 #@! TD*
D16*
G04 #@! TO.C,J11*
X255946000Y-180068500D03*
X296946000Y-180068500D03*
D17*
X262446000Y-175568500D03*
D18*
X266446000Y-175568500D03*
X270446000Y-175568500D03*
X274446000Y-175568500D03*
X278446000Y-175568500D03*
X282446000Y-175568500D03*
X286446000Y-175568500D03*
X290446000Y-175568500D03*
X264446000Y-179568500D03*
X268446000Y-179568500D03*
X272446000Y-179568500D03*
X276446000Y-179568500D03*
X280446000Y-179568500D03*
X284446000Y-179568500D03*
X288446000Y-179568500D03*
X262446000Y-183568500D03*
X266446000Y-183568500D03*
X270446000Y-183568500D03*
X274446000Y-183568500D03*
X278446000Y-183568500D03*
X282446000Y-183568500D03*
X286446000Y-183568500D03*
X290446000Y-183568500D03*
G04 #@! TD*
D26*
G04 #@! TO.C,K2*
X202724500Y-146764500D03*
D27*
X210344500Y-146764500D03*
X215424500Y-146764500D03*
X220504500Y-146764500D03*
X220504500Y-139144500D03*
X215424500Y-139144500D03*
X210344500Y-139144500D03*
X202724500Y-139144500D03*
G04 #@! TD*
D23*
G04 #@! TO.C,F10*
X189738000Y-154418000D03*
X186338000Y-154418000D03*
X189738000Y-164338000D03*
X186338000Y-164338000D03*
G04 #@! TD*
D24*
G04 #@! TO.C,Q4*
X175418000Y-91388000D03*
D25*
X180868000Y-91388000D03*
X186318000Y-91388000D03*
G04 #@! TD*
D23*
G04 #@! TO.C,F4*
X213410600Y-91776000D03*
X216810600Y-91776000D03*
X213410600Y-81856000D03*
X216810600Y-81856000D03*
G04 #@! TD*
D16*
G04 #@! TO.C,J12*
X292354000Y-68326000D03*
X263354000Y-68326000D03*
D17*
X285854000Y-72826000D03*
D18*
X281854000Y-72826000D03*
X277854000Y-72826000D03*
X273854000Y-72826000D03*
X269854000Y-72826000D03*
X283854000Y-68826000D03*
X279854000Y-68826000D03*
X275854000Y-68826000D03*
X271854000Y-68826000D03*
X285854000Y-64826000D03*
X281854000Y-64826000D03*
X277854000Y-64826000D03*
X273854000Y-64826000D03*
X269854000Y-64826000D03*
G04 #@! TD*
D39*
G04 #@! TO.C,R24*
X83566000Y-152094000D03*
D42*
X98806000Y-152094000D03*
G04 #@! TD*
D43*
G04 #@! TO.C,F12*
X78740000Y-139648000D03*
D44*
X67490000Y-139648000D03*
X89990000Y-139648000D03*
G04 #@! TD*
D45*
G04 #@! TO.C,J1*
X228568000Y-145618000D03*
D46*
X226568000Y-144018000D03*
D47*
X226568000Y-141518000D03*
G04 #@! TD*
D39*
G04 #@! TO.C,C14*
X91186000Y-116112000D03*
X91186000Y-131112000D03*
G04 #@! TD*
D19*
G04 #@! TO.C,U3*
X245618000Y-167132000D03*
D20*
X248158000Y-167132000D03*
X250698000Y-167132000D03*
X253238000Y-167132000D03*
X255778000Y-167132000D03*
X258318000Y-167132000D03*
X260858000Y-167132000D03*
X263398000Y-167132000D03*
X265938000Y-167132000D03*
X268478000Y-167132000D03*
X271018000Y-167132000D03*
X273558000Y-167132000D03*
X276098000Y-167132000D03*
X278638000Y-167132000D03*
X281178000Y-167132000D03*
X283718000Y-167132000D03*
X286258000Y-167132000D03*
X288798000Y-167132000D03*
X291338000Y-167132000D03*
X293875280Y-167135680D03*
X296415280Y-167135680D03*
X298955280Y-167135680D03*
X298958000Y-144272000D03*
X296418000Y-144272000D03*
X293878000Y-144272000D03*
X291338000Y-144272000D03*
X288798000Y-144272000D03*
X286258000Y-144272000D03*
X283718000Y-144272000D03*
X281178000Y-144272000D03*
X278638000Y-144272000D03*
X276098000Y-144272000D03*
X273558000Y-144272000D03*
X271018000Y-144272000D03*
X268478000Y-144272000D03*
X265938000Y-144272000D03*
X263398000Y-144272000D03*
X260858000Y-144272000D03*
X258318000Y-144272000D03*
X255778000Y-144272000D03*
X253238000Y-144272000D03*
X250698000Y-144272000D03*
X248158000Y-144272000D03*
X245618000Y-144272000D03*
G04 #@! TD*
D28*
G04 #@! TO.C,K4*
X234660000Y-78233500D03*
X222608000Y-78233500D03*
X228608000Y-92483500D03*
X234608000Y-90483500D03*
X222608000Y-90483500D03*
G04 #@! TD*
D43*
G04 #@! TO.C,F11*
X78486000Y-107644000D03*
D44*
X67236000Y-107644000D03*
X89736000Y-107644000D03*
G04 #@! TD*
D21*
G04 #@! TO.C,J4*
X65584000Y-156030000D03*
D29*
X68834000Y-150570000D03*
D30*
X68834000Y-154530000D03*
G04 #@! TD*
D45*
G04 #@! TO.C,J2*
X228704000Y-157803500D03*
D46*
X226704000Y-156203500D03*
D47*
X226704000Y-153703500D03*
G04 #@! TD*
D48*
G04 #@! TO.C,K1*
X209505600Y-123898100D03*
X199345600Y-123898100D03*
D49*
X194565600Y-111888100D03*
D50*
X213315600Y-108458100D03*
G04 #@! TD*
D40*
G04 #@! TO.C,R33*
X78950000Y-172250000D03*
X104350000Y-172250000D03*
G04 #@! TD*
D23*
G04 #@! TO.C,F3*
X204389300Y-91776000D03*
X207789300Y-91776000D03*
X204389300Y-81856000D03*
X207789300Y-81856000D03*
G04 #@! TD*
D28*
G04 #@! TO.C,C17*
X176672400Y-107076300D03*
X181975701Y-112379601D03*
G04 #@! TD*
D35*
G04 #@! TO.C,J15*
X165664000Y-67818000D03*
D36*
X174244000Y-67818000D03*
D37*
X170104000Y-67818000D03*
G04 #@! TD*
D23*
G04 #@! TO.C,F9*
X181356000Y-154418000D03*
X177956000Y-154418000D03*
X181356000Y-164338000D03*
X177956000Y-164338000D03*
G04 #@! TD*
D51*
G04 #@! TO.C,R8*
X291338000Y-138914500D03*
X291338000Y-140739500D03*
G04 #@! TD*
D52*
G04 #@! TO.C,C18*
X186457000Y-87056000D03*
X188182000Y-87056000D03*
G04 #@! TD*
D53*
G04 #@! TO.C,R18*
X219145500Y-144496000D03*
X217320500Y-144496000D03*
G04 #@! TD*
D54*
G04 #@! TO.C,U5*
X129916000Y-155904000D03*
X129916000Y-153364000D03*
X139446000Y-153364000D03*
X139446000Y-155904000D03*
G04 #@! TD*
D55*
G04 #@! TO.C,D3*
X248158000Y-96915000D03*
X248158000Y-98665000D03*
G04 #@! TD*
D53*
G04 #@! TO.C,R36*
X102004500Y-121614000D03*
X100179500Y-121614000D03*
G04 #@! TD*
D56*
G04 #@! TO.C,U12*
X181290000Y-99181500D03*
X180340000Y-99181500D03*
X179390000Y-99181500D03*
X179390000Y-96906500D03*
X180340000Y-96906500D03*
X181290000Y-96906500D03*
G04 #@! TD*
G04 #@! TO.C,U11*
X183576000Y-85730500D03*
X182626000Y-85730500D03*
X181676000Y-85730500D03*
X181676000Y-88005500D03*
X182626000Y-88005500D03*
X183576000Y-88005500D03*
G04 #@! TD*
D52*
G04 #@! TO.C,C4*
X253746000Y-91948000D03*
X255471000Y-91948000D03*
G04 #@! TD*
D57*
G04 #@! TO.C,D4*
X249886200Y-106783500D03*
X248136200Y-106783500D03*
G04 #@! TD*
D58*
G04 #@! TO.C,R43*
X164338000Y-85060000D03*
X164338000Y-83235000D03*
G04 #@! TD*
D59*
G04 #@! TO.C,D2*
X206098600Y-124058600D03*
X202798600Y-124058600D03*
G04 #@! TD*
D51*
G04 #@! TO.C,R5*
X281305000Y-129874000D03*
X281305000Y-131699000D03*
G04 #@! TD*
G04 #@! TO.C,R6*
X283845000Y-129874000D03*
X283845000Y-131699000D03*
G04 #@! TD*
D60*
G04 #@! TO.C,C7*
X241808000Y-78740000D03*
X241808000Y-80465000D03*
G04 #@! TD*
D61*
G04 #@! TO.C,U14*
X160461000Y-85598000D03*
D62*
X151311000Y-88138000D03*
D61*
X160461000Y-90678000D03*
G04 #@! TD*
D53*
G04 #@! TO.C,R23*
X210208500Y-156210000D03*
X208383500Y-156210000D03*
G04 #@! TD*
D58*
G04 #@! TO.C,R15*
X294022900Y-130391500D03*
X294022900Y-128566500D03*
G04 #@! TD*
D51*
G04 #@! TO.C,R4*
X260985000Y-138279500D03*
X260985000Y-140104500D03*
G04 #@! TD*
G04 #@! TO.C,R2*
X255735700Y-138279500D03*
X255735700Y-140104500D03*
G04 #@! TD*
G04 #@! TO.C,R3*
X258360300Y-138279500D03*
X258360300Y-140104500D03*
G04 #@! TD*
D54*
G04 #@! TO.C,U9*
X139446000Y-120598000D03*
X139446000Y-123138000D03*
X129916000Y-123138000D03*
X129916000Y-120598000D03*
G04 #@! TD*
D63*
G04 #@! TO.C,R40*
X187198000Y-118290500D03*
X187198000Y-124390500D03*
G04 #@! TD*
D58*
G04 #@! TO.C,R13*
X265938000Y-110259500D03*
X265938000Y-108434500D03*
G04 #@! TD*
G04 #@! TO.C,R42*
X164338000Y-88766500D03*
X164338000Y-86941500D03*
G04 #@! TD*
D52*
G04 #@! TO.C,C5*
X253492000Y-106680000D03*
X255217000Y-106680000D03*
G04 #@! TD*
D64*
G04 #@! TO.C,Q6*
X169672000Y-85192000D03*
X169672000Y-87092000D03*
X167797000Y-86142000D03*
G04 #@! TD*
D51*
G04 #@! TO.C,R1*
X253111000Y-138279500D03*
X253111000Y-140104500D03*
G04 #@! TD*
D65*
G04 #@! TO.C,R34*
X162290000Y-79726000D03*
X160290000Y-79726000D03*
G04 #@! TD*
D53*
G04 #@! TO.C,R38*
X147828000Y-120650000D03*
X146003000Y-120650000D03*
G04 #@! TD*
G04 #@! TO.C,R20*
X206041000Y-144496000D03*
X204216000Y-144496000D03*
G04 #@! TD*
D60*
G04 #@! TO.C,C19*
X184028500Y-97181500D03*
X184028500Y-98906500D03*
G04 #@! TD*
D66*
G04 #@! TO.C,L3*
X181102000Y-122871500D03*
X181102000Y-120821500D03*
G04 #@! TD*
D60*
G04 #@! TO.C,C6*
X222512000Y-83921500D03*
X222512000Y-85646500D03*
G04 #@! TD*
D67*
G04 #@! TO.C,Q2*
X158902000Y-159452500D03*
X158902000Y-157152500D03*
X158902000Y-154852500D03*
D68*
X165202000Y-157152500D03*
G04 #@! TD*
D53*
G04 #@! TO.C,R22*
X215288500Y-156240000D03*
X213463500Y-156240000D03*
G04 #@! TD*
D51*
G04 #@! TO.C,R17*
X248158000Y-103077000D03*
X248158000Y-104902000D03*
G04 #@! TD*
D69*
G04 #@! TO.C,U4*
X251587000Y-102718000D03*
X251587000Y-101016000D03*
X251587000Y-99314000D03*
D70*
X260350000Y-99314000D03*
D69*
X251587000Y-97612000D03*
X251587000Y-95910000D03*
G04 #@! TD*
D59*
G04 #@! TO.C,D7*
X230004000Y-88848000D03*
X226704000Y-88848000D03*
G04 #@! TD*
D53*
G04 #@! TO.C,R19*
X209851000Y-144526000D03*
X208026000Y-144526000D03*
G04 #@! TD*
D71*
G04 #@! TO.C,C20*
X164338000Y-92376000D03*
X164338000Y-90651000D03*
G04 #@! TD*
D53*
G04 #@! TO.C,R37*
X129601000Y-129996000D03*
X127776000Y-129996000D03*
G04 #@! TD*
D72*
G04 #@! TO.C,R31*
X156210000Y-160480500D03*
X156210000Y-157380500D03*
G04 #@! TD*
D53*
G04 #@! TO.C,R28*
X160321000Y-161724500D03*
X158496000Y-161724500D03*
G04 #@! TD*
D51*
G04 #@! TO.C,R7*
X286385000Y-129874000D03*
X286385000Y-131699000D03*
G04 #@! TD*
D53*
G04 #@! TO.C,R21*
X218844500Y-156210000D03*
X217019500Y-156210000D03*
G04 #@! TD*
D58*
G04 #@! TO.C,R12*
X268478000Y-110259500D03*
X268478000Y-108434500D03*
G04 #@! TD*
D73*
G04 #@! TO.C,Q1*
X296418000Y-130175000D03*
X296418000Y-128275000D03*
X298293000Y-129225000D03*
G04 #@! TD*
D74*
G04 #@! TO.C,RV1*
X96758000Y-128494000D03*
D75*
X95758000Y-125244000D03*
D74*
X94758000Y-128494000D03*
G04 #@! TD*
D51*
G04 #@! TO.C,R41*
X171450000Y-85163500D03*
X171450000Y-86988500D03*
G04 #@! TD*
D53*
G04 #@! TO.C,R39*
X151788500Y-120589000D03*
X149963500Y-120589000D03*
G04 #@! TD*
D76*
G04 #@! TO.C,U10*
X131531000Y-129996000D03*
X131531000Y-127456000D03*
X137831000Y-127456000D03*
X137831000Y-129996000D03*
G04 #@! TD*
D31*
X287274000Y-96266000D03*
X152527000Y-152400000D03*
X285496000Y-106045000D03*
X253492000Y-107696000D03*
X286113401Y-98661401D03*
X293878000Y-127508000D03*
X156210000Y-161789500D03*
X285496000Y-109220000D03*
X164465000Y-154432000D03*
X150929000Y-155141000D03*
X291338000Y-141732000D03*
X257175000Y-140104500D03*
X247777000Y-88011000D03*
X189817479Y-77396505D03*
X208280000Y-157480000D03*
X258699000Y-96901000D03*
X198120000Y-145415000D03*
X258445000Y-101727000D03*
X254508000Y-140104500D03*
X164337997Y-89662000D03*
X180848000Y-88011000D03*
X256540000Y-99314000D03*
X178435000Y-99187000D03*
X185039000Y-98933000D03*
X264287000Y-103886000D03*
X188182000Y-87056000D03*
X251079000Y-106807000D03*
X262636000Y-101854000D03*
X170616003Y-154262018D03*
X283718000Y-90297000D03*
X144907000Y-125857000D03*
X168838003Y-154286113D03*
X260477000Y-99441000D03*
X262509000Y-96901000D03*
X168529000Y-87122000D03*
X285623000Y-90297000D03*
X260350000Y-103886000D03*
X283083000Y-104267000D03*
X256921000Y-94742000D03*
X265938000Y-108458000D03*
X281940000Y-96266000D03*
X264033000Y-94742000D03*
X147574000Y-155501500D03*
X296164000Y-127508000D03*
X256667000Y-103886000D03*
X259715000Y-140104500D03*
X247015000Y-98679000D03*
X264414000Y-99314000D03*
X168910000Y-98044000D03*
X212119997Y-156239997D03*
X260731000Y-94742000D03*
X210702003Y-82413997D03*
X256286000Y-106680000D03*
X217320499Y-143613501D03*
X172339000Y-151765000D03*
X166370000Y-149352000D03*
X165270231Y-151323941D03*
X158877000Y-153543000D03*
X112959900Y-137005900D03*
X239903000Y-92075000D03*
X238252000Y-92075000D03*
X241554000Y-92075000D03*
X238379000Y-94742000D03*
X239903000Y-94742000D03*
X241554000Y-94742000D03*
X187452000Y-134620000D03*
X279000000Y-133000000D03*
X140081000Y-130048000D03*
X141478000Y-153416000D03*
X160274000Y-162814000D03*
X269947200Y-129923700D03*
X271018000Y-129923700D03*
X231900000Y-169700000D03*
X230700000Y-174850000D03*
X239522000Y-129286000D03*
X237236000Y-129286000D03*
%LPD*%
M02*
