M48
; DRILL file {KiCad 8.0.5} date 2025-04-14T13:42:12-0400
; FORMAT={-:-/ absolute / metric / decimal}
; #@! TF.CreationDate,2025-04-14T13:42:12-04:00
; #@! TF.GenerationSoftware,Kicad,Pcbnew,8.0.5
; #@! TF.FileFunction,Plated,1,4,PTH
FMAT,2
METRIC
; #@! TA.AperFunction,Plated,PTH,ViaDrill
T1C0.400
; #@! TA.AperFunction,Plated,PTH,ComponentDrill
T2C0.500
; #@! TA.AperFunction,Plated,PTH,ComponentDrill
T3C0.700
; #@! TA.AperFunction,Plated,PTH,ComponentDrill
T4C0.762
; #@! TA.AperFunction,Plated,PTH,ComponentDrill
T5C0.800
; #@! TA.AperFunction,Plated,PTH,ComponentDrill
T6C1.000
; #@! TA.AperFunction,Plated,PTH,ComponentDrill
T7C1.090
; #@! TA.AperFunction,Plated,PTH,ComponentDrill
T8C1.200
; #@! TA.AperFunction,Plated,PTH,ComponentDrill
T9C1.300
; #@! TA.AperFunction,Plated,PTH,ComponentDrill
T10C1.400
; #@! TA.AperFunction,Plated,PTH,ComponentDrill
T11C1.500
; #@! TA.AperFunction,Plated,PTH,ComponentDrill
T12C1.750
; #@! TA.AperFunction,Plated,PTH,ComponentDrill
T13C1.780
; #@! TA.AperFunction,Plated,PTH,ComponentDrill
T14C1.800
; #@! TA.AperFunction,Plated,PTH,ComponentDrill
T15C1.950
; #@! TA.AperFunction,Plated,PTH,ComponentDrill
T16C3.200
%
G90
G05
T1
X112.96Y-137.006
X140.081Y-130.048
X141.478Y-153.416
X144.907Y-125.857
X147.574Y-155.501
X150.929Y-155.141
X152.527Y-152.4
X156.21Y-161.79
X158.877Y-153.543
X160.274Y-162.814
X164.338Y-89.662
X164.465Y-154.432
X165.27Y-151.324
X166.37Y-149.352
X168.529Y-87.122
X168.838Y-154.286
X168.91Y-98.044
X170.616Y-154.262
X172.339Y-151.765
X178.435Y-99.187
X180.848Y-88.011
X185.039Y-98.933
X187.452Y-134.62
X188.182Y-87.056
X189.817Y-77.397
X198.12Y-145.415
X208.28Y-157.48
X210.702Y-82.414
X212.12Y-156.24
X217.32Y-143.614
X230.7Y-174.85
X231.9Y-169.7
X237.236Y-129.286
X238.252Y-92.075
X238.379Y-94.742
X239.522Y-129.286
X239.903Y-92.075
X239.903Y-94.742
X241.554Y-92.075
X241.554Y-94.742
X247.015Y-98.679
X247.777Y-88.011
X251.079Y-106.807
X253.492Y-107.696
X254.508Y-140.105
X256.286Y-106.68
X256.54Y-99.314
X256.667Y-103.886
X256.921Y-94.742
X257.175Y-140.105
X258.445Y-101.727
X258.699Y-96.901
X259.715Y-140.105
X260.35Y-103.886
X260.477Y-99.441
X260.731Y-94.742
X262.509Y-96.901
X262.636Y-101.854
X264.033Y-94.742
X264.287Y-103.886
X264.414Y-99.314
X265.938Y-108.458
X269.947Y-129.924
X271.018Y-129.924
X279.0Y-133.0
X281.94Y-96.266
X283.083Y-104.267
X283.718Y-90.297
X285.496Y-106.045
X285.496Y-109.22
X285.623Y-90.297
X286.113Y-98.661
X287.274Y-96.266
X291.338Y-141.732
X293.878Y-127.508
X296.164Y-127.508
T2
X101.756Y-112.722
X101.802Y-137.025
X102.463Y-111.016
X102.463Y-114.428
X102.476Y-135.305
X102.541Y-138.717
X104.169Y-110.309
X104.169Y-115.135
X104.169Y-134.566
X104.261Y-139.392
X105.875Y-111.016
X105.875Y-114.428
X105.889Y-135.24
X105.953Y-138.653
X106.582Y-112.722
X106.628Y-136.933
X162.462Y-117.167
X162.462Y-132.661
X163.169Y-115.461
X163.169Y-118.873
X163.169Y-130.955
X163.169Y-134.367
X164.875Y-114.754
X164.875Y-119.58
X164.875Y-130.248
X164.875Y-135.074
X166.581Y-115.461
X166.581Y-118.873
X166.581Y-130.955
X166.581Y-134.367
X167.288Y-117.167
X167.288Y-132.661
T3
X202.574Y-150.828
X202.574Y-158.448
X202.724Y-139.144
X202.724Y-146.764
X210.194Y-150.828
X210.194Y-158.448
X210.344Y-139.144
X210.344Y-146.764
X215.274Y-150.828
X215.274Y-158.448
X215.424Y-139.144
X215.424Y-146.764
X220.354Y-150.828
X220.354Y-158.448
X220.504Y-139.144
X220.504Y-146.764
T4
X78.95Y-172.25
X85.7Y-81.25
X104.35Y-172.25
X111.1Y-81.25
T5
X245.618Y-113.03
X245.618Y-135.89
X245.618Y-144.272
X245.618Y-167.132
X248.158Y-113.03
X248.158Y-135.89
X248.158Y-144.272
X248.158Y-167.132
X250.698Y-113.03
X250.698Y-135.89
X250.698Y-144.272
X250.698Y-167.132
X253.238Y-113.03
X253.238Y-135.89
X253.238Y-144.272
X253.238Y-167.132
X255.778Y-113.03
X255.778Y-135.89
X255.778Y-144.272
X255.778Y-167.132
X258.318Y-113.03
X258.318Y-135.89
X258.318Y-144.272
X258.318Y-167.132
X260.858Y-113.03
X260.858Y-135.89
X260.858Y-144.272
X260.858Y-167.132
X263.398Y-113.03
X263.398Y-135.89
X263.398Y-144.272
X263.398Y-167.132
X265.938Y-113.03
X265.938Y-135.89
X265.938Y-144.272
X265.938Y-167.132
X268.478Y-113.03
X268.478Y-135.89
X268.478Y-144.272
X268.478Y-167.132
X271.018Y-113.03
X271.018Y-135.89
X271.018Y-144.272
X271.018Y-167.132
X273.558Y-113.03
X273.558Y-135.89
X273.558Y-144.272
X273.558Y-167.132
X276.098Y-113.03
X276.098Y-135.89
X276.098Y-144.272
X276.098Y-167.132
X278.638Y-113.03
X278.638Y-135.89
X278.638Y-144.272
X278.638Y-167.132
X281.178Y-113.03
X281.178Y-135.89
X281.178Y-144.272
X281.178Y-167.132
X283.718Y-113.03
X283.718Y-135.89
X283.718Y-144.272
X283.718Y-167.132
X286.258Y-113.03
X286.258Y-135.89
X286.258Y-144.272
X286.258Y-167.132
X288.798Y-113.03
X288.798Y-135.89
X288.798Y-144.272
X288.798Y-167.132
X291.338Y-113.03
X291.338Y-135.89
X291.338Y-144.272
X291.338Y-167.132
X293.875Y-135.894
X293.875Y-167.136
X293.878Y-113.03
X293.878Y-144.272
X296.415Y-135.894
X296.415Y-167.136
X296.418Y-113.03
X296.418Y-144.272
X298.955Y-135.894
X298.955Y-167.136
X298.958Y-113.03
X298.958Y-144.272
T6
X105.185Y-121.739
X105.185Y-124.279
X105.185Y-126.819
X176.672Y-107.076
X181.61Y-125.028
X181.61Y-132.528
X181.976Y-112.38
X226.568Y-141.518
X226.568Y-144.018
X226.704Y-153.703
X226.704Y-156.203
X239.404Y-74.624
X239.404Y-82.244
X239.404Y-84.784
X244.484Y-74.624
X244.484Y-82.244
X244.484Y-84.784
T7
X199.346Y-123.898
X209.506Y-123.898
T8
X80.01Y-116.112
X80.01Y-131.112
X83.566Y-152.094
X91.186Y-116.112
X91.186Y-131.112
X98.806Y-152.094
T9
X67.236Y-107.644
X67.49Y-139.648
X89.736Y-107.644
X89.99Y-139.648
X222.608Y-78.233
X222.608Y-90.483
X228.608Y-92.483
X234.608Y-90.483
X234.66Y-78.233
T10
X170.104Y-67.818
X174.244Y-67.818
X282.842Y-82.168
X286.982Y-82.168
T11
X175.28Y-82.244
X175.418Y-91.388
X180.73Y-82.244
X180.868Y-91.388
X186.18Y-82.244
X186.318Y-91.388
T12
X169.99Y-174.622
X169.99Y-182.622
X171.99Y-178.622
X173.99Y-174.622
X173.99Y-182.622
X175.99Y-178.622
X177.99Y-174.622
X177.99Y-182.622
X197.21Y-64.242
X197.21Y-72.242
X199.21Y-68.242
X201.21Y-64.242
X201.21Y-72.242
X203.21Y-68.242
X205.21Y-64.242
X205.21Y-72.242
X207.21Y-68.242
X209.21Y-64.242
X209.21Y-72.242
X211.21Y-68.242
X212.5Y-174.5
X212.5Y-182.5
X213.21Y-64.242
X213.21Y-72.242
X214.5Y-178.5
X216.5Y-174.5
X216.5Y-182.5
X218.5Y-178.5
X220.5Y-174.5
X220.5Y-182.5
X222.5Y-178.5
X224.5Y-174.5
X224.5Y-182.5
X226.5Y-178.5
X228.5Y-174.5
X228.5Y-182.5
X262.446Y-175.569
X262.446Y-183.569
X264.446Y-179.569
X266.446Y-175.569
X266.446Y-183.569
X268.446Y-179.569
X269.854Y-64.826
X269.854Y-72.826
X270.446Y-175.569
X270.446Y-183.569
X271.854Y-68.826
X272.446Y-179.569
X273.854Y-64.826
X273.854Y-72.826
X274.446Y-175.569
X274.446Y-183.569
X275.854Y-68.826
X276.446Y-179.569
X277.854Y-64.826
X277.854Y-72.826
X278.446Y-175.569
X278.446Y-183.569
X279.854Y-68.826
X280.446Y-179.569
X281.854Y-64.826
X281.854Y-72.826
X282.446Y-175.569
X282.446Y-183.569
X283.854Y-68.826
X284.446Y-179.569
X285.854Y-64.826
X285.854Y-72.826
X286.446Y-175.569
X286.446Y-183.569
X288.446Y-179.569
X290.446Y-175.569
X290.446Y-183.569
T13
X177.956Y-154.418
X177.956Y-164.338
X181.356Y-154.418
X181.356Y-164.338
X186.338Y-154.418
X186.338Y-164.338
X189.738Y-154.418
X189.738Y-164.338
X195.368Y-81.856
X195.368Y-91.776
X198.768Y-81.856
X198.768Y-91.776
X204.389Y-81.856
X204.389Y-91.776
X207.789Y-81.856
X207.789Y-91.776
X213.411Y-81.856
X213.411Y-91.776
X216.811Y-81.856
X216.811Y-91.776
X223.062Y-114.15
X223.062Y-117.55
X223.132Y-122.506
X223.132Y-125.906
X223.266Y-98.324
X223.266Y-101.724
X223.266Y-106.198
X223.266Y-109.598
X232.982Y-114.15
X232.982Y-117.55
X233.052Y-122.506
X233.052Y-125.906
X233.186Y-98.324
X233.186Y-101.724
X233.186Y-106.198
X233.186Y-109.598
T14
X68.58Y-93.016
X68.58Y-96.976
X68.834Y-150.57
X68.834Y-154.53
X125.222Y-93.42
X127.0Y-174.954
X154.484Y-167.664
T16
X104.169Y-112.722
X104.215Y-136.979
X164.875Y-117.167
X164.875Y-132.661
T13
G00X194.566Y-111.113
M15
G01X194.566Y-112.663
M16
G05
T15
G00X212.291Y-108.458
M15
G01X214.341Y-108.458
M16
G05
M30
