G04 #@! TF.GenerationSoftware,KiCad,Pcbnew,8.0.5*
G04 #@! TF.CreationDate,2025-04-14T13:42:12-04:00*
G04 #@! TF.ProjectId,Big Daddy,42696720-4461-4646-9479-2e6b69636164,rev?*
G04 #@! TF.SameCoordinates,Original*
G04 #@! TF.FileFunction,Paste,Top*
G04 #@! TF.FilePolarity,Positive*
%FSLAX46Y46*%
G04 Gerber Fmt 4.6, Leading zero omitted, Abs format (unit mm)*
G04 Created by KiCad (PCBNEW 8.0.5) date 2025-04-14 13:42:12*
%MOMM*%
%LPD*%
G01*
G04 APERTURE LIST*
G04 Aperture macros list*
%AMRoundRect*
0 Rectangle with rounded corners*
0 $1 Rounding radius*
0 $2 $3 $4 $5 $6 $7 $8 $9 X,Y pos of 4 corners*
0 Add a 4 corners polygon primitive as box body*
4,1,4,$2,$3,$4,$5,$6,$7,$8,$9,$2,$3,0*
0 Add four circle primitives for the rounded corners*
1,1,$1+$1,$2,$3*
1,1,$1+$1,$4,$5*
1,1,$1+$1,$6,$7*
1,1,$1+$1,$8,$9*
0 Add four rect primitives between the rounded corners*
20,1,$1+$1,$2,$3,$4,$5,0*
20,1,$1+$1,$4,$5,$6,$7,0*
20,1,$1+$1,$6,$7,$8,$9,0*
20,1,$1+$1,$8,$9,$2,$3,0*%
%AMFreePoly0*
4,1,13,0.900000,0.500000,2.600000,0.500000,2.600000,-0.500000,0.900000,-0.500000,0.400000,-1.000000,-0.400000,-1.000000,-0.900000,-0.500000,-2.600000,-0.500000,-2.600000,0.500000,-0.900000,0.500000,-0.400000,1.000000,0.400000,1.000000,0.900000,0.500000,0.900000,0.500000,$1*%
G04 Aperture macros list end*
%ADD10RoundRect,0.237500X-0.287500X-0.237500X0.287500X-0.237500X0.287500X0.237500X-0.287500X0.237500X0*%
%ADD11RoundRect,0.237500X0.300000X0.237500X-0.300000X0.237500X-0.300000X-0.237500X0.300000X-0.237500X0*%
%ADD12RoundRect,0.225000X-0.225000X-0.375000X0.225000X-0.375000X0.225000X0.375000X-0.225000X0.375000X0*%
%ADD13RoundRect,0.237500X-0.300000X-0.237500X0.300000X-0.237500X0.300000X0.237500X-0.300000X0.237500X0*%
%ADD14RoundRect,0.250000X1.000000X0.650000X-1.000000X0.650000X-1.000000X-0.650000X1.000000X-0.650000X0*%
%ADD15RoundRect,0.250001X-0.849999X0.462499X-0.849999X-0.462499X0.849999X-0.462499X0.849999X0.462499X0*%
%ADD16RoundRect,0.237500X-0.237500X0.250000X-0.237500X-0.250000X0.237500X-0.250000X0.237500X0.250000X0*%
%ADD17RoundRect,0.041300X0.253700X-0.943700X0.253700X0.943700X-0.253700X0.943700X-0.253700X-0.943700X0*%
%ADD18RoundRect,0.237500X-0.250000X-0.237500X0.250000X-0.237500X0.250000X0.237500X-0.250000X0.237500X0*%
%ADD19R,1.500000X0.700000*%
%ADD20FreePoly0,0.000000*%
%ADD21RoundRect,0.150000X0.150000X-0.587500X0.150000X0.587500X-0.150000X0.587500X-0.150000X-0.587500X0*%
%ADD22RoundRect,0.150000X-0.825000X-0.150000X0.825000X-0.150000X0.825000X0.150000X-0.825000X0.150000X0*%
%ADD23RoundRect,0.237500X0.237500X-0.300000X0.237500X0.300000X-0.237500X0.300000X-0.237500X-0.300000X0*%
%ADD24RoundRect,0.237500X0.237500X-0.250000X0.237500X0.250000X-0.237500X0.250000X-0.237500X-0.250000X0*%
%ADD25RoundRect,0.225000X0.375000X-0.225000X0.375000X0.225000X-0.375000X0.225000X-0.375000X-0.225000X0*%
%ADD26RoundRect,0.237500X-0.237500X0.300000X-0.237500X-0.300000X0.237500X-0.300000X0.237500X0.300000X0*%
%ADD27RoundRect,0.225000X-0.375000X0.225000X-0.375000X-0.225000X0.375000X-0.225000X0.375000X0.225000X0*%
%ADD28RoundRect,0.250000X-1.000000X-0.650000X1.000000X-0.650000X1.000000X0.650000X-1.000000X0.650000X0*%
%ADD29RoundRect,0.225000X0.225000X0.375000X-0.225000X0.375000X-0.225000X-0.375000X0.225000X-0.375000X0*%
%ADD30RoundRect,0.249999X1.425001X-0.450001X1.425001X0.450001X-1.425001X0.450001X-1.425001X-0.450001X0*%
G04 APERTURE END LIST*
D10*
G04 #@! TO.C,L1*
X163899000Y-144936500D03*
X165649000Y-144936500D03*
G04 #@! TD*
D11*
G04 #@! TO.C,C1*
X285469500Y-103378000D03*
X283744500Y-103378000D03*
G04 #@! TD*
D12*
G04 #@! TO.C,D8*
X243460000Y-88011000D03*
X246760000Y-88011000D03*
G04 #@! TD*
D13*
G04 #@! TO.C,C11*
X157025000Y-158224000D03*
X158750000Y-158224000D03*
G04 #@! TD*
D11*
G04 #@! TO.C,C2*
X285469500Y-105156000D03*
X283744500Y-105156000D03*
G04 #@! TD*
D14*
G04 #@! TO.C,D11*
X174974000Y-98044000D03*
X170974000Y-98044000D03*
G04 #@! TD*
D15*
G04 #@! TO.C,L2*
X97536000Y-100239000D03*
X97536000Y-102564000D03*
G04 #@! TD*
D16*
G04 #@! TO.C,R30*
X172648000Y-152914000D03*
X172648000Y-154739000D03*
G04 #@! TD*
D17*
G04 #@! TO.C,U1*
X282702000Y-101204900D03*
X283972000Y-101204900D03*
X285242000Y-101204900D03*
X286512000Y-101204900D03*
X286512000Y-96254900D03*
X285242000Y-96254900D03*
X283972000Y-96254900D03*
X282702000Y-96254900D03*
G04 #@! TD*
D18*
G04 #@! TO.C,R27*
X152099000Y-161470500D03*
X153924000Y-161470500D03*
G04 #@! TD*
D19*
G04 #@! TO.C,U7*
X162670000Y-151310500D03*
D20*
X164520000Y-152810500D03*
D19*
X162670000Y-154310500D03*
X166370000Y-154310500D03*
X166370000Y-151310500D03*
G04 #@! TD*
D21*
G04 #@! TO.C,D1*
X283898000Y-88439500D03*
X285798000Y-88439500D03*
X284848000Y-86564500D03*
G04 #@! TD*
D18*
G04 #@! TO.C,R10*
X282007000Y-93726000D03*
X283832000Y-93726000D03*
G04 #@! TD*
D11*
G04 #@! TO.C,C10*
X152654000Y-153596500D03*
X150929000Y-153596500D03*
G04 #@! TD*
D22*
G04 #@! TO.C,U6*
X149417000Y-155501500D03*
X149417000Y-156771500D03*
X149417000Y-158041500D03*
X149417000Y-159311500D03*
X154367000Y-159311500D03*
X154367000Y-158041500D03*
X154367000Y-156771500D03*
X154367000Y-155501500D03*
G04 #@! TD*
D23*
G04 #@! TO.C,C12*
X168838000Y-153165000D03*
X168838000Y-151440000D03*
G04 #@! TD*
D24*
G04 #@! TO.C,R29*
X163322000Y-159231500D03*
X163322000Y-157406500D03*
G04 #@! TD*
D23*
G04 #@! TO.C,C3*
X284734000Y-92021000D03*
X284734000Y-90296000D03*
G04 #@! TD*
D13*
G04 #@! TO.C,C9*
X157025000Y-160050000D03*
X158750000Y-160050000D03*
G04 #@! TD*
D18*
G04 #@! TO.C,R9*
X283821500Y-110109000D03*
X285646500Y-110109000D03*
G04 #@! TD*
D23*
G04 #@! TO.C,C13*
X170616000Y-153165000D03*
X170616000Y-151440000D03*
G04 #@! TD*
D25*
G04 #@! TO.C,D6*
X198120000Y-156336000D03*
X198120000Y-153036000D03*
G04 #@! TD*
D26*
G04 #@! TO.C,C8*
X210702000Y-79603500D03*
X210702000Y-81328500D03*
G04 #@! TD*
D18*
G04 #@! TO.C,R11*
X285610000Y-93726000D03*
X287435000Y-93726000D03*
G04 #@! TD*
D27*
G04 #@! TO.C,D5*
X198120000Y-141050500D03*
X198120000Y-144350500D03*
G04 #@! TD*
D24*
G04 #@! TO.C,R25*
X146812000Y-157961500D03*
X146812000Y-156136500D03*
G04 #@! TD*
D28*
G04 #@! TO.C,D10*
X187810000Y-77396500D03*
X183810000Y-77396500D03*
G04 #@! TD*
D29*
G04 #@! TO.C,D9*
X166170000Y-147222500D03*
X162870000Y-147222500D03*
G04 #@! TD*
D30*
G04 #@! TO.C,R35*
X101092000Y-104344000D03*
X101092000Y-98244000D03*
G04 #@! TD*
D24*
G04 #@! TO.C,R26*
X156972000Y-156390500D03*
X156972000Y-154565500D03*
G04 #@! TD*
M02*
