G04 #@! TF.GenerationSoftware,KiCad,Pcbnew,8.0.5*
G04 #@! TF.CreationDate,2025-04-14T13:42:12-04:00*
G04 #@! TF.ProjectId,Big Daddy,42696720-4461-4646-9479-2e6b69636164,rev?*
G04 #@! TF.SameCoordinates,Original*
G04 #@! TF.FileFunction,Paste,Bot*
G04 #@! TF.FilePolarity,Positive*
%FSLAX46Y46*%
G04 Gerber Fmt 4.6, Leading zero omitted, Abs format (unit mm)*
G04 Created by KiCad (PCBNEW 8.0.5) date 2025-04-14 13:42:12*
%MOMM*%
%LPD*%
G01*
G04 APERTURE LIST*
G04 Aperture macros list*
%AMRoundRect*
0 Rectangle with rounded corners*
0 $1 Rounding radius*
0 $2 $3 $4 $5 $6 $7 $8 $9 X,Y pos of 4 corners*
0 Add a 4 corners polygon primitive as box body*
4,1,4,$2,$3,$4,$5,$6,$7,$8,$9,$2,$3,0*
0 Add four circle primitives for the rounded corners*
1,1,$1+$1,$2,$3*
1,1,$1+$1,$4,$5*
1,1,$1+$1,$6,$7*
1,1,$1+$1,$8,$9*
0 Add four rect primitives between the rounded corners*
20,1,$1+$1,$2,$3,$4,$5,0*
20,1,$1+$1,$4,$5,$6,$7,0*
20,1,$1+$1,$6,$7,$8,$9,0*
20,1,$1+$1,$8,$9,$2,$3,0*%
G04 Aperture macros list end*
%ADD10RoundRect,0.237500X-0.237500X0.250000X-0.237500X-0.250000X0.237500X-0.250000X0.237500X0.250000X0*%
%ADD11RoundRect,0.237500X-0.300000X-0.237500X0.300000X-0.237500X0.300000X0.237500X-0.300000X0.237500X0*%
%ADD12RoundRect,0.237500X0.250000X0.237500X-0.250000X0.237500X-0.250000X-0.237500X0.250000X-0.237500X0*%
%ADD13R,2.000000X1.780000*%
%ADD14RoundRect,0.237500X-0.237500X0.287500X-0.237500X-0.287500X0.237500X-0.287500X0.237500X0.287500X0*%
%ADD15RoundRect,0.150000X0.150000X-0.512500X0.150000X0.512500X-0.150000X0.512500X-0.150000X-0.512500X0*%
%ADD16RoundRect,0.237500X0.287500X0.237500X-0.287500X0.237500X-0.287500X-0.237500X0.287500X-0.237500X0*%
%ADD17RoundRect,0.237500X0.237500X-0.250000X0.237500X0.250000X-0.237500X0.250000X-0.237500X-0.250000X0*%
%ADD18RoundRect,0.225000X0.225000X0.375000X-0.225000X0.375000X-0.225000X-0.375000X0.225000X-0.375000X0*%
%ADD19RoundRect,0.237500X-0.237500X0.300000X-0.237500X-0.300000X0.237500X-0.300000X0.237500X0.300000X0*%
%ADD20RoundRect,0.250000X2.050000X0.300000X-2.050000X0.300000X-2.050000X-0.300000X2.050000X-0.300000X0*%
%ADD21RoundRect,0.250000X2.025000X2.375000X-2.025000X2.375000X-2.025000X-2.375000X2.025000X-2.375000X0*%
%ADD22RoundRect,0.249999X-1.425001X0.450001X-1.425001X-0.450001X1.425001X-0.450001X1.425001X0.450001X0*%
%ADD23RoundRect,0.150000X0.587500X0.150000X-0.587500X0.150000X-0.587500X-0.150000X0.587500X-0.150000X0*%
%ADD24RoundRect,0.250000X0.350000X0.450000X-0.350000X0.450000X-0.350000X-0.450000X0.350000X-0.450000X0*%
%ADD25RoundRect,0.250000X0.450000X-0.325000X0.450000X0.325000X-0.450000X0.325000X-0.450000X-0.325000X0*%
%ADD26R,2.000000X1.500000*%
%ADD27R,2.000000X3.800000*%
%ADD28R,2.286000X1.067000*%
%ADD29R,8.890000X10.668000*%
%ADD30RoundRect,0.237500X0.237500X-0.300000X0.237500X0.300000X-0.237500X0.300000X-0.237500X-0.300000X0*%
%ADD31RoundRect,0.250000X0.625000X-0.400000X0.625000X0.400000X-0.625000X0.400000X-0.625000X-0.400000X0*%
%ADD32RoundRect,0.150000X-0.587500X-0.150000X0.587500X-0.150000X0.587500X0.150000X-0.587500X0.150000X0*%
%ADD33R,1.200000X1.200000*%
%ADD34R,1.600000X1.500000*%
%ADD35R,1.200000X0.800000*%
G04 APERTURE END LIST*
D10*
G04 #@! TO.C,R8*
X291338000Y-138914500D03*
X291338000Y-140739500D03*
G04 #@! TD*
D11*
G04 #@! TO.C,C18*
X186457000Y-87056000D03*
X188182000Y-87056000D03*
G04 #@! TD*
D12*
G04 #@! TO.C,R18*
X219145500Y-144496000D03*
X217320500Y-144496000D03*
G04 #@! TD*
D13*
G04 #@! TO.C,U5*
X129916000Y-155904000D03*
X129916000Y-153364000D03*
X139446000Y-153364000D03*
X139446000Y-155904000D03*
G04 #@! TD*
D14*
G04 #@! TO.C,D3*
X248158000Y-96915000D03*
X248158000Y-98665000D03*
G04 #@! TD*
D12*
G04 #@! TO.C,R36*
X102004500Y-121614000D03*
X100179500Y-121614000D03*
G04 #@! TD*
D15*
G04 #@! TO.C,U12*
X181290000Y-99181500D03*
X180340000Y-99181500D03*
X179390000Y-99181500D03*
X179390000Y-96906500D03*
X180340000Y-96906500D03*
X181290000Y-96906500D03*
G04 #@! TD*
G04 #@! TO.C,U11*
X183576000Y-85730500D03*
X182626000Y-85730500D03*
X181676000Y-85730500D03*
X181676000Y-88005500D03*
X182626000Y-88005500D03*
X183576000Y-88005500D03*
G04 #@! TD*
D11*
G04 #@! TO.C,C4*
X253746000Y-91948000D03*
X255471000Y-91948000D03*
G04 #@! TD*
D16*
G04 #@! TO.C,D4*
X249886200Y-106783500D03*
X248136200Y-106783500D03*
G04 #@! TD*
D17*
G04 #@! TO.C,R43*
X164338000Y-85060000D03*
X164338000Y-83235000D03*
G04 #@! TD*
D18*
G04 #@! TO.C,D2*
X206098600Y-124058600D03*
X202798600Y-124058600D03*
G04 #@! TD*
D10*
G04 #@! TO.C,R5*
X281305000Y-129874000D03*
X281305000Y-131699000D03*
G04 #@! TD*
G04 #@! TO.C,R6*
X283845000Y-129874000D03*
X283845000Y-131699000D03*
G04 #@! TD*
D19*
G04 #@! TO.C,C7*
X241808000Y-78740000D03*
X241808000Y-80465000D03*
G04 #@! TD*
D20*
G04 #@! TO.C,U14*
X160461000Y-85598000D03*
D21*
X153736000Y-90913000D03*
X153736000Y-85363000D03*
X148886000Y-90913000D03*
X148886000Y-85363000D03*
D20*
X160461000Y-90678000D03*
G04 #@! TD*
D12*
G04 #@! TO.C,R23*
X210208500Y-156210000D03*
X208383500Y-156210000D03*
G04 #@! TD*
D17*
G04 #@! TO.C,R15*
X294022900Y-130391500D03*
X294022900Y-128566500D03*
G04 #@! TD*
D10*
G04 #@! TO.C,R4*
X260985000Y-138279500D03*
X260985000Y-140104500D03*
G04 #@! TD*
G04 #@! TO.C,R2*
X255735700Y-138279500D03*
X255735700Y-140104500D03*
G04 #@! TD*
G04 #@! TO.C,R3*
X258360300Y-138279500D03*
X258360300Y-140104500D03*
G04 #@! TD*
D13*
G04 #@! TO.C,U9*
X139446000Y-120598000D03*
X139446000Y-123138000D03*
X129916000Y-123138000D03*
X129916000Y-120598000D03*
G04 #@! TD*
D22*
G04 #@! TO.C,R40*
X187198000Y-118290500D03*
X187198000Y-124390500D03*
G04 #@! TD*
D17*
G04 #@! TO.C,R13*
X265938000Y-110259500D03*
X265938000Y-108434500D03*
G04 #@! TD*
G04 #@! TO.C,R42*
X164338000Y-88766500D03*
X164338000Y-86941500D03*
G04 #@! TD*
D11*
G04 #@! TO.C,C5*
X253492000Y-106680000D03*
X255217000Y-106680000D03*
G04 #@! TD*
D23*
G04 #@! TO.C,Q6*
X169672000Y-85192000D03*
X169672000Y-87092000D03*
X167797000Y-86142000D03*
G04 #@! TD*
D10*
G04 #@! TO.C,R1*
X253111000Y-138279500D03*
X253111000Y-140104500D03*
G04 #@! TD*
D24*
G04 #@! TO.C,R34*
X162290000Y-79726000D03*
X160290000Y-79726000D03*
G04 #@! TD*
D12*
G04 #@! TO.C,R38*
X147828000Y-120650000D03*
X146003000Y-120650000D03*
G04 #@! TD*
G04 #@! TO.C,R20*
X206041000Y-144496000D03*
X204216000Y-144496000D03*
G04 #@! TD*
D19*
G04 #@! TO.C,C19*
X184028500Y-97181500D03*
X184028500Y-98906500D03*
G04 #@! TD*
D25*
G04 #@! TO.C,L3*
X181102000Y-122871500D03*
X181102000Y-120821500D03*
G04 #@! TD*
D19*
G04 #@! TO.C,C6*
X222512000Y-83921500D03*
X222512000Y-85646500D03*
G04 #@! TD*
D26*
G04 #@! TO.C,Q2*
X158902000Y-159452500D03*
X158902000Y-157152500D03*
X158902000Y-154852500D03*
D27*
X165202000Y-157152500D03*
G04 #@! TD*
D12*
G04 #@! TO.C,R22*
X215288500Y-156240000D03*
X213463500Y-156240000D03*
G04 #@! TD*
D10*
G04 #@! TO.C,R17*
X248158000Y-103077000D03*
X248158000Y-104902000D03*
G04 #@! TD*
D28*
G04 #@! TO.C,U4*
X251587000Y-102718000D03*
X251587000Y-101016000D03*
X251587000Y-99314000D03*
D29*
X260350000Y-99314000D03*
D28*
X251587000Y-97612000D03*
X251587000Y-95910000D03*
G04 #@! TD*
D18*
G04 #@! TO.C,D7*
X230004000Y-88848000D03*
X226704000Y-88848000D03*
G04 #@! TD*
D12*
G04 #@! TO.C,R19*
X209851000Y-144526000D03*
X208026000Y-144526000D03*
G04 #@! TD*
D30*
G04 #@! TO.C,C20*
X164338000Y-92376000D03*
X164338000Y-90651000D03*
G04 #@! TD*
D12*
G04 #@! TO.C,R37*
X129601000Y-129996000D03*
X127776000Y-129996000D03*
G04 #@! TD*
D31*
G04 #@! TO.C,R31*
X156210000Y-160480500D03*
X156210000Y-157380500D03*
G04 #@! TD*
D12*
G04 #@! TO.C,R28*
X160321000Y-161724500D03*
X158496000Y-161724500D03*
G04 #@! TD*
D10*
G04 #@! TO.C,R7*
X286385000Y-129874000D03*
X286385000Y-131699000D03*
G04 #@! TD*
D12*
G04 #@! TO.C,R21*
X218844500Y-156210000D03*
X217019500Y-156210000D03*
G04 #@! TD*
D17*
G04 #@! TO.C,R12*
X268478000Y-110259500D03*
X268478000Y-108434500D03*
G04 #@! TD*
D32*
G04 #@! TO.C,Q1*
X296418000Y-130175000D03*
X296418000Y-128275000D03*
X298293000Y-129225000D03*
G04 #@! TD*
D33*
G04 #@! TO.C,RV1*
X96758000Y-128494000D03*
D34*
X95758000Y-125244000D03*
D33*
X94758000Y-128494000D03*
G04 #@! TD*
D10*
G04 #@! TO.C,R41*
X171450000Y-85163500D03*
X171450000Y-86988500D03*
G04 #@! TD*
D12*
G04 #@! TO.C,R39*
X151788500Y-120589000D03*
X149963500Y-120589000D03*
G04 #@! TD*
D35*
G04 #@! TO.C,U10*
X131531000Y-129996000D03*
X131531000Y-127456000D03*
X137831000Y-127456000D03*
X137831000Y-129996000D03*
G04 #@! TD*
M02*
