G04 #@! TF.GenerationSoftware,KiCad,Pcbnew,8.0.5*
G04 #@! TF.CreationDate,2025-04-14T13:42:12-04:00*
G04 #@! TF.ProjectId,Big Daddy,42696720-4461-4646-9479-2e6b69636164,rev?*
G04 #@! TF.SameCoordinates,Original*
G04 #@! TF.FileFunction,Soldermask,Top*
G04 #@! TF.FilePolarity,Negative*
%FSLAX46Y46*%
G04 Gerber Fmt 4.6, Leading zero omitted, Abs format (unit mm)*
G04 Created by KiCad (PCBNEW 8.0.5) date 2025-04-14 13:42:12*
%MOMM*%
%LPD*%
G01*
G04 APERTURE LIST*
G04 Aperture macros list*
%AMRoundRect*
0 Rectangle with rounded corners*
0 $1 Rounding radius*
0 $2 $3 $4 $5 $6 $7 $8 $9 X,Y pos of 4 corners*
0 Add a 4 corners polygon primitive as box body*
4,1,4,$2,$3,$4,$5,$6,$7,$8,$9,$2,$3,0*
0 Add four circle primitives for the rounded corners*
1,1,$1+$1,$2,$3*
1,1,$1+$1,$4,$5*
1,1,$1+$1,$6,$7*
1,1,$1+$1,$8,$9*
0 Add four rect primitives between the rounded corners*
20,1,$1+$1,$2,$3,$4,$5,0*
20,1,$1+$1,$4,$5,$6,$7,0*
20,1,$1+$1,$6,$7,$8,$9,0*
20,1,$1+$1,$8,$9,$2,$3,0*%
%AMFreePoly0*
4,1,13,0.900000,0.500000,2.600000,0.500000,2.600000,-0.500000,0.900000,-0.500000,0.400000,-1.000000,-0.400000,-1.000000,-0.900000,-0.500000,-2.600000,-0.500000,-2.600000,0.500000,-0.900000,0.500000,-0.400000,1.000000,0.400000,1.000000,0.900000,0.500000,0.900000,0.500000,$1*%
G04 Aperture macros list end*
%ADD10C,2.850000*%
%ADD11R,2.625000X2.625000*%
%ADD12C,2.625000*%
%ADD13R,1.200000X2.000000*%
%ADD14O,1.200000X2.000000*%
%ADD15RoundRect,0.237500X-0.287500X-0.237500X0.287500X-0.237500X0.287500X0.237500X-0.287500X0.237500X0*%
%ADD16C,1.600000*%
%ADD17RoundRect,0.250000X1.150000X-0.980000X1.150000X0.980000X-1.150000X0.980000X-1.150000X-0.980000X0*%
%ADD18RoundRect,0.237500X0.300000X0.237500X-0.300000X0.237500X-0.300000X-0.237500X0.300000X-0.237500X0*%
%ADD19RoundRect,0.225000X-0.225000X-0.375000X0.225000X-0.375000X0.225000X0.375000X-0.225000X0.375000X0*%
%ADD20RoundRect,0.237500X-0.300000X-0.237500X0.300000X-0.237500X0.300000X0.237500X-0.300000X0.237500X0*%
%ADD21C,2.780000*%
%ADD22RoundRect,0.250000X1.000000X0.650000X-1.000000X0.650000X-1.000000X-0.650000X1.000000X-0.650000X0*%
%ADD23R,2.500000X4.500000*%
%ADD24O,2.500000X4.500000*%
%ADD25RoundRect,0.250001X-0.849999X0.462499X-0.849999X-0.462499X0.849999X-0.462499X0.849999X0.462499X0*%
%ADD26R,1.400000X1.400000*%
%ADD27C,1.400000*%
%ADD28C,2.000000*%
%ADD29RoundRect,0.237500X-0.237500X0.250000X-0.237500X-0.250000X0.237500X-0.250000X0.237500X0.250000X0*%
%ADD30RoundRect,0.250000X-1.150000X0.980000X-1.150000X-0.980000X1.150000X-0.980000X1.150000X0.980000X0*%
%ADD31O,2.800000X2.460000*%
%ADD32RoundRect,0.041300X0.253700X-0.943700X0.253700X0.943700X-0.253700X0.943700X-0.253700X-0.943700X0*%
%ADD33C,0.800000*%
%ADD34C,6.400000*%
%ADD35C,1.699848*%
%ADD36RoundRect,0.237500X-0.250000X-0.237500X0.250000X-0.237500X0.250000X0.237500X-0.250000X0.237500X0*%
%ADD37RoundRect,0.250000X0.980000X1.150000X-0.980000X1.150000X-0.980000X-1.150000X0.980000X-1.150000X0*%
%ADD38R,1.500000X0.700000*%
%ADD39FreePoly0,0.000000*%
%ADD40RoundRect,0.150000X0.150000X-0.587500X0.150000X0.587500X-0.150000X0.587500X-0.150000X-0.587500X0*%
%ADD41RoundRect,0.150000X-0.825000X-0.150000X0.825000X-0.150000X0.825000X0.150000X-0.825000X0.150000X0*%
%ADD42RoundRect,0.237500X0.237500X-0.300000X0.237500X0.300000X-0.237500X0.300000X-0.237500X-0.300000X0*%
%ADD43C,3.180000*%
%ADD44RoundRect,0.250000X-1.070000X1.400000X-1.070000X-1.400000X1.070000X-1.400000X1.070000X1.400000X0*%
%ADD45O,2.640000X3.300000*%
%ADD46RoundRect,0.237500X0.237500X-0.250000X0.237500X0.250000X-0.237500X0.250000X-0.237500X-0.250000X0*%
%ADD47RoundRect,0.250000X-0.980000X-1.150000X0.980000X-1.150000X0.980000X1.150000X-0.980000X1.150000X0*%
%ADD48C,2.400000*%
%ADD49C,1.524000*%
%ADD50R,2.000000X2.000000*%
%ADD51RoundRect,0.225000X0.375000X-0.225000X0.375000X0.225000X-0.375000X0.225000X-0.375000X-0.225000X0*%
%ADD52O,2.400000X2.400000*%
%ADD53C,2.700000*%
%ADD54C,3.000000*%
%ADD55RoundRect,0.237500X-0.237500X0.300000X-0.237500X-0.300000X0.237500X-0.300000X0.237500X0.300000X0*%
%ADD56C,1.200000*%
%ADD57RoundRect,0.250000X0.750000X-0.600000X0.750000X0.600000X-0.750000X0.600000X-0.750000X-0.600000X0*%
%ADD58O,2.000000X1.700000*%
%ADD59RoundRect,0.225000X-0.375000X0.225000X-0.375000X-0.225000X0.375000X-0.225000X0.375000X0.225000X0*%
%ADD60RoundRect,0.250000X-1.000000X-0.650000X1.000000X-0.650000X1.000000X0.650000X-1.000000X0.650000X0*%
%ADD61RoundRect,0.225000X0.225000X0.375000X-0.225000X0.375000X-0.225000X-0.375000X0.225000X-0.375000X0*%
%ADD62RoundRect,0.249999X1.425001X-0.450001X1.425001X0.450001X-1.425001X0.450001X-1.425001X-0.450001X0*%
%ADD63C,1.635000*%
%ADD64O,2.670000X5.340000*%
%ADD65O,5.850000X2.925000*%
G04 APERTURE END LIST*
D10*
G04 #@! TO.C,J13*
X206000000Y-179000000D03*
X235000000Y-179000000D03*
D11*
X212500000Y-174500000D03*
D12*
X216500000Y-174500000D03*
X220500000Y-174500000D03*
X224500000Y-174500000D03*
X228500000Y-174500000D03*
X214500000Y-178500000D03*
X218500000Y-178500000D03*
X222500000Y-178500000D03*
X226500000Y-178500000D03*
X212500000Y-182500000D03*
X216500000Y-182500000D03*
X220500000Y-182500000D03*
X224500000Y-182500000D03*
X228500000Y-182500000D03*
G04 #@! TD*
D13*
G04 #@! TO.C,U2*
X245618000Y-135890000D03*
D14*
X248158000Y-135890000D03*
X250698000Y-135890000D03*
X253238000Y-135890000D03*
X255778000Y-135890000D03*
X258318000Y-135890000D03*
X260858000Y-135890000D03*
X263398000Y-135890000D03*
X265938000Y-135890000D03*
X268478000Y-135890000D03*
X271018000Y-135890000D03*
X273558000Y-135890000D03*
X276098000Y-135890000D03*
X278638000Y-135890000D03*
X281178000Y-135890000D03*
X283718000Y-135890000D03*
X286258000Y-135890000D03*
X288798000Y-135890000D03*
X291338000Y-135890000D03*
X293875280Y-135893680D03*
X296415280Y-135893680D03*
X298955280Y-135893680D03*
X298958000Y-113030000D03*
X296418000Y-113030000D03*
X293878000Y-113030000D03*
X291338000Y-113030000D03*
X288798000Y-113030000D03*
X286258000Y-113030000D03*
X283718000Y-113030000D03*
X281178000Y-113030000D03*
X278638000Y-113030000D03*
X276098000Y-113030000D03*
X273558000Y-113030000D03*
X271018000Y-113030000D03*
X268478000Y-113030000D03*
X265938000Y-113030000D03*
X263398000Y-113030000D03*
X260858000Y-113030000D03*
X258318000Y-113030000D03*
X255778000Y-113030000D03*
X253238000Y-113030000D03*
X250698000Y-113030000D03*
X248158000Y-113030000D03*
X245618000Y-113030000D03*
G04 #@! TD*
D15*
G04 #@! TO.C,L1*
X163899000Y-144936500D03*
X165649000Y-144936500D03*
G04 #@! TD*
D16*
G04 #@! TO.C,J5*
X157734000Y-169164000D03*
D17*
X154484000Y-167664000D03*
G04 #@! TD*
D18*
G04 #@! TO.C,C1*
X285469500Y-103378000D03*
X283744500Y-103378000D03*
G04 #@! TD*
D19*
G04 #@! TO.C,D8*
X243460000Y-88011000D03*
X246760000Y-88011000D03*
G04 #@! TD*
D20*
G04 #@! TO.C,C11*
X157025000Y-158224000D03*
X158750000Y-158224000D03*
G04 #@! TD*
D18*
G04 #@! TO.C,C2*
X285469500Y-105156000D03*
X283744500Y-105156000D03*
G04 #@! TD*
D21*
G04 #@! TO.C,F2*
X195368000Y-91776000D03*
X198768000Y-91776000D03*
X195368000Y-81856000D03*
X198768000Y-81856000D03*
G04 #@! TD*
D22*
G04 #@! TO.C,D11*
X174974000Y-98044000D03*
X170974000Y-98044000D03*
G04 #@! TD*
D23*
G04 #@! TO.C,Q3*
X175280000Y-82244000D03*
D24*
X180730000Y-82244000D03*
X186180000Y-82244000D03*
G04 #@! TD*
D25*
G04 #@! TO.C,L2*
X97536000Y-100239000D03*
X97536000Y-102564000D03*
G04 #@! TD*
D21*
G04 #@! TO.C,F5*
X223266000Y-98324000D03*
X223266000Y-101724000D03*
X233186000Y-98324000D03*
X233186000Y-101724000D03*
G04 #@! TD*
D26*
G04 #@! TO.C,K3*
X202574000Y-158448500D03*
D27*
X210194000Y-158448500D03*
X215274000Y-158448500D03*
X220354000Y-158448500D03*
X220354000Y-150828500D03*
X215274000Y-150828500D03*
X210194000Y-150828500D03*
X202574000Y-150828500D03*
G04 #@! TD*
D28*
G04 #@! TO.C,C16*
X181610000Y-125028000D03*
X181610000Y-132528000D03*
G04 #@! TD*
D29*
G04 #@! TO.C,R30*
X172648000Y-152914000D03*
X172648000Y-154739000D03*
G04 #@! TD*
D10*
G04 #@! TO.C,J9*
X163490000Y-179122000D03*
X184490000Y-179122000D03*
D11*
X169990000Y-174622000D03*
D12*
X173990000Y-174622000D03*
X177990000Y-174622000D03*
X171990000Y-178622000D03*
X175990000Y-178622000D03*
X169990000Y-182622000D03*
X173990000Y-182622000D03*
X177990000Y-182622000D03*
G04 #@! TD*
D21*
G04 #@! TO.C,F6*
X223266000Y-106198000D03*
X223266000Y-109598000D03*
X233186000Y-106198000D03*
X233186000Y-109598000D03*
G04 #@! TD*
D16*
G04 #@! TO.C,J3*
X65330000Y-98476000D03*
D30*
X68580000Y-93016000D03*
D31*
X68580000Y-96976000D03*
G04 #@! TD*
D10*
G04 #@! TO.C,J8*
X219710000Y-67742500D03*
X190710000Y-67742500D03*
D11*
X213210000Y-72242500D03*
D12*
X209210000Y-72242500D03*
X205210000Y-72242500D03*
X201210000Y-72242500D03*
X197210000Y-72242500D03*
X211210000Y-68242500D03*
X207210000Y-68242500D03*
X203210000Y-68242500D03*
X199210000Y-68242500D03*
X213210000Y-64242500D03*
X209210000Y-64242500D03*
X205210000Y-64242500D03*
X201210000Y-64242500D03*
X197210000Y-64242500D03*
G04 #@! TD*
D32*
G04 #@! TO.C,U1*
X282702000Y-101204900D03*
X283972000Y-101204900D03*
X285242000Y-101204900D03*
X286512000Y-101204900D03*
X286512000Y-96254900D03*
X285242000Y-96254900D03*
X283972000Y-96254900D03*
X282702000Y-96254900D03*
G04 #@! TD*
D33*
G04 #@! TO.C,U8*
X101756100Y-112721900D03*
X102462851Y-111015651D03*
X102462851Y-114428149D03*
X104169100Y-110308900D03*
D34*
X104169100Y-112721900D03*
D33*
X104169100Y-115134900D03*
X105875349Y-111015651D03*
X105875349Y-114428149D03*
X106582100Y-112721900D03*
D35*
X105185100Y-121738900D03*
X105185100Y-124278900D03*
X105185100Y-126818900D03*
D33*
X101801820Y-137024620D03*
X102476242Y-135304980D03*
X102540900Y-138717478D03*
X104169100Y-134565900D03*
D34*
X104214820Y-136978900D03*
D33*
X104260540Y-139391900D03*
X105888740Y-135240322D03*
X105953398Y-138652820D03*
X106627820Y-136933180D03*
X162462100Y-132660900D03*
X163168851Y-130954651D03*
X163168851Y-134367149D03*
X164875100Y-130247900D03*
D34*
X164875100Y-132660900D03*
D33*
X164875100Y-135073900D03*
X166581349Y-130954651D03*
X166581349Y-134367149D03*
X167288100Y-132660900D03*
X162462100Y-117166900D03*
X163168851Y-115460651D03*
X163168851Y-118873149D03*
X164875100Y-114753900D03*
D34*
X164875100Y-117166900D03*
D33*
X164875100Y-119579900D03*
X166581349Y-115460651D03*
X166581349Y-118873149D03*
X167288100Y-117166900D03*
G04 #@! TD*
D36*
G04 #@! TO.C,R27*
X152099000Y-161470500D03*
X153924000Y-161470500D03*
G04 #@! TD*
D16*
G04 #@! TO.C,J6*
X126722000Y-90170000D03*
D37*
X125222000Y-93420000D03*
G04 #@! TD*
D38*
G04 #@! TO.C,U7*
X162670000Y-151310500D03*
D39*
X164520000Y-152810500D03*
D38*
X162670000Y-154310500D03*
X166370000Y-154310500D03*
X166370000Y-151310500D03*
G04 #@! TD*
D21*
G04 #@! TO.C,F7*
X223132000Y-122506000D03*
X223132000Y-125906000D03*
X233052000Y-122506000D03*
X233052000Y-125906000D03*
G04 #@! TD*
D40*
G04 #@! TO.C,D1*
X283898000Y-88439500D03*
X285798000Y-88439500D03*
X284848000Y-86564500D03*
G04 #@! TD*
D36*
G04 #@! TO.C,R10*
X282007000Y-93726000D03*
X283832000Y-93726000D03*
G04 #@! TD*
D18*
G04 #@! TO.C,C10*
X152654000Y-153596500D03*
X150929000Y-153596500D03*
G04 #@! TD*
D41*
G04 #@! TO.C,U6*
X149417000Y-155501500D03*
X149417000Y-156771500D03*
X149417000Y-158041500D03*
X149417000Y-159311500D03*
X154367000Y-159311500D03*
X154367000Y-158041500D03*
X154367000Y-156771500D03*
X154367000Y-155501500D03*
G04 #@! TD*
D42*
G04 #@! TO.C,C12*
X168838000Y-153165000D03*
X168838000Y-151440000D03*
G04 #@! TD*
D43*
G04 #@! TO.C,J10*
X278402000Y-82168000D03*
D44*
X286982000Y-82168000D03*
D45*
X282842000Y-82168000D03*
G04 #@! TD*
D46*
G04 #@! TO.C,R29*
X163322000Y-159231500D03*
X163322000Y-157406500D03*
G04 #@! TD*
D42*
G04 #@! TO.C,C3*
X284734000Y-92021000D03*
X284734000Y-90296000D03*
G04 #@! TD*
D20*
G04 #@! TO.C,C9*
X157025000Y-160050000D03*
X158750000Y-160050000D03*
G04 #@! TD*
D16*
G04 #@! TO.C,J7*
X125500000Y-178204000D03*
D47*
X127000000Y-174954000D03*
G04 #@! TD*
D48*
G04 #@! TO.C,C15*
X80010000Y-116112000D03*
X80010000Y-131112000D03*
G04 #@! TD*
D49*
G04 #@! TO.C,R32*
X85700000Y-81250000D03*
X111100000Y-81250000D03*
G04 #@! TD*
D50*
G04 #@! TO.C,K5*
X244484000Y-84784000D03*
D28*
X244484000Y-82244000D03*
X244484000Y-74624000D03*
X239404000Y-74624000D03*
X239404000Y-82244000D03*
X239404000Y-84784000D03*
G04 #@! TD*
D36*
G04 #@! TO.C,R9*
X283821500Y-110109000D03*
X285646500Y-110109000D03*
G04 #@! TD*
D21*
G04 #@! TO.C,F1*
X223062000Y-114150000D03*
X223062000Y-117550000D03*
X232982000Y-114150000D03*
X232982000Y-117550000D03*
G04 #@! TD*
D10*
G04 #@! TO.C,J11*
X255946000Y-180068500D03*
X296946000Y-180068500D03*
D11*
X262446000Y-175568500D03*
D12*
X266446000Y-175568500D03*
X270446000Y-175568500D03*
X274446000Y-175568500D03*
X278446000Y-175568500D03*
X282446000Y-175568500D03*
X286446000Y-175568500D03*
X290446000Y-175568500D03*
X264446000Y-179568500D03*
X268446000Y-179568500D03*
X272446000Y-179568500D03*
X276446000Y-179568500D03*
X280446000Y-179568500D03*
X284446000Y-179568500D03*
X288446000Y-179568500D03*
X262446000Y-183568500D03*
X266446000Y-183568500D03*
X270446000Y-183568500D03*
X274446000Y-183568500D03*
X278446000Y-183568500D03*
X282446000Y-183568500D03*
X286446000Y-183568500D03*
X290446000Y-183568500D03*
G04 #@! TD*
D26*
G04 #@! TO.C,K2*
X202724500Y-146764500D03*
D27*
X210344500Y-146764500D03*
X215424500Y-146764500D03*
X220504500Y-146764500D03*
X220504500Y-139144500D03*
X215424500Y-139144500D03*
X210344500Y-139144500D03*
X202724500Y-139144500D03*
G04 #@! TD*
D42*
G04 #@! TO.C,C13*
X170616000Y-153165000D03*
X170616000Y-151440000D03*
G04 #@! TD*
D21*
G04 #@! TO.C,F10*
X189738000Y-154418000D03*
X186338000Y-154418000D03*
X189738000Y-164338000D03*
X186338000Y-164338000D03*
G04 #@! TD*
D51*
G04 #@! TO.C,D6*
X198120000Y-156336000D03*
X198120000Y-153036000D03*
G04 #@! TD*
D23*
G04 #@! TO.C,Q4*
X175418000Y-91388000D03*
D24*
X180868000Y-91388000D03*
X186318000Y-91388000D03*
G04 #@! TD*
D21*
G04 #@! TO.C,F4*
X213410600Y-91776000D03*
X216810600Y-91776000D03*
X213410600Y-81856000D03*
X216810600Y-81856000D03*
G04 #@! TD*
D10*
G04 #@! TO.C,J12*
X292354000Y-68326000D03*
X263354000Y-68326000D03*
D11*
X285854000Y-72826000D03*
D12*
X281854000Y-72826000D03*
X277854000Y-72826000D03*
X273854000Y-72826000D03*
X269854000Y-72826000D03*
X283854000Y-68826000D03*
X279854000Y-68826000D03*
X275854000Y-68826000D03*
X271854000Y-68826000D03*
X285854000Y-64826000D03*
X281854000Y-64826000D03*
X277854000Y-64826000D03*
X273854000Y-64826000D03*
X269854000Y-64826000D03*
G04 #@! TD*
D48*
G04 #@! TO.C,R24*
X83566000Y-152094000D03*
D52*
X98806000Y-152094000D03*
G04 #@! TD*
D53*
G04 #@! TO.C,F12*
X78740000Y-139648000D03*
D54*
X67490000Y-139648000D03*
X89990000Y-139648000D03*
G04 #@! TD*
D55*
G04 #@! TO.C,C8*
X210702000Y-79603500D03*
X210702000Y-81328500D03*
G04 #@! TD*
D56*
G04 #@! TO.C,J1*
X228568000Y-145618000D03*
D57*
X226568000Y-144018000D03*
D58*
X226568000Y-141518000D03*
G04 #@! TD*
D36*
G04 #@! TO.C,R11*
X285610000Y-93726000D03*
X287435000Y-93726000D03*
G04 #@! TD*
D48*
G04 #@! TO.C,C14*
X91186000Y-116112000D03*
X91186000Y-131112000D03*
G04 #@! TD*
D13*
G04 #@! TO.C,U3*
X245618000Y-167132000D03*
D14*
X248158000Y-167132000D03*
X250698000Y-167132000D03*
X253238000Y-167132000D03*
X255778000Y-167132000D03*
X258318000Y-167132000D03*
X260858000Y-167132000D03*
X263398000Y-167132000D03*
X265938000Y-167132000D03*
X268478000Y-167132000D03*
X271018000Y-167132000D03*
X273558000Y-167132000D03*
X276098000Y-167132000D03*
X278638000Y-167132000D03*
X281178000Y-167132000D03*
X283718000Y-167132000D03*
X286258000Y-167132000D03*
X288798000Y-167132000D03*
X291338000Y-167132000D03*
X293875280Y-167135680D03*
X296415280Y-167135680D03*
X298955280Y-167135680D03*
X298958000Y-144272000D03*
X296418000Y-144272000D03*
X293878000Y-144272000D03*
X291338000Y-144272000D03*
X288798000Y-144272000D03*
X286258000Y-144272000D03*
X283718000Y-144272000D03*
X281178000Y-144272000D03*
X278638000Y-144272000D03*
X276098000Y-144272000D03*
X273558000Y-144272000D03*
X271018000Y-144272000D03*
X268478000Y-144272000D03*
X265938000Y-144272000D03*
X263398000Y-144272000D03*
X260858000Y-144272000D03*
X258318000Y-144272000D03*
X255778000Y-144272000D03*
X253238000Y-144272000D03*
X250698000Y-144272000D03*
X248158000Y-144272000D03*
X245618000Y-144272000D03*
G04 #@! TD*
D28*
G04 #@! TO.C,K4*
X234660000Y-78233500D03*
X222608000Y-78233500D03*
X228608000Y-92483500D03*
X234608000Y-90483500D03*
X222608000Y-90483500D03*
G04 #@! TD*
D59*
G04 #@! TO.C,D5*
X198120000Y-141050500D03*
X198120000Y-144350500D03*
G04 #@! TD*
D46*
G04 #@! TO.C,R25*
X146812000Y-157961500D03*
X146812000Y-156136500D03*
G04 #@! TD*
D53*
G04 #@! TO.C,F11*
X78486000Y-107644000D03*
D54*
X67236000Y-107644000D03*
X89736000Y-107644000D03*
G04 #@! TD*
D60*
G04 #@! TO.C,D10*
X187810000Y-77396500D03*
X183810000Y-77396500D03*
G04 #@! TD*
D16*
G04 #@! TO.C,J4*
X65584000Y-156030000D03*
D30*
X68834000Y-150570000D03*
D31*
X68834000Y-154530000D03*
G04 #@! TD*
D56*
G04 #@! TO.C,J2*
X228704000Y-157803500D03*
D57*
X226704000Y-156203500D03*
D58*
X226704000Y-153703500D03*
G04 #@! TD*
D61*
G04 #@! TO.C,D9*
X166170000Y-147222500D03*
X162870000Y-147222500D03*
G04 #@! TD*
D62*
G04 #@! TO.C,R35*
X101092000Y-104344000D03*
X101092000Y-98244000D03*
G04 #@! TD*
D63*
G04 #@! TO.C,K1*
X209505600Y-123898100D03*
X199345600Y-123898100D03*
D64*
X194565600Y-111888100D03*
D65*
X213315600Y-108458100D03*
G04 #@! TD*
D49*
G04 #@! TO.C,R33*
X78950000Y-172250000D03*
X104350000Y-172250000D03*
G04 #@! TD*
D21*
G04 #@! TO.C,F3*
X204389300Y-91776000D03*
X207789300Y-91776000D03*
X204389300Y-81856000D03*
X207789300Y-81856000D03*
G04 #@! TD*
D28*
G04 #@! TO.C,C17*
X176672400Y-107076300D03*
X181975701Y-112379601D03*
G04 #@! TD*
D43*
G04 #@! TO.C,J15*
X165664000Y-67818000D03*
D44*
X174244000Y-67818000D03*
D45*
X170104000Y-67818000D03*
G04 #@! TD*
D46*
G04 #@! TO.C,R26*
X156972000Y-156390500D03*
X156972000Y-154565500D03*
G04 #@! TD*
D21*
G04 #@! TO.C,F9*
X181356000Y-154418000D03*
X177956000Y-154418000D03*
X181356000Y-164338000D03*
X177956000Y-164338000D03*
G04 #@! TD*
D33*
X287274000Y-96266000D03*
X152527000Y-152400000D03*
X285496000Y-106045000D03*
X253492000Y-107696000D03*
X286113401Y-98661401D03*
X293878000Y-127508000D03*
X156210000Y-161789500D03*
X285496000Y-109220000D03*
X164465000Y-154432000D03*
X150929000Y-155141000D03*
X291338000Y-141732000D03*
X257175000Y-140104500D03*
X247777000Y-88011000D03*
X189817479Y-77396505D03*
X208280000Y-157480000D03*
X258699000Y-96901000D03*
X198120000Y-145415000D03*
X258445000Y-101727000D03*
X254508000Y-140104500D03*
X164337997Y-89662000D03*
X180848000Y-88011000D03*
X256540000Y-99314000D03*
X178435000Y-99187000D03*
X185039000Y-98933000D03*
X264287000Y-103886000D03*
X188182000Y-87056000D03*
X251079000Y-106807000D03*
X262636000Y-101854000D03*
X170616003Y-154262018D03*
X283718000Y-90297000D03*
X144907000Y-125857000D03*
X168838003Y-154286113D03*
X260477000Y-99441000D03*
X262509000Y-96901000D03*
X168529000Y-87122000D03*
X285623000Y-90297000D03*
X260350000Y-103886000D03*
X283083000Y-104267000D03*
X256921000Y-94742000D03*
X265938000Y-108458000D03*
X281940000Y-96266000D03*
X264033000Y-94742000D03*
X147574000Y-155501500D03*
X296164000Y-127508000D03*
X256667000Y-103886000D03*
X259715000Y-140104500D03*
X247015000Y-98679000D03*
X264414000Y-99314000D03*
X168910000Y-98044000D03*
X212119997Y-156239997D03*
X260731000Y-94742000D03*
X210702003Y-82413997D03*
X256286000Y-106680000D03*
X217320499Y-143613501D03*
X172339000Y-151765000D03*
X166370000Y-149352000D03*
X165270231Y-151323941D03*
X158877000Y-153543000D03*
X112959900Y-137005900D03*
X239903000Y-92075000D03*
X238252000Y-92075000D03*
X241554000Y-92075000D03*
X238379000Y-94742000D03*
X239903000Y-94742000D03*
X241554000Y-94742000D03*
X187452000Y-134620000D03*
X279000000Y-133000000D03*
X140081000Y-130048000D03*
X141478000Y-153416000D03*
X160274000Y-162814000D03*
X269947200Y-129923700D03*
X271018000Y-129923700D03*
X231900000Y-169700000D03*
X230700000Y-174850000D03*
X239522000Y-129286000D03*
X237236000Y-129286000D03*
M02*
