%TF.GenerationSoftware,KiCad,Pcbnew,8.0.5*%
%TF.CreationDate,2025-04-14T13:42:12-04:00*%
%TF.ProjectId,Big Daddy,42696720-4461-4646-9479-2e6b69636164,rev?*%
%TF.SameCoordinates,Original*%
%TF.FileFunction,Drillmap*%
%TF.FilePolarity,Positive*%
%FSLAX45Y45*%
G04 Gerber Fmt 4.5, Leading zero omitted, Abs format (unit mm)*
G04 Created by KiCad (PCBNEW 8.0.5) date 2025-04-14 13:42:12*
%MOMM*%
%LPD*%
G01*
G04 APERTURE LIST*
%ADD10C,0.100000*%
%ADD11C,0.200000*%
%ADD12C,0.120000*%
%ADD13C,0.160000*%
%ADD14C,0.270000*%
%ADD15C,0.285000*%
%ADD16C,0.318000*%
G04 APERTURE END LIST*
D10*
X6300000Y-6075000D02*
X30870000Y-6075000D01*
X30870000Y-18740000D01*
X6300000Y-18740000D01*
X6300000Y-6075000D01*
D11*
X13671300Y-16304795D02*
G75*
G02*
X13471300Y-16504800I-200000J-5D01*
G01*
X13264900Y-16304795D02*
X13264900Y-9770596D01*
X13671300Y-9770596D02*
X13671300Y-16304795D01*
X13464900Y-16504795D02*
G75*
G02*
X13264904Y-16304795I0J199996D01*
G01*
X13471300Y-9570595D02*
G75*
G02*
X13671305Y-9770596I0J-200005D01*
G01*
X13264900Y-9770596D02*
G75*
G02*
X13464900Y-9570600I200000J-5D01*
G01*
X13464900Y-9570595D02*
X13471300Y-9570595D01*
X13471300Y-16504796D02*
X13464900Y-16504795D01*
D12*
X22796800Y-14501800D02*
X22916800Y-14621800D01*
X22916800Y-14501800D02*
X22796800Y-14621800D01*
X22810400Y-15720350D02*
X22930400Y-15840350D01*
X22930400Y-15720350D02*
X22810400Y-15840350D01*
D13*
X6613000Y-9847600D02*
G75*
G02*
X6453000Y-9847600I-80000J0D01*
G01*
X6453000Y-9847600D02*
G75*
G02*
X6613000Y-9847600I80000J0D01*
G01*
X6638400Y-15603000D02*
G75*
G02*
X6478400Y-15603000I-80000J0D01*
G01*
X6478400Y-15603000D02*
G75*
G02*
X6638400Y-15603000I80000J0D01*
G01*
X12630000Y-17820400D02*
G75*
G02*
X12470000Y-17820400I-80000J0D01*
G01*
X12470000Y-17820400D02*
G75*
G02*
X12630000Y-17820400I80000J0D01*
G01*
X12752200Y-9017000D02*
G75*
G02*
X12592200Y-9017000I-80000J0D01*
G01*
X12592200Y-9017000D02*
G75*
G02*
X12752200Y-9017000I80000J0D01*
G01*
X15853400Y-16916400D02*
G75*
G02*
X15693400Y-16916400I-80000J0D01*
G01*
X15693400Y-16916400D02*
G75*
G02*
X15853400Y-16916400I80000J0D01*
G01*
D14*
X7848600Y-10629400D02*
X7848600Y-10899400D01*
X7713600Y-10764400D02*
X7983600Y-10764400D01*
X7874000Y-13829800D02*
X7874000Y-14099800D01*
X7739000Y-13964800D02*
X8009000Y-13964800D01*
D15*
X16449764Y-18012964D02*
X16449764Y-17811436D01*
X16248236Y-17811436D01*
X16248236Y-18012964D01*
X16449764Y-18012964D01*
X18549764Y-18012964D02*
X18549764Y-17811436D01*
X18348236Y-17811436D01*
X18348236Y-18012964D01*
X18549764Y-18012964D01*
X19171764Y-6875014D02*
X19171764Y-6673486D01*
X18970236Y-6673486D01*
X18970236Y-6875014D01*
X19171764Y-6875014D01*
X20700764Y-18000764D02*
X20700764Y-17799236D01*
X20499236Y-17799236D01*
X20499236Y-18000764D01*
X20700764Y-18000764D01*
X22071764Y-6875014D02*
X22071764Y-6673486D01*
X21870236Y-6673486D01*
X21870236Y-6875014D01*
X22071764Y-6875014D01*
X23600764Y-18000764D02*
X23600764Y-17799236D01*
X23399236Y-17799236D01*
X23399236Y-18000764D01*
X23600764Y-18000764D01*
X25695364Y-18107614D02*
X25695364Y-17906086D01*
X25493836Y-17906086D01*
X25493836Y-18107614D01*
X25695364Y-18107614D01*
X26436164Y-6933364D02*
X26436164Y-6731836D01*
X26234636Y-6731836D01*
X26234636Y-6933364D01*
X26436164Y-6933364D01*
X29336164Y-6933364D02*
X29336164Y-6731836D01*
X29134636Y-6731836D01*
X29134636Y-6933364D01*
X29336164Y-6933364D01*
X29795364Y-18107614D02*
X29795364Y-17906086D01*
X29593836Y-17906086D01*
X29593836Y-18107614D01*
X29795364Y-18107614D01*
D16*
X16566400Y-6940800D02*
X16725400Y-6781800D01*
X16566400Y-6622800D01*
X16407400Y-6781800D01*
X16566400Y-6940800D01*
X27840200Y-8375800D02*
X27999200Y-8216800D01*
X27840200Y-8057800D01*
X27681200Y-8216800D01*
X27840200Y-8375800D01*
D11*
X6555777Y-19056484D02*
X6555777Y-18856484D01*
X6555777Y-18856484D02*
X6603396Y-18856484D01*
X6603396Y-18856484D02*
X6631967Y-18866008D01*
X6631967Y-18866008D02*
X6651015Y-18885055D01*
X6651015Y-18885055D02*
X6660539Y-18904103D01*
X6660539Y-18904103D02*
X6670062Y-18942198D01*
X6670062Y-18942198D02*
X6670062Y-18970770D01*
X6670062Y-18970770D02*
X6660539Y-19008865D01*
X6660539Y-19008865D02*
X6651015Y-19027912D01*
X6651015Y-19027912D02*
X6631967Y-19046960D01*
X6631967Y-19046960D02*
X6603396Y-19056484D01*
X6603396Y-19056484D02*
X6555777Y-19056484D01*
X6755777Y-19056484D02*
X6755777Y-18923150D01*
X6755777Y-18961246D02*
X6765301Y-18942198D01*
X6765301Y-18942198D02*
X6774824Y-18932674D01*
X6774824Y-18932674D02*
X6793872Y-18923150D01*
X6793872Y-18923150D02*
X6812920Y-18923150D01*
X6879586Y-19056484D02*
X6879586Y-18923150D01*
X6879586Y-18856484D02*
X6870062Y-18866008D01*
X6870062Y-18866008D02*
X6879586Y-18875531D01*
X6879586Y-18875531D02*
X6889110Y-18866008D01*
X6889110Y-18866008D02*
X6879586Y-18856484D01*
X6879586Y-18856484D02*
X6879586Y-18875531D01*
X7003396Y-19056484D02*
X6984348Y-19046960D01*
X6984348Y-19046960D02*
X6974824Y-19027912D01*
X6974824Y-19027912D02*
X6974824Y-18856484D01*
X7108158Y-19056484D02*
X7089110Y-19046960D01*
X7089110Y-19046960D02*
X7079586Y-19027912D01*
X7079586Y-19027912D02*
X7079586Y-18856484D01*
X7336729Y-19056484D02*
X7336729Y-18856484D01*
X7336729Y-18856484D02*
X7403396Y-18999341D01*
X7403396Y-18999341D02*
X7470062Y-18856484D01*
X7470062Y-18856484D02*
X7470062Y-19056484D01*
X7651015Y-19056484D02*
X7651015Y-18951722D01*
X7651015Y-18951722D02*
X7641491Y-18932674D01*
X7641491Y-18932674D02*
X7622443Y-18923150D01*
X7622443Y-18923150D02*
X7584348Y-18923150D01*
X7584348Y-18923150D02*
X7565301Y-18932674D01*
X7651015Y-19046960D02*
X7631967Y-19056484D01*
X7631967Y-19056484D02*
X7584348Y-19056484D01*
X7584348Y-19056484D02*
X7565301Y-19046960D01*
X7565301Y-19046960D02*
X7555777Y-19027912D01*
X7555777Y-19027912D02*
X7555777Y-19008865D01*
X7555777Y-19008865D02*
X7565301Y-18989817D01*
X7565301Y-18989817D02*
X7584348Y-18980293D01*
X7584348Y-18980293D02*
X7631967Y-18980293D01*
X7631967Y-18980293D02*
X7651015Y-18970770D01*
X7746253Y-18923150D02*
X7746253Y-19123150D01*
X7746253Y-18932674D02*
X7765301Y-18923150D01*
X7765301Y-18923150D02*
X7803396Y-18923150D01*
X7803396Y-18923150D02*
X7822443Y-18932674D01*
X7822443Y-18932674D02*
X7831967Y-18942198D01*
X7831967Y-18942198D02*
X7841491Y-18961246D01*
X7841491Y-18961246D02*
X7841491Y-19018389D01*
X7841491Y-19018389D02*
X7831967Y-19037436D01*
X7831967Y-19037436D02*
X7822443Y-19046960D01*
X7822443Y-19046960D02*
X7803396Y-19056484D01*
X7803396Y-19056484D02*
X7765301Y-19056484D01*
X7765301Y-19056484D02*
X7746253Y-19046960D01*
X7927205Y-19037436D02*
X7936729Y-19046960D01*
X7936729Y-19046960D02*
X7927205Y-19056484D01*
X7927205Y-19056484D02*
X7917682Y-19046960D01*
X7917682Y-19046960D02*
X7927205Y-19037436D01*
X7927205Y-19037436D02*
X7927205Y-19056484D01*
X7927205Y-18932674D02*
X7936729Y-18942198D01*
X7936729Y-18942198D02*
X7927205Y-18951722D01*
X7927205Y-18951722D02*
X7917682Y-18942198D01*
X7917682Y-18942198D02*
X7927205Y-18932674D01*
X7927205Y-18932674D02*
X7927205Y-18951722D01*
D12*
X6175000Y-19325000D02*
X6295000Y-19445000D01*
X6295000Y-19325000D02*
X6175000Y-19445000D01*
D11*
X6660539Y-19476484D02*
X6546253Y-19476484D01*
X6603396Y-19476484D02*
X6603396Y-19276484D01*
X6603396Y-19276484D02*
X6584348Y-19305055D01*
X6584348Y-19305055D02*
X6565301Y-19324103D01*
X6565301Y-19324103D02*
X6546253Y-19333627D01*
X6746253Y-19457436D02*
X6755777Y-19466960D01*
X6755777Y-19466960D02*
X6746253Y-19476484D01*
X6746253Y-19476484D02*
X6736729Y-19466960D01*
X6736729Y-19466960D02*
X6746253Y-19457436D01*
X6746253Y-19457436D02*
X6746253Y-19476484D01*
X6831967Y-19295531D02*
X6841491Y-19286008D01*
X6841491Y-19286008D02*
X6860539Y-19276484D01*
X6860539Y-19276484D02*
X6908158Y-19276484D01*
X6908158Y-19276484D02*
X6927205Y-19286008D01*
X6927205Y-19286008D02*
X6936729Y-19295531D01*
X6936729Y-19295531D02*
X6946253Y-19314579D01*
X6946253Y-19314579D02*
X6946253Y-19333627D01*
X6946253Y-19333627D02*
X6936729Y-19362198D01*
X6936729Y-19362198D02*
X6822443Y-19476484D01*
X6822443Y-19476484D02*
X6946253Y-19476484D01*
X7070062Y-19276484D02*
X7089110Y-19276484D01*
X7089110Y-19276484D02*
X7108158Y-19286008D01*
X7108158Y-19286008D02*
X7117682Y-19295531D01*
X7117682Y-19295531D02*
X7127205Y-19314579D01*
X7127205Y-19314579D02*
X7136729Y-19352674D01*
X7136729Y-19352674D02*
X7136729Y-19400293D01*
X7136729Y-19400293D02*
X7127205Y-19438389D01*
X7127205Y-19438389D02*
X7117682Y-19457436D01*
X7117682Y-19457436D02*
X7108158Y-19466960D01*
X7108158Y-19466960D02*
X7089110Y-19476484D01*
X7089110Y-19476484D02*
X7070062Y-19476484D01*
X7070062Y-19476484D02*
X7051015Y-19466960D01*
X7051015Y-19466960D02*
X7041491Y-19457436D01*
X7041491Y-19457436D02*
X7031967Y-19438389D01*
X7031967Y-19438389D02*
X7022443Y-19400293D01*
X7022443Y-19400293D02*
X7022443Y-19352674D01*
X7022443Y-19352674D02*
X7031967Y-19314579D01*
X7031967Y-19314579D02*
X7041491Y-19295531D01*
X7041491Y-19295531D02*
X7051015Y-19286008D01*
X7051015Y-19286008D02*
X7070062Y-19276484D01*
X7260539Y-19276484D02*
X7279586Y-19276484D01*
X7279586Y-19276484D02*
X7298634Y-19286008D01*
X7298634Y-19286008D02*
X7308158Y-19295531D01*
X7308158Y-19295531D02*
X7317682Y-19314579D01*
X7317682Y-19314579D02*
X7327205Y-19352674D01*
X7327205Y-19352674D02*
X7327205Y-19400293D01*
X7327205Y-19400293D02*
X7317682Y-19438389D01*
X7317682Y-19438389D02*
X7308158Y-19457436D01*
X7308158Y-19457436D02*
X7298634Y-19466960D01*
X7298634Y-19466960D02*
X7279586Y-19476484D01*
X7279586Y-19476484D02*
X7260539Y-19476484D01*
X7260539Y-19476484D02*
X7241491Y-19466960D01*
X7241491Y-19466960D02*
X7231967Y-19457436D01*
X7231967Y-19457436D02*
X7222443Y-19438389D01*
X7222443Y-19438389D02*
X7212920Y-19400293D01*
X7212920Y-19400293D02*
X7212920Y-19352674D01*
X7212920Y-19352674D02*
X7222443Y-19314579D01*
X7222443Y-19314579D02*
X7231967Y-19295531D01*
X7231967Y-19295531D02*
X7241491Y-19286008D01*
X7241491Y-19286008D02*
X7260539Y-19276484D01*
X7412920Y-19476484D02*
X7412920Y-19343150D01*
X7412920Y-19362198D02*
X7422443Y-19352674D01*
X7422443Y-19352674D02*
X7441491Y-19343150D01*
X7441491Y-19343150D02*
X7470063Y-19343150D01*
X7470063Y-19343150D02*
X7489110Y-19352674D01*
X7489110Y-19352674D02*
X7498634Y-19371722D01*
X7498634Y-19371722D02*
X7498634Y-19476484D01*
X7498634Y-19371722D02*
X7508158Y-19352674D01*
X7508158Y-19352674D02*
X7527205Y-19343150D01*
X7527205Y-19343150D02*
X7555777Y-19343150D01*
X7555777Y-19343150D02*
X7574824Y-19352674D01*
X7574824Y-19352674D02*
X7584348Y-19371722D01*
X7584348Y-19371722D02*
X7584348Y-19476484D01*
X7679586Y-19476484D02*
X7679586Y-19343150D01*
X7679586Y-19362198D02*
X7689110Y-19352674D01*
X7689110Y-19352674D02*
X7708158Y-19343150D01*
X7708158Y-19343150D02*
X7736729Y-19343150D01*
X7736729Y-19343150D02*
X7755777Y-19352674D01*
X7755777Y-19352674D02*
X7765301Y-19371722D01*
X7765301Y-19371722D02*
X7765301Y-19476484D01*
X7765301Y-19371722D02*
X7774824Y-19352674D01*
X7774824Y-19352674D02*
X7793872Y-19343150D01*
X7793872Y-19343150D02*
X7822443Y-19343150D01*
X7822443Y-19343150D02*
X7841491Y-19352674D01*
X7841491Y-19352674D02*
X7851015Y-19371722D01*
X7851015Y-19371722D02*
X7851015Y-19476484D01*
X8241491Y-19266960D02*
X8070063Y-19524103D01*
X8498634Y-19276484D02*
X8517682Y-19276484D01*
X8517682Y-19276484D02*
X8536729Y-19286008D01*
X8536729Y-19286008D02*
X8546253Y-19295531D01*
X8546253Y-19295531D02*
X8555777Y-19314579D01*
X8555777Y-19314579D02*
X8565301Y-19352674D01*
X8565301Y-19352674D02*
X8565301Y-19400293D01*
X8565301Y-19400293D02*
X8555777Y-19438389D01*
X8555777Y-19438389D02*
X8546253Y-19457436D01*
X8546253Y-19457436D02*
X8536729Y-19466960D01*
X8536729Y-19466960D02*
X8517682Y-19476484D01*
X8517682Y-19476484D02*
X8498634Y-19476484D01*
X8498634Y-19476484D02*
X8479587Y-19466960D01*
X8479587Y-19466960D02*
X8470063Y-19457436D01*
X8470063Y-19457436D02*
X8460539Y-19438389D01*
X8460539Y-19438389D02*
X8451015Y-19400293D01*
X8451015Y-19400293D02*
X8451015Y-19352674D01*
X8451015Y-19352674D02*
X8460539Y-19314579D01*
X8460539Y-19314579D02*
X8470063Y-19295531D01*
X8470063Y-19295531D02*
X8479587Y-19286008D01*
X8479587Y-19286008D02*
X8498634Y-19276484D01*
X8651015Y-19457436D02*
X8660539Y-19466960D01*
X8660539Y-19466960D02*
X8651015Y-19476484D01*
X8651015Y-19476484D02*
X8641491Y-19466960D01*
X8641491Y-19466960D02*
X8651015Y-19457436D01*
X8651015Y-19457436D02*
X8651015Y-19476484D01*
X8784348Y-19276484D02*
X8803396Y-19276484D01*
X8803396Y-19276484D02*
X8822444Y-19286008D01*
X8822444Y-19286008D02*
X8831968Y-19295531D01*
X8831968Y-19295531D02*
X8841491Y-19314579D01*
X8841491Y-19314579D02*
X8851015Y-19352674D01*
X8851015Y-19352674D02*
X8851015Y-19400293D01*
X8851015Y-19400293D02*
X8841491Y-19438389D01*
X8841491Y-19438389D02*
X8831968Y-19457436D01*
X8831968Y-19457436D02*
X8822444Y-19466960D01*
X8822444Y-19466960D02*
X8803396Y-19476484D01*
X8803396Y-19476484D02*
X8784348Y-19476484D01*
X8784348Y-19476484D02*
X8765301Y-19466960D01*
X8765301Y-19466960D02*
X8755777Y-19457436D01*
X8755777Y-19457436D02*
X8746253Y-19438389D01*
X8746253Y-19438389D02*
X8736729Y-19400293D01*
X8736729Y-19400293D02*
X8736729Y-19352674D01*
X8736729Y-19352674D02*
X8746253Y-19314579D01*
X8746253Y-19314579D02*
X8755777Y-19295531D01*
X8755777Y-19295531D02*
X8765301Y-19286008D01*
X8765301Y-19286008D02*
X8784348Y-19276484D01*
X9022444Y-19343150D02*
X9022444Y-19476484D01*
X8974825Y-19266960D02*
X8927206Y-19409817D01*
X8927206Y-19409817D02*
X9051015Y-19409817D01*
X9108158Y-19276484D02*
X9241491Y-19276484D01*
X9241491Y-19276484D02*
X9155777Y-19476484D01*
X9308158Y-19295531D02*
X9317682Y-19286008D01*
X9317682Y-19286008D02*
X9336729Y-19276484D01*
X9336729Y-19276484D02*
X9384349Y-19276484D01*
X9384349Y-19276484D02*
X9403396Y-19286008D01*
X9403396Y-19286008D02*
X9412920Y-19295531D01*
X9412920Y-19295531D02*
X9422444Y-19314579D01*
X9422444Y-19314579D02*
X9422444Y-19333627D01*
X9422444Y-19333627D02*
X9412920Y-19362198D01*
X9412920Y-19362198D02*
X9298634Y-19476484D01*
X9298634Y-19476484D02*
X9422444Y-19476484D01*
X9498634Y-19276484D02*
X9498634Y-19314579D01*
X9574825Y-19276484D02*
X9574825Y-19314579D01*
X9870063Y-19552674D02*
X9860539Y-19543150D01*
X9860539Y-19543150D02*
X9841491Y-19514579D01*
X9841491Y-19514579D02*
X9831968Y-19495531D01*
X9831968Y-19495531D02*
X9822444Y-19466960D01*
X9822444Y-19466960D02*
X9812920Y-19419341D01*
X9812920Y-19419341D02*
X9812920Y-19381246D01*
X9812920Y-19381246D02*
X9822444Y-19333627D01*
X9822444Y-19333627D02*
X9831968Y-19305055D01*
X9831968Y-19305055D02*
X9841491Y-19286008D01*
X9841491Y-19286008D02*
X9860539Y-19257436D01*
X9860539Y-19257436D02*
X9870063Y-19247912D01*
X9936730Y-19295531D02*
X9946253Y-19286008D01*
X9946253Y-19286008D02*
X9965301Y-19276484D01*
X9965301Y-19276484D02*
X10012920Y-19276484D01*
X10012920Y-19276484D02*
X10031968Y-19286008D01*
X10031968Y-19286008D02*
X10041491Y-19295531D01*
X10041491Y-19295531D02*
X10051015Y-19314579D01*
X10051015Y-19314579D02*
X10051015Y-19333627D01*
X10051015Y-19333627D02*
X10041491Y-19362198D01*
X10041491Y-19362198D02*
X9927206Y-19476484D01*
X9927206Y-19476484D02*
X10051015Y-19476484D01*
X10289111Y-19476484D02*
X10289111Y-19276484D01*
X10374825Y-19476484D02*
X10374825Y-19371722D01*
X10374825Y-19371722D02*
X10365301Y-19352674D01*
X10365301Y-19352674D02*
X10346253Y-19343150D01*
X10346253Y-19343150D02*
X10317682Y-19343150D01*
X10317682Y-19343150D02*
X10298634Y-19352674D01*
X10298634Y-19352674D02*
X10289111Y-19362198D01*
X10498634Y-19476484D02*
X10479587Y-19466960D01*
X10479587Y-19466960D02*
X10470063Y-19457436D01*
X10470063Y-19457436D02*
X10460539Y-19438389D01*
X10460539Y-19438389D02*
X10460539Y-19381246D01*
X10460539Y-19381246D02*
X10470063Y-19362198D01*
X10470063Y-19362198D02*
X10479587Y-19352674D01*
X10479587Y-19352674D02*
X10498634Y-19343150D01*
X10498634Y-19343150D02*
X10527206Y-19343150D01*
X10527206Y-19343150D02*
X10546253Y-19352674D01*
X10546253Y-19352674D02*
X10555777Y-19362198D01*
X10555777Y-19362198D02*
X10565301Y-19381246D01*
X10565301Y-19381246D02*
X10565301Y-19438389D01*
X10565301Y-19438389D02*
X10555777Y-19457436D01*
X10555777Y-19457436D02*
X10546253Y-19466960D01*
X10546253Y-19466960D02*
X10527206Y-19476484D01*
X10527206Y-19476484D02*
X10498634Y-19476484D01*
X10679587Y-19476484D02*
X10660539Y-19466960D01*
X10660539Y-19466960D02*
X10651015Y-19447912D01*
X10651015Y-19447912D02*
X10651015Y-19276484D01*
X10831968Y-19466960D02*
X10812920Y-19476484D01*
X10812920Y-19476484D02*
X10774825Y-19476484D01*
X10774825Y-19476484D02*
X10755777Y-19466960D01*
X10755777Y-19466960D02*
X10746253Y-19447912D01*
X10746253Y-19447912D02*
X10746253Y-19371722D01*
X10746253Y-19371722D02*
X10755777Y-19352674D01*
X10755777Y-19352674D02*
X10774825Y-19343150D01*
X10774825Y-19343150D02*
X10812920Y-19343150D01*
X10812920Y-19343150D02*
X10831968Y-19352674D01*
X10831968Y-19352674D02*
X10841492Y-19371722D01*
X10841492Y-19371722D02*
X10841492Y-19390770D01*
X10841492Y-19390770D02*
X10746253Y-19409817D01*
X10917682Y-19466960D02*
X10936730Y-19476484D01*
X10936730Y-19476484D02*
X10974825Y-19476484D01*
X10974825Y-19476484D02*
X10993873Y-19466960D01*
X10993873Y-19466960D02*
X11003396Y-19447912D01*
X11003396Y-19447912D02*
X11003396Y-19438389D01*
X11003396Y-19438389D02*
X10993873Y-19419341D01*
X10993873Y-19419341D02*
X10974825Y-19409817D01*
X10974825Y-19409817D02*
X10946253Y-19409817D01*
X10946253Y-19409817D02*
X10927206Y-19400293D01*
X10927206Y-19400293D02*
X10917682Y-19381246D01*
X10917682Y-19381246D02*
X10917682Y-19371722D01*
X10917682Y-19371722D02*
X10927206Y-19352674D01*
X10927206Y-19352674D02*
X10946253Y-19343150D01*
X10946253Y-19343150D02*
X10974825Y-19343150D01*
X10974825Y-19343150D02*
X10993873Y-19352674D01*
X11070063Y-19552674D02*
X11079587Y-19543150D01*
X11079587Y-19543150D02*
X11098634Y-19514579D01*
X11098634Y-19514579D02*
X11108158Y-19495531D01*
X11108158Y-19495531D02*
X11117682Y-19466960D01*
X11117682Y-19466960D02*
X11127206Y-19419341D01*
X11127206Y-19419341D02*
X11127206Y-19381246D01*
X11127206Y-19381246D02*
X11117682Y-19333627D01*
X11117682Y-19333627D02*
X11108158Y-19305055D01*
X11108158Y-19305055D02*
X11098634Y-19286008D01*
X11098634Y-19286008D02*
X11079587Y-19257436D01*
X11079587Y-19257436D02*
X11070063Y-19247912D01*
X11431968Y-19552674D02*
X11422444Y-19543150D01*
X11422444Y-19543150D02*
X11403396Y-19514579D01*
X11403396Y-19514579D02*
X11393872Y-19495531D01*
X11393872Y-19495531D02*
X11384349Y-19466960D01*
X11384349Y-19466960D02*
X11374825Y-19419341D01*
X11374825Y-19419341D02*
X11374825Y-19381246D01*
X11374825Y-19381246D02*
X11384349Y-19333627D01*
X11384349Y-19333627D02*
X11393872Y-19305055D01*
X11393872Y-19305055D02*
X11403396Y-19286008D01*
X11403396Y-19286008D02*
X11422444Y-19257436D01*
X11422444Y-19257436D02*
X11431968Y-19247912D01*
X11508158Y-19343150D02*
X11508158Y-19476484D01*
X11508158Y-19362198D02*
X11517682Y-19352674D01*
X11517682Y-19352674D02*
X11536730Y-19343150D01*
X11536730Y-19343150D02*
X11565301Y-19343150D01*
X11565301Y-19343150D02*
X11584349Y-19352674D01*
X11584349Y-19352674D02*
X11593872Y-19371722D01*
X11593872Y-19371722D02*
X11593872Y-19476484D01*
X11717682Y-19476484D02*
X11698634Y-19466960D01*
X11698634Y-19466960D02*
X11689111Y-19457436D01*
X11689111Y-19457436D02*
X11679587Y-19438389D01*
X11679587Y-19438389D02*
X11679587Y-19381246D01*
X11679587Y-19381246D02*
X11689111Y-19362198D01*
X11689111Y-19362198D02*
X11698634Y-19352674D01*
X11698634Y-19352674D02*
X11717682Y-19343150D01*
X11717682Y-19343150D02*
X11746253Y-19343150D01*
X11746253Y-19343150D02*
X11765301Y-19352674D01*
X11765301Y-19352674D02*
X11774825Y-19362198D01*
X11774825Y-19362198D02*
X11784349Y-19381246D01*
X11784349Y-19381246D02*
X11784349Y-19438389D01*
X11784349Y-19438389D02*
X11774825Y-19457436D01*
X11774825Y-19457436D02*
X11765301Y-19466960D01*
X11765301Y-19466960D02*
X11746253Y-19476484D01*
X11746253Y-19476484D02*
X11717682Y-19476484D01*
X11841492Y-19343150D02*
X11917682Y-19343150D01*
X11870063Y-19276484D02*
X11870063Y-19447912D01*
X11870063Y-19447912D02*
X11879587Y-19466960D01*
X11879587Y-19466960D02*
X11898634Y-19476484D01*
X11898634Y-19476484D02*
X11917682Y-19476484D01*
X12136730Y-19343150D02*
X12136730Y-19543150D01*
X12136730Y-19352674D02*
X12155777Y-19343150D01*
X12155777Y-19343150D02*
X12193873Y-19343150D01*
X12193873Y-19343150D02*
X12212920Y-19352674D01*
X12212920Y-19352674D02*
X12222444Y-19362198D01*
X12222444Y-19362198D02*
X12231968Y-19381246D01*
X12231968Y-19381246D02*
X12231968Y-19438389D01*
X12231968Y-19438389D02*
X12222444Y-19457436D01*
X12222444Y-19457436D02*
X12212920Y-19466960D01*
X12212920Y-19466960D02*
X12193873Y-19476484D01*
X12193873Y-19476484D02*
X12155777Y-19476484D01*
X12155777Y-19476484D02*
X12136730Y-19466960D01*
X12346253Y-19476484D02*
X12327206Y-19466960D01*
X12327206Y-19466960D02*
X12317682Y-19447912D01*
X12317682Y-19447912D02*
X12317682Y-19276484D01*
X12508158Y-19476484D02*
X12508158Y-19371722D01*
X12508158Y-19371722D02*
X12498634Y-19352674D01*
X12498634Y-19352674D02*
X12479587Y-19343150D01*
X12479587Y-19343150D02*
X12441492Y-19343150D01*
X12441492Y-19343150D02*
X12422444Y-19352674D01*
X12508158Y-19466960D02*
X12489111Y-19476484D01*
X12489111Y-19476484D02*
X12441492Y-19476484D01*
X12441492Y-19476484D02*
X12422444Y-19466960D01*
X12422444Y-19466960D02*
X12412920Y-19447912D01*
X12412920Y-19447912D02*
X12412920Y-19428865D01*
X12412920Y-19428865D02*
X12422444Y-19409817D01*
X12422444Y-19409817D02*
X12441492Y-19400293D01*
X12441492Y-19400293D02*
X12489111Y-19400293D01*
X12489111Y-19400293D02*
X12508158Y-19390770D01*
X12574825Y-19343150D02*
X12651015Y-19343150D01*
X12603396Y-19276484D02*
X12603396Y-19447912D01*
X12603396Y-19447912D02*
X12612920Y-19466960D01*
X12612920Y-19466960D02*
X12631968Y-19476484D01*
X12631968Y-19476484D02*
X12651015Y-19476484D01*
X12793873Y-19466960D02*
X12774825Y-19476484D01*
X12774825Y-19476484D02*
X12736730Y-19476484D01*
X12736730Y-19476484D02*
X12717682Y-19466960D01*
X12717682Y-19466960D02*
X12708158Y-19447912D01*
X12708158Y-19447912D02*
X12708158Y-19371722D01*
X12708158Y-19371722D02*
X12717682Y-19352674D01*
X12717682Y-19352674D02*
X12736730Y-19343150D01*
X12736730Y-19343150D02*
X12774825Y-19343150D01*
X12774825Y-19343150D02*
X12793873Y-19352674D01*
X12793873Y-19352674D02*
X12803396Y-19371722D01*
X12803396Y-19371722D02*
X12803396Y-19390770D01*
X12803396Y-19390770D02*
X12708158Y-19409817D01*
X12974825Y-19476484D02*
X12974825Y-19276484D01*
X12974825Y-19466960D02*
X12955777Y-19476484D01*
X12955777Y-19476484D02*
X12917682Y-19476484D01*
X12917682Y-19476484D02*
X12898634Y-19466960D01*
X12898634Y-19466960D02*
X12889111Y-19457436D01*
X12889111Y-19457436D02*
X12879587Y-19438389D01*
X12879587Y-19438389D02*
X12879587Y-19381246D01*
X12879587Y-19381246D02*
X12889111Y-19362198D01*
X12889111Y-19362198D02*
X12898634Y-19352674D01*
X12898634Y-19352674D02*
X12917682Y-19343150D01*
X12917682Y-19343150D02*
X12955777Y-19343150D01*
X12955777Y-19343150D02*
X12974825Y-19352674D01*
X13051015Y-19552674D02*
X13060539Y-19543150D01*
X13060539Y-19543150D02*
X13079587Y-19514579D01*
X13079587Y-19514579D02*
X13089111Y-19495531D01*
X13089111Y-19495531D02*
X13098634Y-19466960D01*
X13098634Y-19466960D02*
X13108158Y-19419341D01*
X13108158Y-19419341D02*
X13108158Y-19381246D01*
X13108158Y-19381246D02*
X13098634Y-19333627D01*
X13098634Y-19333627D02*
X13089111Y-19305055D01*
X13089111Y-19305055D02*
X13079587Y-19286008D01*
X13079587Y-19286008D02*
X13060539Y-19257436D01*
X13060539Y-19257436D02*
X13051015Y-19247912D01*
D13*
X6295000Y-19649000D02*
G75*
G02*
X6135000Y-19649000I-80000J0D01*
G01*
X6135000Y-19649000D02*
G75*
G02*
X6295000Y-19649000I80000J0D01*
G01*
D11*
X6660539Y-19740484D02*
X6546253Y-19740484D01*
X6603396Y-19740484D02*
X6603396Y-19540484D01*
X6603396Y-19540484D02*
X6584348Y-19569055D01*
X6584348Y-19569055D02*
X6565301Y-19588103D01*
X6565301Y-19588103D02*
X6546253Y-19597627D01*
X6746253Y-19721436D02*
X6755777Y-19730960D01*
X6755777Y-19730960D02*
X6746253Y-19740484D01*
X6746253Y-19740484D02*
X6736729Y-19730960D01*
X6736729Y-19730960D02*
X6746253Y-19721436D01*
X6746253Y-19721436D02*
X6746253Y-19740484D01*
X6927205Y-19540484D02*
X6889110Y-19540484D01*
X6889110Y-19540484D02*
X6870062Y-19550008D01*
X6870062Y-19550008D02*
X6860539Y-19559531D01*
X6860539Y-19559531D02*
X6841491Y-19588103D01*
X6841491Y-19588103D02*
X6831967Y-19626198D01*
X6831967Y-19626198D02*
X6831967Y-19702389D01*
X6831967Y-19702389D02*
X6841491Y-19721436D01*
X6841491Y-19721436D02*
X6851015Y-19730960D01*
X6851015Y-19730960D02*
X6870062Y-19740484D01*
X6870062Y-19740484D02*
X6908158Y-19740484D01*
X6908158Y-19740484D02*
X6927205Y-19730960D01*
X6927205Y-19730960D02*
X6936729Y-19721436D01*
X6936729Y-19721436D02*
X6946253Y-19702389D01*
X6946253Y-19702389D02*
X6946253Y-19654770D01*
X6946253Y-19654770D02*
X6936729Y-19635722D01*
X6936729Y-19635722D02*
X6927205Y-19626198D01*
X6927205Y-19626198D02*
X6908158Y-19616674D01*
X6908158Y-19616674D02*
X6870062Y-19616674D01*
X6870062Y-19616674D02*
X6851015Y-19626198D01*
X6851015Y-19626198D02*
X6841491Y-19635722D01*
X6841491Y-19635722D02*
X6831967Y-19654770D01*
X7070062Y-19540484D02*
X7089110Y-19540484D01*
X7089110Y-19540484D02*
X7108158Y-19550008D01*
X7108158Y-19550008D02*
X7117682Y-19559531D01*
X7117682Y-19559531D02*
X7127205Y-19578579D01*
X7127205Y-19578579D02*
X7136729Y-19616674D01*
X7136729Y-19616674D02*
X7136729Y-19664293D01*
X7136729Y-19664293D02*
X7127205Y-19702389D01*
X7127205Y-19702389D02*
X7117682Y-19721436D01*
X7117682Y-19721436D02*
X7108158Y-19730960D01*
X7108158Y-19730960D02*
X7089110Y-19740484D01*
X7089110Y-19740484D02*
X7070062Y-19740484D01*
X7070062Y-19740484D02*
X7051015Y-19730960D01*
X7051015Y-19730960D02*
X7041491Y-19721436D01*
X7041491Y-19721436D02*
X7031967Y-19702389D01*
X7031967Y-19702389D02*
X7022443Y-19664293D01*
X7022443Y-19664293D02*
X7022443Y-19616674D01*
X7022443Y-19616674D02*
X7031967Y-19578579D01*
X7031967Y-19578579D02*
X7041491Y-19559531D01*
X7041491Y-19559531D02*
X7051015Y-19550008D01*
X7051015Y-19550008D02*
X7070062Y-19540484D01*
X7260539Y-19540484D02*
X7279586Y-19540484D01*
X7279586Y-19540484D02*
X7298634Y-19550008D01*
X7298634Y-19550008D02*
X7308158Y-19559531D01*
X7308158Y-19559531D02*
X7317682Y-19578579D01*
X7317682Y-19578579D02*
X7327205Y-19616674D01*
X7327205Y-19616674D02*
X7327205Y-19664293D01*
X7327205Y-19664293D02*
X7317682Y-19702389D01*
X7317682Y-19702389D02*
X7308158Y-19721436D01*
X7308158Y-19721436D02*
X7298634Y-19730960D01*
X7298634Y-19730960D02*
X7279586Y-19740484D01*
X7279586Y-19740484D02*
X7260539Y-19740484D01*
X7260539Y-19740484D02*
X7241491Y-19730960D01*
X7241491Y-19730960D02*
X7231967Y-19721436D01*
X7231967Y-19721436D02*
X7222443Y-19702389D01*
X7222443Y-19702389D02*
X7212920Y-19664293D01*
X7212920Y-19664293D02*
X7212920Y-19616674D01*
X7212920Y-19616674D02*
X7222443Y-19578579D01*
X7222443Y-19578579D02*
X7231967Y-19559531D01*
X7231967Y-19559531D02*
X7241491Y-19550008D01*
X7241491Y-19550008D02*
X7260539Y-19540484D01*
X7412920Y-19740484D02*
X7412920Y-19607150D01*
X7412920Y-19626198D02*
X7422443Y-19616674D01*
X7422443Y-19616674D02*
X7441491Y-19607150D01*
X7441491Y-19607150D02*
X7470063Y-19607150D01*
X7470063Y-19607150D02*
X7489110Y-19616674D01*
X7489110Y-19616674D02*
X7498634Y-19635722D01*
X7498634Y-19635722D02*
X7498634Y-19740484D01*
X7498634Y-19635722D02*
X7508158Y-19616674D01*
X7508158Y-19616674D02*
X7527205Y-19607150D01*
X7527205Y-19607150D02*
X7555777Y-19607150D01*
X7555777Y-19607150D02*
X7574824Y-19616674D01*
X7574824Y-19616674D02*
X7584348Y-19635722D01*
X7584348Y-19635722D02*
X7584348Y-19740484D01*
X7679586Y-19740484D02*
X7679586Y-19607150D01*
X7679586Y-19626198D02*
X7689110Y-19616674D01*
X7689110Y-19616674D02*
X7708158Y-19607150D01*
X7708158Y-19607150D02*
X7736729Y-19607150D01*
X7736729Y-19607150D02*
X7755777Y-19616674D01*
X7755777Y-19616674D02*
X7765301Y-19635722D01*
X7765301Y-19635722D02*
X7765301Y-19740484D01*
X7765301Y-19635722D02*
X7774824Y-19616674D01*
X7774824Y-19616674D02*
X7793872Y-19607150D01*
X7793872Y-19607150D02*
X7822443Y-19607150D01*
X7822443Y-19607150D02*
X7841491Y-19616674D01*
X7841491Y-19616674D02*
X7851015Y-19635722D01*
X7851015Y-19635722D02*
X7851015Y-19740484D01*
X8241491Y-19530960D02*
X8070063Y-19788103D01*
X8498634Y-19540484D02*
X8517682Y-19540484D01*
X8517682Y-19540484D02*
X8536729Y-19550008D01*
X8536729Y-19550008D02*
X8546253Y-19559531D01*
X8546253Y-19559531D02*
X8555777Y-19578579D01*
X8555777Y-19578579D02*
X8565301Y-19616674D01*
X8565301Y-19616674D02*
X8565301Y-19664293D01*
X8565301Y-19664293D02*
X8555777Y-19702389D01*
X8555777Y-19702389D02*
X8546253Y-19721436D01*
X8546253Y-19721436D02*
X8536729Y-19730960D01*
X8536729Y-19730960D02*
X8517682Y-19740484D01*
X8517682Y-19740484D02*
X8498634Y-19740484D01*
X8498634Y-19740484D02*
X8479587Y-19730960D01*
X8479587Y-19730960D02*
X8470063Y-19721436D01*
X8470063Y-19721436D02*
X8460539Y-19702389D01*
X8460539Y-19702389D02*
X8451015Y-19664293D01*
X8451015Y-19664293D02*
X8451015Y-19616674D01*
X8451015Y-19616674D02*
X8460539Y-19578579D01*
X8460539Y-19578579D02*
X8470063Y-19559531D01*
X8470063Y-19559531D02*
X8479587Y-19550008D01*
X8479587Y-19550008D02*
X8498634Y-19540484D01*
X8651015Y-19721436D02*
X8660539Y-19730960D01*
X8660539Y-19730960D02*
X8651015Y-19740484D01*
X8651015Y-19740484D02*
X8641491Y-19730960D01*
X8641491Y-19730960D02*
X8651015Y-19721436D01*
X8651015Y-19721436D02*
X8651015Y-19740484D01*
X8784348Y-19540484D02*
X8803396Y-19540484D01*
X8803396Y-19540484D02*
X8822444Y-19550008D01*
X8822444Y-19550008D02*
X8831968Y-19559531D01*
X8831968Y-19559531D02*
X8841491Y-19578579D01*
X8841491Y-19578579D02*
X8851015Y-19616674D01*
X8851015Y-19616674D02*
X8851015Y-19664293D01*
X8851015Y-19664293D02*
X8841491Y-19702389D01*
X8841491Y-19702389D02*
X8831968Y-19721436D01*
X8831968Y-19721436D02*
X8822444Y-19730960D01*
X8822444Y-19730960D02*
X8803396Y-19740484D01*
X8803396Y-19740484D02*
X8784348Y-19740484D01*
X8784348Y-19740484D02*
X8765301Y-19730960D01*
X8765301Y-19730960D02*
X8755777Y-19721436D01*
X8755777Y-19721436D02*
X8746253Y-19702389D01*
X8746253Y-19702389D02*
X8736729Y-19664293D01*
X8736729Y-19664293D02*
X8736729Y-19616674D01*
X8736729Y-19616674D02*
X8746253Y-19578579D01*
X8746253Y-19578579D02*
X8755777Y-19559531D01*
X8755777Y-19559531D02*
X8765301Y-19550008D01*
X8765301Y-19550008D02*
X8784348Y-19540484D01*
X9022444Y-19540484D02*
X8984348Y-19540484D01*
X8984348Y-19540484D02*
X8965301Y-19550008D01*
X8965301Y-19550008D02*
X8955777Y-19559531D01*
X8955777Y-19559531D02*
X8936729Y-19588103D01*
X8936729Y-19588103D02*
X8927206Y-19626198D01*
X8927206Y-19626198D02*
X8927206Y-19702389D01*
X8927206Y-19702389D02*
X8936729Y-19721436D01*
X8936729Y-19721436D02*
X8946253Y-19730960D01*
X8946253Y-19730960D02*
X8965301Y-19740484D01*
X8965301Y-19740484D02*
X9003396Y-19740484D01*
X9003396Y-19740484D02*
X9022444Y-19730960D01*
X9022444Y-19730960D02*
X9031968Y-19721436D01*
X9031968Y-19721436D02*
X9041491Y-19702389D01*
X9041491Y-19702389D02*
X9041491Y-19654770D01*
X9041491Y-19654770D02*
X9031968Y-19635722D01*
X9031968Y-19635722D02*
X9022444Y-19626198D01*
X9022444Y-19626198D02*
X9003396Y-19616674D01*
X9003396Y-19616674D02*
X8965301Y-19616674D01*
X8965301Y-19616674D02*
X8946253Y-19626198D01*
X8946253Y-19626198D02*
X8936729Y-19635722D01*
X8936729Y-19635722D02*
X8927206Y-19654770D01*
X9108158Y-19540484D02*
X9231968Y-19540484D01*
X9231968Y-19540484D02*
X9165301Y-19616674D01*
X9165301Y-19616674D02*
X9193872Y-19616674D01*
X9193872Y-19616674D02*
X9212920Y-19626198D01*
X9212920Y-19626198D02*
X9222444Y-19635722D01*
X9222444Y-19635722D02*
X9231968Y-19654770D01*
X9231968Y-19654770D02*
X9231968Y-19702389D01*
X9231968Y-19702389D02*
X9222444Y-19721436D01*
X9222444Y-19721436D02*
X9212920Y-19730960D01*
X9212920Y-19730960D02*
X9193872Y-19740484D01*
X9193872Y-19740484D02*
X9136729Y-19740484D01*
X9136729Y-19740484D02*
X9117682Y-19730960D01*
X9117682Y-19730960D02*
X9108158Y-19721436D01*
X9355777Y-19540484D02*
X9374825Y-19540484D01*
X9374825Y-19540484D02*
X9393872Y-19550008D01*
X9393872Y-19550008D02*
X9403396Y-19559531D01*
X9403396Y-19559531D02*
X9412920Y-19578579D01*
X9412920Y-19578579D02*
X9422444Y-19616674D01*
X9422444Y-19616674D02*
X9422444Y-19664293D01*
X9422444Y-19664293D02*
X9412920Y-19702389D01*
X9412920Y-19702389D02*
X9403396Y-19721436D01*
X9403396Y-19721436D02*
X9393872Y-19730960D01*
X9393872Y-19730960D02*
X9374825Y-19740484D01*
X9374825Y-19740484D02*
X9355777Y-19740484D01*
X9355777Y-19740484D02*
X9336729Y-19730960D01*
X9336729Y-19730960D02*
X9327206Y-19721436D01*
X9327206Y-19721436D02*
X9317682Y-19702389D01*
X9317682Y-19702389D02*
X9308158Y-19664293D01*
X9308158Y-19664293D02*
X9308158Y-19616674D01*
X9308158Y-19616674D02*
X9317682Y-19578579D01*
X9317682Y-19578579D02*
X9327206Y-19559531D01*
X9327206Y-19559531D02*
X9336729Y-19550008D01*
X9336729Y-19550008D02*
X9355777Y-19540484D01*
X9498634Y-19540484D02*
X9498634Y-19578579D01*
X9574825Y-19540484D02*
X9574825Y-19578579D01*
X9870063Y-19816674D02*
X9860539Y-19807150D01*
X9860539Y-19807150D02*
X9841491Y-19778579D01*
X9841491Y-19778579D02*
X9831968Y-19759531D01*
X9831968Y-19759531D02*
X9822444Y-19730960D01*
X9822444Y-19730960D02*
X9812920Y-19683341D01*
X9812920Y-19683341D02*
X9812920Y-19645246D01*
X9812920Y-19645246D02*
X9822444Y-19597627D01*
X9822444Y-19597627D02*
X9831968Y-19569055D01*
X9831968Y-19569055D02*
X9841491Y-19550008D01*
X9841491Y-19550008D02*
X9860539Y-19521436D01*
X9860539Y-19521436D02*
X9870063Y-19511912D01*
X10041491Y-19540484D02*
X9946253Y-19540484D01*
X9946253Y-19540484D02*
X9936730Y-19635722D01*
X9936730Y-19635722D02*
X9946253Y-19626198D01*
X9946253Y-19626198D02*
X9965301Y-19616674D01*
X9965301Y-19616674D02*
X10012920Y-19616674D01*
X10012920Y-19616674D02*
X10031968Y-19626198D01*
X10031968Y-19626198D02*
X10041491Y-19635722D01*
X10041491Y-19635722D02*
X10051015Y-19654770D01*
X10051015Y-19654770D02*
X10051015Y-19702389D01*
X10051015Y-19702389D02*
X10041491Y-19721436D01*
X10041491Y-19721436D02*
X10031968Y-19730960D01*
X10031968Y-19730960D02*
X10012920Y-19740484D01*
X10012920Y-19740484D02*
X9965301Y-19740484D01*
X9965301Y-19740484D02*
X9946253Y-19730960D01*
X9946253Y-19730960D02*
X9936730Y-19721436D01*
X10289111Y-19740484D02*
X10289111Y-19540484D01*
X10374825Y-19740484D02*
X10374825Y-19635722D01*
X10374825Y-19635722D02*
X10365301Y-19616674D01*
X10365301Y-19616674D02*
X10346253Y-19607150D01*
X10346253Y-19607150D02*
X10317682Y-19607150D01*
X10317682Y-19607150D02*
X10298634Y-19616674D01*
X10298634Y-19616674D02*
X10289111Y-19626198D01*
X10498634Y-19740484D02*
X10479587Y-19730960D01*
X10479587Y-19730960D02*
X10470063Y-19721436D01*
X10470063Y-19721436D02*
X10460539Y-19702389D01*
X10460539Y-19702389D02*
X10460539Y-19645246D01*
X10460539Y-19645246D02*
X10470063Y-19626198D01*
X10470063Y-19626198D02*
X10479587Y-19616674D01*
X10479587Y-19616674D02*
X10498634Y-19607150D01*
X10498634Y-19607150D02*
X10527206Y-19607150D01*
X10527206Y-19607150D02*
X10546253Y-19616674D01*
X10546253Y-19616674D02*
X10555777Y-19626198D01*
X10555777Y-19626198D02*
X10565301Y-19645246D01*
X10565301Y-19645246D02*
X10565301Y-19702389D01*
X10565301Y-19702389D02*
X10555777Y-19721436D01*
X10555777Y-19721436D02*
X10546253Y-19730960D01*
X10546253Y-19730960D02*
X10527206Y-19740484D01*
X10527206Y-19740484D02*
X10498634Y-19740484D01*
X10679587Y-19740484D02*
X10660539Y-19730960D01*
X10660539Y-19730960D02*
X10651015Y-19711912D01*
X10651015Y-19711912D02*
X10651015Y-19540484D01*
X10831968Y-19730960D02*
X10812920Y-19740484D01*
X10812920Y-19740484D02*
X10774825Y-19740484D01*
X10774825Y-19740484D02*
X10755777Y-19730960D01*
X10755777Y-19730960D02*
X10746253Y-19711912D01*
X10746253Y-19711912D02*
X10746253Y-19635722D01*
X10746253Y-19635722D02*
X10755777Y-19616674D01*
X10755777Y-19616674D02*
X10774825Y-19607150D01*
X10774825Y-19607150D02*
X10812920Y-19607150D01*
X10812920Y-19607150D02*
X10831968Y-19616674D01*
X10831968Y-19616674D02*
X10841492Y-19635722D01*
X10841492Y-19635722D02*
X10841492Y-19654770D01*
X10841492Y-19654770D02*
X10746253Y-19673817D01*
X10917682Y-19730960D02*
X10936730Y-19740484D01*
X10936730Y-19740484D02*
X10974825Y-19740484D01*
X10974825Y-19740484D02*
X10993873Y-19730960D01*
X10993873Y-19730960D02*
X11003396Y-19711912D01*
X11003396Y-19711912D02*
X11003396Y-19702389D01*
X11003396Y-19702389D02*
X10993873Y-19683341D01*
X10993873Y-19683341D02*
X10974825Y-19673817D01*
X10974825Y-19673817D02*
X10946253Y-19673817D01*
X10946253Y-19673817D02*
X10927206Y-19664293D01*
X10927206Y-19664293D02*
X10917682Y-19645246D01*
X10917682Y-19645246D02*
X10917682Y-19635722D01*
X10917682Y-19635722D02*
X10927206Y-19616674D01*
X10927206Y-19616674D02*
X10946253Y-19607150D01*
X10946253Y-19607150D02*
X10974825Y-19607150D01*
X10974825Y-19607150D02*
X10993873Y-19616674D01*
X11070063Y-19816674D02*
X11079587Y-19807150D01*
X11079587Y-19807150D02*
X11098634Y-19778579D01*
X11098634Y-19778579D02*
X11108158Y-19759531D01*
X11108158Y-19759531D02*
X11117682Y-19730960D01*
X11117682Y-19730960D02*
X11127206Y-19683341D01*
X11127206Y-19683341D02*
X11127206Y-19645246D01*
X11127206Y-19645246D02*
X11117682Y-19597627D01*
X11117682Y-19597627D02*
X11108158Y-19569055D01*
X11108158Y-19569055D02*
X11098634Y-19550008D01*
X11098634Y-19550008D02*
X11079587Y-19521436D01*
X11079587Y-19521436D02*
X11070063Y-19511912D01*
X11431968Y-19816674D02*
X11422444Y-19807150D01*
X11422444Y-19807150D02*
X11403396Y-19778579D01*
X11403396Y-19778579D02*
X11393872Y-19759531D01*
X11393872Y-19759531D02*
X11384349Y-19730960D01*
X11384349Y-19730960D02*
X11374825Y-19683341D01*
X11374825Y-19683341D02*
X11374825Y-19645246D01*
X11374825Y-19645246D02*
X11384349Y-19597627D01*
X11384349Y-19597627D02*
X11393872Y-19569055D01*
X11393872Y-19569055D02*
X11403396Y-19550008D01*
X11403396Y-19550008D02*
X11422444Y-19521436D01*
X11422444Y-19521436D02*
X11431968Y-19511912D01*
X11508158Y-19607150D02*
X11508158Y-19740484D01*
X11508158Y-19626198D02*
X11517682Y-19616674D01*
X11517682Y-19616674D02*
X11536730Y-19607150D01*
X11536730Y-19607150D02*
X11565301Y-19607150D01*
X11565301Y-19607150D02*
X11584349Y-19616674D01*
X11584349Y-19616674D02*
X11593872Y-19635722D01*
X11593872Y-19635722D02*
X11593872Y-19740484D01*
X11717682Y-19740484D02*
X11698634Y-19730960D01*
X11698634Y-19730960D02*
X11689111Y-19721436D01*
X11689111Y-19721436D02*
X11679587Y-19702389D01*
X11679587Y-19702389D02*
X11679587Y-19645246D01*
X11679587Y-19645246D02*
X11689111Y-19626198D01*
X11689111Y-19626198D02*
X11698634Y-19616674D01*
X11698634Y-19616674D02*
X11717682Y-19607150D01*
X11717682Y-19607150D02*
X11746253Y-19607150D01*
X11746253Y-19607150D02*
X11765301Y-19616674D01*
X11765301Y-19616674D02*
X11774825Y-19626198D01*
X11774825Y-19626198D02*
X11784349Y-19645246D01*
X11784349Y-19645246D02*
X11784349Y-19702389D01*
X11784349Y-19702389D02*
X11774825Y-19721436D01*
X11774825Y-19721436D02*
X11765301Y-19730960D01*
X11765301Y-19730960D02*
X11746253Y-19740484D01*
X11746253Y-19740484D02*
X11717682Y-19740484D01*
X11841492Y-19607150D02*
X11917682Y-19607150D01*
X11870063Y-19540484D02*
X11870063Y-19711912D01*
X11870063Y-19711912D02*
X11879587Y-19730960D01*
X11879587Y-19730960D02*
X11898634Y-19740484D01*
X11898634Y-19740484D02*
X11917682Y-19740484D01*
X12136730Y-19607150D02*
X12136730Y-19807150D01*
X12136730Y-19616674D02*
X12155777Y-19607150D01*
X12155777Y-19607150D02*
X12193873Y-19607150D01*
X12193873Y-19607150D02*
X12212920Y-19616674D01*
X12212920Y-19616674D02*
X12222444Y-19626198D01*
X12222444Y-19626198D02*
X12231968Y-19645246D01*
X12231968Y-19645246D02*
X12231968Y-19702389D01*
X12231968Y-19702389D02*
X12222444Y-19721436D01*
X12222444Y-19721436D02*
X12212920Y-19730960D01*
X12212920Y-19730960D02*
X12193873Y-19740484D01*
X12193873Y-19740484D02*
X12155777Y-19740484D01*
X12155777Y-19740484D02*
X12136730Y-19730960D01*
X12346253Y-19740484D02*
X12327206Y-19730960D01*
X12327206Y-19730960D02*
X12317682Y-19711912D01*
X12317682Y-19711912D02*
X12317682Y-19540484D01*
X12508158Y-19740484D02*
X12508158Y-19635722D01*
X12508158Y-19635722D02*
X12498634Y-19616674D01*
X12498634Y-19616674D02*
X12479587Y-19607150D01*
X12479587Y-19607150D02*
X12441492Y-19607150D01*
X12441492Y-19607150D02*
X12422444Y-19616674D01*
X12508158Y-19730960D02*
X12489111Y-19740484D01*
X12489111Y-19740484D02*
X12441492Y-19740484D01*
X12441492Y-19740484D02*
X12422444Y-19730960D01*
X12422444Y-19730960D02*
X12412920Y-19711912D01*
X12412920Y-19711912D02*
X12412920Y-19692865D01*
X12412920Y-19692865D02*
X12422444Y-19673817D01*
X12422444Y-19673817D02*
X12441492Y-19664293D01*
X12441492Y-19664293D02*
X12489111Y-19664293D01*
X12489111Y-19664293D02*
X12508158Y-19654770D01*
X12574825Y-19607150D02*
X12651015Y-19607150D01*
X12603396Y-19540484D02*
X12603396Y-19711912D01*
X12603396Y-19711912D02*
X12612920Y-19730960D01*
X12612920Y-19730960D02*
X12631968Y-19740484D01*
X12631968Y-19740484D02*
X12651015Y-19740484D01*
X12793873Y-19730960D02*
X12774825Y-19740484D01*
X12774825Y-19740484D02*
X12736730Y-19740484D01*
X12736730Y-19740484D02*
X12717682Y-19730960D01*
X12717682Y-19730960D02*
X12708158Y-19711912D01*
X12708158Y-19711912D02*
X12708158Y-19635722D01*
X12708158Y-19635722D02*
X12717682Y-19616674D01*
X12717682Y-19616674D02*
X12736730Y-19607150D01*
X12736730Y-19607150D02*
X12774825Y-19607150D01*
X12774825Y-19607150D02*
X12793873Y-19616674D01*
X12793873Y-19616674D02*
X12803396Y-19635722D01*
X12803396Y-19635722D02*
X12803396Y-19654770D01*
X12803396Y-19654770D02*
X12708158Y-19673817D01*
X12974825Y-19740484D02*
X12974825Y-19540484D01*
X12974825Y-19730960D02*
X12955777Y-19740484D01*
X12955777Y-19740484D02*
X12917682Y-19740484D01*
X12917682Y-19740484D02*
X12898634Y-19730960D01*
X12898634Y-19730960D02*
X12889111Y-19721436D01*
X12889111Y-19721436D02*
X12879587Y-19702389D01*
X12879587Y-19702389D02*
X12879587Y-19645246D01*
X12879587Y-19645246D02*
X12889111Y-19626198D01*
X12889111Y-19626198D02*
X12898634Y-19616674D01*
X12898634Y-19616674D02*
X12917682Y-19607150D01*
X12917682Y-19607150D02*
X12955777Y-19607150D01*
X12955777Y-19607150D02*
X12974825Y-19616674D01*
X13051015Y-19816674D02*
X13060539Y-19807150D01*
X13060539Y-19807150D02*
X13079587Y-19778579D01*
X13079587Y-19778579D02*
X13089111Y-19759531D01*
X13089111Y-19759531D02*
X13098634Y-19730960D01*
X13098634Y-19730960D02*
X13108158Y-19683341D01*
X13108158Y-19683341D02*
X13108158Y-19645246D01*
X13108158Y-19645246D02*
X13098634Y-19597627D01*
X13098634Y-19597627D02*
X13089111Y-19569055D01*
X13089111Y-19569055D02*
X13079587Y-19550008D01*
X13079587Y-19550008D02*
X13060539Y-19521436D01*
X13060539Y-19521436D02*
X13051015Y-19511912D01*
X6195000Y-19829000D02*
X6195000Y-20029000D01*
X6095000Y-19929000D02*
X6295000Y-19929000D01*
X6546253Y-19839531D02*
X6555777Y-19830008D01*
X6555777Y-19830008D02*
X6574824Y-19820484D01*
X6574824Y-19820484D02*
X6622443Y-19820484D01*
X6622443Y-19820484D02*
X6641491Y-19830008D01*
X6641491Y-19830008D02*
X6651015Y-19839531D01*
X6651015Y-19839531D02*
X6660539Y-19858579D01*
X6660539Y-19858579D02*
X6660539Y-19877627D01*
X6660539Y-19877627D02*
X6651015Y-19906198D01*
X6651015Y-19906198D02*
X6536729Y-20020484D01*
X6536729Y-20020484D02*
X6660539Y-20020484D01*
X6746253Y-20001436D02*
X6755777Y-20010960D01*
X6755777Y-20010960D02*
X6746253Y-20020484D01*
X6746253Y-20020484D02*
X6736729Y-20010960D01*
X6736729Y-20010960D02*
X6746253Y-20001436D01*
X6746253Y-20001436D02*
X6746253Y-20020484D01*
X6822443Y-19820484D02*
X6955777Y-19820484D01*
X6955777Y-19820484D02*
X6870062Y-20020484D01*
X7070062Y-19820484D02*
X7089110Y-19820484D01*
X7089110Y-19820484D02*
X7108158Y-19830008D01*
X7108158Y-19830008D02*
X7117682Y-19839531D01*
X7117682Y-19839531D02*
X7127205Y-19858579D01*
X7127205Y-19858579D02*
X7136729Y-19896674D01*
X7136729Y-19896674D02*
X7136729Y-19944293D01*
X7136729Y-19944293D02*
X7127205Y-19982389D01*
X7127205Y-19982389D02*
X7117682Y-20001436D01*
X7117682Y-20001436D02*
X7108158Y-20010960D01*
X7108158Y-20010960D02*
X7089110Y-20020484D01*
X7089110Y-20020484D02*
X7070062Y-20020484D01*
X7070062Y-20020484D02*
X7051015Y-20010960D01*
X7051015Y-20010960D02*
X7041491Y-20001436D01*
X7041491Y-20001436D02*
X7031967Y-19982389D01*
X7031967Y-19982389D02*
X7022443Y-19944293D01*
X7022443Y-19944293D02*
X7022443Y-19896674D01*
X7022443Y-19896674D02*
X7031967Y-19858579D01*
X7031967Y-19858579D02*
X7041491Y-19839531D01*
X7041491Y-19839531D02*
X7051015Y-19830008D01*
X7051015Y-19830008D02*
X7070062Y-19820484D01*
X7260539Y-19820484D02*
X7279586Y-19820484D01*
X7279586Y-19820484D02*
X7298634Y-19830008D01*
X7298634Y-19830008D02*
X7308158Y-19839531D01*
X7308158Y-19839531D02*
X7317682Y-19858579D01*
X7317682Y-19858579D02*
X7327205Y-19896674D01*
X7327205Y-19896674D02*
X7327205Y-19944293D01*
X7327205Y-19944293D02*
X7317682Y-19982389D01*
X7317682Y-19982389D02*
X7308158Y-20001436D01*
X7308158Y-20001436D02*
X7298634Y-20010960D01*
X7298634Y-20010960D02*
X7279586Y-20020484D01*
X7279586Y-20020484D02*
X7260539Y-20020484D01*
X7260539Y-20020484D02*
X7241491Y-20010960D01*
X7241491Y-20010960D02*
X7231967Y-20001436D01*
X7231967Y-20001436D02*
X7222443Y-19982389D01*
X7222443Y-19982389D02*
X7212920Y-19944293D01*
X7212920Y-19944293D02*
X7212920Y-19896674D01*
X7212920Y-19896674D02*
X7222443Y-19858579D01*
X7222443Y-19858579D02*
X7231967Y-19839531D01*
X7231967Y-19839531D02*
X7241491Y-19830008D01*
X7241491Y-19830008D02*
X7260539Y-19820484D01*
X7412920Y-20020484D02*
X7412920Y-19887150D01*
X7412920Y-19906198D02*
X7422443Y-19896674D01*
X7422443Y-19896674D02*
X7441491Y-19887150D01*
X7441491Y-19887150D02*
X7470063Y-19887150D01*
X7470063Y-19887150D02*
X7489110Y-19896674D01*
X7489110Y-19896674D02*
X7498634Y-19915722D01*
X7498634Y-19915722D02*
X7498634Y-20020484D01*
X7498634Y-19915722D02*
X7508158Y-19896674D01*
X7508158Y-19896674D02*
X7527205Y-19887150D01*
X7527205Y-19887150D02*
X7555777Y-19887150D01*
X7555777Y-19887150D02*
X7574824Y-19896674D01*
X7574824Y-19896674D02*
X7584348Y-19915722D01*
X7584348Y-19915722D02*
X7584348Y-20020484D01*
X7679586Y-20020484D02*
X7679586Y-19887150D01*
X7679586Y-19906198D02*
X7689110Y-19896674D01*
X7689110Y-19896674D02*
X7708158Y-19887150D01*
X7708158Y-19887150D02*
X7736729Y-19887150D01*
X7736729Y-19887150D02*
X7755777Y-19896674D01*
X7755777Y-19896674D02*
X7765301Y-19915722D01*
X7765301Y-19915722D02*
X7765301Y-20020484D01*
X7765301Y-19915722D02*
X7774824Y-19896674D01*
X7774824Y-19896674D02*
X7793872Y-19887150D01*
X7793872Y-19887150D02*
X7822443Y-19887150D01*
X7822443Y-19887150D02*
X7841491Y-19896674D01*
X7841491Y-19896674D02*
X7851015Y-19915722D01*
X7851015Y-19915722D02*
X7851015Y-20020484D01*
X8241491Y-19810960D02*
X8070063Y-20068103D01*
X8498634Y-19820484D02*
X8517682Y-19820484D01*
X8517682Y-19820484D02*
X8536729Y-19830008D01*
X8536729Y-19830008D02*
X8546253Y-19839531D01*
X8546253Y-19839531D02*
X8555777Y-19858579D01*
X8555777Y-19858579D02*
X8565301Y-19896674D01*
X8565301Y-19896674D02*
X8565301Y-19944293D01*
X8565301Y-19944293D02*
X8555777Y-19982389D01*
X8555777Y-19982389D02*
X8546253Y-20001436D01*
X8546253Y-20001436D02*
X8536729Y-20010960D01*
X8536729Y-20010960D02*
X8517682Y-20020484D01*
X8517682Y-20020484D02*
X8498634Y-20020484D01*
X8498634Y-20020484D02*
X8479587Y-20010960D01*
X8479587Y-20010960D02*
X8470063Y-20001436D01*
X8470063Y-20001436D02*
X8460539Y-19982389D01*
X8460539Y-19982389D02*
X8451015Y-19944293D01*
X8451015Y-19944293D02*
X8451015Y-19896674D01*
X8451015Y-19896674D02*
X8460539Y-19858579D01*
X8460539Y-19858579D02*
X8470063Y-19839531D01*
X8470063Y-19839531D02*
X8479587Y-19830008D01*
X8479587Y-19830008D02*
X8498634Y-19820484D01*
X8651015Y-20001436D02*
X8660539Y-20010960D01*
X8660539Y-20010960D02*
X8651015Y-20020484D01*
X8651015Y-20020484D02*
X8641491Y-20010960D01*
X8641491Y-20010960D02*
X8651015Y-20001436D01*
X8651015Y-20001436D02*
X8651015Y-20020484D01*
X8851015Y-20020484D02*
X8736729Y-20020484D01*
X8793872Y-20020484D02*
X8793872Y-19820484D01*
X8793872Y-19820484D02*
X8774825Y-19849055D01*
X8774825Y-19849055D02*
X8755777Y-19868103D01*
X8755777Y-19868103D02*
X8736729Y-19877627D01*
X8974825Y-19820484D02*
X8993872Y-19820484D01*
X8993872Y-19820484D02*
X9012920Y-19830008D01*
X9012920Y-19830008D02*
X9022444Y-19839531D01*
X9022444Y-19839531D02*
X9031968Y-19858579D01*
X9031968Y-19858579D02*
X9041491Y-19896674D01*
X9041491Y-19896674D02*
X9041491Y-19944293D01*
X9041491Y-19944293D02*
X9031968Y-19982389D01*
X9031968Y-19982389D02*
X9022444Y-20001436D01*
X9022444Y-20001436D02*
X9012920Y-20010960D01*
X9012920Y-20010960D02*
X8993872Y-20020484D01*
X8993872Y-20020484D02*
X8974825Y-20020484D01*
X8974825Y-20020484D02*
X8955777Y-20010960D01*
X8955777Y-20010960D02*
X8946253Y-20001436D01*
X8946253Y-20001436D02*
X8936729Y-19982389D01*
X8936729Y-19982389D02*
X8927206Y-19944293D01*
X8927206Y-19944293D02*
X8927206Y-19896674D01*
X8927206Y-19896674D02*
X8936729Y-19858579D01*
X8936729Y-19858579D02*
X8946253Y-19839531D01*
X8946253Y-19839531D02*
X8955777Y-19830008D01*
X8955777Y-19830008D02*
X8974825Y-19820484D01*
X9212920Y-19820484D02*
X9174825Y-19820484D01*
X9174825Y-19820484D02*
X9155777Y-19830008D01*
X9155777Y-19830008D02*
X9146253Y-19839531D01*
X9146253Y-19839531D02*
X9127206Y-19868103D01*
X9127206Y-19868103D02*
X9117682Y-19906198D01*
X9117682Y-19906198D02*
X9117682Y-19982389D01*
X9117682Y-19982389D02*
X9127206Y-20001436D01*
X9127206Y-20001436D02*
X9136729Y-20010960D01*
X9136729Y-20010960D02*
X9155777Y-20020484D01*
X9155777Y-20020484D02*
X9193872Y-20020484D01*
X9193872Y-20020484D02*
X9212920Y-20010960D01*
X9212920Y-20010960D02*
X9222444Y-20001436D01*
X9222444Y-20001436D02*
X9231968Y-19982389D01*
X9231968Y-19982389D02*
X9231968Y-19934770D01*
X9231968Y-19934770D02*
X9222444Y-19915722D01*
X9222444Y-19915722D02*
X9212920Y-19906198D01*
X9212920Y-19906198D02*
X9193872Y-19896674D01*
X9193872Y-19896674D02*
X9155777Y-19896674D01*
X9155777Y-19896674D02*
X9136729Y-19906198D01*
X9136729Y-19906198D02*
X9127206Y-19915722D01*
X9127206Y-19915722D02*
X9117682Y-19934770D01*
X9298634Y-19820484D02*
X9422444Y-19820484D01*
X9422444Y-19820484D02*
X9355777Y-19896674D01*
X9355777Y-19896674D02*
X9384349Y-19896674D01*
X9384349Y-19896674D02*
X9403396Y-19906198D01*
X9403396Y-19906198D02*
X9412920Y-19915722D01*
X9412920Y-19915722D02*
X9422444Y-19934770D01*
X9422444Y-19934770D02*
X9422444Y-19982389D01*
X9422444Y-19982389D02*
X9412920Y-20001436D01*
X9412920Y-20001436D02*
X9403396Y-20010960D01*
X9403396Y-20010960D02*
X9384349Y-20020484D01*
X9384349Y-20020484D02*
X9327206Y-20020484D01*
X9327206Y-20020484D02*
X9308158Y-20010960D01*
X9308158Y-20010960D02*
X9298634Y-20001436D01*
X9498634Y-19820484D02*
X9498634Y-19858579D01*
X9574825Y-19820484D02*
X9574825Y-19858579D01*
X9870063Y-20096674D02*
X9860539Y-20087150D01*
X9860539Y-20087150D02*
X9841491Y-20058579D01*
X9841491Y-20058579D02*
X9831968Y-20039531D01*
X9831968Y-20039531D02*
X9822444Y-20010960D01*
X9822444Y-20010960D02*
X9812920Y-19963341D01*
X9812920Y-19963341D02*
X9812920Y-19925246D01*
X9812920Y-19925246D02*
X9822444Y-19877627D01*
X9822444Y-19877627D02*
X9831968Y-19849055D01*
X9831968Y-19849055D02*
X9841491Y-19830008D01*
X9841491Y-19830008D02*
X9860539Y-19801436D01*
X9860539Y-19801436D02*
X9870063Y-19791912D01*
X9936730Y-19839531D02*
X9946253Y-19830008D01*
X9946253Y-19830008D02*
X9965301Y-19820484D01*
X9965301Y-19820484D02*
X10012920Y-19820484D01*
X10012920Y-19820484D02*
X10031968Y-19830008D01*
X10031968Y-19830008D02*
X10041491Y-19839531D01*
X10041491Y-19839531D02*
X10051015Y-19858579D01*
X10051015Y-19858579D02*
X10051015Y-19877627D01*
X10051015Y-19877627D02*
X10041491Y-19906198D01*
X10041491Y-19906198D02*
X9927206Y-20020484D01*
X9927206Y-20020484D02*
X10051015Y-20020484D01*
X10289111Y-20020484D02*
X10289111Y-19820484D01*
X10374825Y-20020484D02*
X10374825Y-19915722D01*
X10374825Y-19915722D02*
X10365301Y-19896674D01*
X10365301Y-19896674D02*
X10346253Y-19887150D01*
X10346253Y-19887150D02*
X10317682Y-19887150D01*
X10317682Y-19887150D02*
X10298634Y-19896674D01*
X10298634Y-19896674D02*
X10289111Y-19906198D01*
X10498634Y-20020484D02*
X10479587Y-20010960D01*
X10479587Y-20010960D02*
X10470063Y-20001436D01*
X10470063Y-20001436D02*
X10460539Y-19982389D01*
X10460539Y-19982389D02*
X10460539Y-19925246D01*
X10460539Y-19925246D02*
X10470063Y-19906198D01*
X10470063Y-19906198D02*
X10479587Y-19896674D01*
X10479587Y-19896674D02*
X10498634Y-19887150D01*
X10498634Y-19887150D02*
X10527206Y-19887150D01*
X10527206Y-19887150D02*
X10546253Y-19896674D01*
X10546253Y-19896674D02*
X10555777Y-19906198D01*
X10555777Y-19906198D02*
X10565301Y-19925246D01*
X10565301Y-19925246D02*
X10565301Y-19982389D01*
X10565301Y-19982389D02*
X10555777Y-20001436D01*
X10555777Y-20001436D02*
X10546253Y-20010960D01*
X10546253Y-20010960D02*
X10527206Y-20020484D01*
X10527206Y-20020484D02*
X10498634Y-20020484D01*
X10679587Y-20020484D02*
X10660539Y-20010960D01*
X10660539Y-20010960D02*
X10651015Y-19991912D01*
X10651015Y-19991912D02*
X10651015Y-19820484D01*
X10831968Y-20010960D02*
X10812920Y-20020484D01*
X10812920Y-20020484D02*
X10774825Y-20020484D01*
X10774825Y-20020484D02*
X10755777Y-20010960D01*
X10755777Y-20010960D02*
X10746253Y-19991912D01*
X10746253Y-19991912D02*
X10746253Y-19915722D01*
X10746253Y-19915722D02*
X10755777Y-19896674D01*
X10755777Y-19896674D02*
X10774825Y-19887150D01*
X10774825Y-19887150D02*
X10812920Y-19887150D01*
X10812920Y-19887150D02*
X10831968Y-19896674D01*
X10831968Y-19896674D02*
X10841492Y-19915722D01*
X10841492Y-19915722D02*
X10841492Y-19934770D01*
X10841492Y-19934770D02*
X10746253Y-19953817D01*
X10917682Y-20010960D02*
X10936730Y-20020484D01*
X10936730Y-20020484D02*
X10974825Y-20020484D01*
X10974825Y-20020484D02*
X10993873Y-20010960D01*
X10993873Y-20010960D02*
X11003396Y-19991912D01*
X11003396Y-19991912D02*
X11003396Y-19982389D01*
X11003396Y-19982389D02*
X10993873Y-19963341D01*
X10993873Y-19963341D02*
X10974825Y-19953817D01*
X10974825Y-19953817D02*
X10946253Y-19953817D01*
X10946253Y-19953817D02*
X10927206Y-19944293D01*
X10927206Y-19944293D02*
X10917682Y-19925246D01*
X10917682Y-19925246D02*
X10917682Y-19915722D01*
X10917682Y-19915722D02*
X10927206Y-19896674D01*
X10927206Y-19896674D02*
X10946253Y-19887150D01*
X10946253Y-19887150D02*
X10974825Y-19887150D01*
X10974825Y-19887150D02*
X10993873Y-19896674D01*
X11070063Y-20096674D02*
X11079587Y-20087150D01*
X11079587Y-20087150D02*
X11098634Y-20058579D01*
X11098634Y-20058579D02*
X11108158Y-20039531D01*
X11108158Y-20039531D02*
X11117682Y-20010960D01*
X11117682Y-20010960D02*
X11127206Y-19963341D01*
X11127206Y-19963341D02*
X11127206Y-19925246D01*
X11127206Y-19925246D02*
X11117682Y-19877627D01*
X11117682Y-19877627D02*
X11108158Y-19849055D01*
X11108158Y-19849055D02*
X11098634Y-19830008D01*
X11098634Y-19830008D02*
X11079587Y-19801436D01*
X11079587Y-19801436D02*
X11070063Y-19791912D01*
X11431968Y-20096674D02*
X11422444Y-20087150D01*
X11422444Y-20087150D02*
X11403396Y-20058579D01*
X11403396Y-20058579D02*
X11393872Y-20039531D01*
X11393872Y-20039531D02*
X11384349Y-20010960D01*
X11384349Y-20010960D02*
X11374825Y-19963341D01*
X11374825Y-19963341D02*
X11374825Y-19925246D01*
X11374825Y-19925246D02*
X11384349Y-19877627D01*
X11384349Y-19877627D02*
X11393872Y-19849055D01*
X11393872Y-19849055D02*
X11403396Y-19830008D01*
X11403396Y-19830008D02*
X11422444Y-19801436D01*
X11422444Y-19801436D02*
X11431968Y-19791912D01*
X11508158Y-19887150D02*
X11508158Y-20020484D01*
X11508158Y-19906198D02*
X11517682Y-19896674D01*
X11517682Y-19896674D02*
X11536730Y-19887150D01*
X11536730Y-19887150D02*
X11565301Y-19887150D01*
X11565301Y-19887150D02*
X11584349Y-19896674D01*
X11584349Y-19896674D02*
X11593872Y-19915722D01*
X11593872Y-19915722D02*
X11593872Y-20020484D01*
X11717682Y-20020484D02*
X11698634Y-20010960D01*
X11698634Y-20010960D02*
X11689111Y-20001436D01*
X11689111Y-20001436D02*
X11679587Y-19982389D01*
X11679587Y-19982389D02*
X11679587Y-19925246D01*
X11679587Y-19925246D02*
X11689111Y-19906198D01*
X11689111Y-19906198D02*
X11698634Y-19896674D01*
X11698634Y-19896674D02*
X11717682Y-19887150D01*
X11717682Y-19887150D02*
X11746253Y-19887150D01*
X11746253Y-19887150D02*
X11765301Y-19896674D01*
X11765301Y-19896674D02*
X11774825Y-19906198D01*
X11774825Y-19906198D02*
X11784349Y-19925246D01*
X11784349Y-19925246D02*
X11784349Y-19982389D01*
X11784349Y-19982389D02*
X11774825Y-20001436D01*
X11774825Y-20001436D02*
X11765301Y-20010960D01*
X11765301Y-20010960D02*
X11746253Y-20020484D01*
X11746253Y-20020484D02*
X11717682Y-20020484D01*
X11841492Y-19887150D02*
X11917682Y-19887150D01*
X11870063Y-19820484D02*
X11870063Y-19991912D01*
X11870063Y-19991912D02*
X11879587Y-20010960D01*
X11879587Y-20010960D02*
X11898634Y-20020484D01*
X11898634Y-20020484D02*
X11917682Y-20020484D01*
X12136730Y-19887150D02*
X12136730Y-20087150D01*
X12136730Y-19896674D02*
X12155777Y-19887150D01*
X12155777Y-19887150D02*
X12193873Y-19887150D01*
X12193873Y-19887150D02*
X12212920Y-19896674D01*
X12212920Y-19896674D02*
X12222444Y-19906198D01*
X12222444Y-19906198D02*
X12231968Y-19925246D01*
X12231968Y-19925246D02*
X12231968Y-19982389D01*
X12231968Y-19982389D02*
X12222444Y-20001436D01*
X12222444Y-20001436D02*
X12212920Y-20010960D01*
X12212920Y-20010960D02*
X12193873Y-20020484D01*
X12193873Y-20020484D02*
X12155777Y-20020484D01*
X12155777Y-20020484D02*
X12136730Y-20010960D01*
X12346253Y-20020484D02*
X12327206Y-20010960D01*
X12327206Y-20010960D02*
X12317682Y-19991912D01*
X12317682Y-19991912D02*
X12317682Y-19820484D01*
X12508158Y-20020484D02*
X12508158Y-19915722D01*
X12508158Y-19915722D02*
X12498634Y-19896674D01*
X12498634Y-19896674D02*
X12479587Y-19887150D01*
X12479587Y-19887150D02*
X12441492Y-19887150D01*
X12441492Y-19887150D02*
X12422444Y-19896674D01*
X12508158Y-20010960D02*
X12489111Y-20020484D01*
X12489111Y-20020484D02*
X12441492Y-20020484D01*
X12441492Y-20020484D02*
X12422444Y-20010960D01*
X12422444Y-20010960D02*
X12412920Y-19991912D01*
X12412920Y-19991912D02*
X12412920Y-19972865D01*
X12412920Y-19972865D02*
X12422444Y-19953817D01*
X12422444Y-19953817D02*
X12441492Y-19944293D01*
X12441492Y-19944293D02*
X12489111Y-19944293D01*
X12489111Y-19944293D02*
X12508158Y-19934770D01*
X12574825Y-19887150D02*
X12651015Y-19887150D01*
X12603396Y-19820484D02*
X12603396Y-19991912D01*
X12603396Y-19991912D02*
X12612920Y-20010960D01*
X12612920Y-20010960D02*
X12631968Y-20020484D01*
X12631968Y-20020484D02*
X12651015Y-20020484D01*
X12793873Y-20010960D02*
X12774825Y-20020484D01*
X12774825Y-20020484D02*
X12736730Y-20020484D01*
X12736730Y-20020484D02*
X12717682Y-20010960D01*
X12717682Y-20010960D02*
X12708158Y-19991912D01*
X12708158Y-19991912D02*
X12708158Y-19915722D01*
X12708158Y-19915722D02*
X12717682Y-19896674D01*
X12717682Y-19896674D02*
X12736730Y-19887150D01*
X12736730Y-19887150D02*
X12774825Y-19887150D01*
X12774825Y-19887150D02*
X12793873Y-19896674D01*
X12793873Y-19896674D02*
X12803396Y-19915722D01*
X12803396Y-19915722D02*
X12803396Y-19934770D01*
X12803396Y-19934770D02*
X12708158Y-19953817D01*
X12974825Y-20020484D02*
X12974825Y-19820484D01*
X12974825Y-20010960D02*
X12955777Y-20020484D01*
X12955777Y-20020484D02*
X12917682Y-20020484D01*
X12917682Y-20020484D02*
X12898634Y-20010960D01*
X12898634Y-20010960D02*
X12889111Y-20001436D01*
X12889111Y-20001436D02*
X12879587Y-19982389D01*
X12879587Y-19982389D02*
X12879587Y-19925246D01*
X12879587Y-19925246D02*
X12889111Y-19906198D01*
X12889111Y-19906198D02*
X12898634Y-19896674D01*
X12898634Y-19896674D02*
X12917682Y-19887150D01*
X12917682Y-19887150D02*
X12955777Y-19887150D01*
X12955777Y-19887150D02*
X12974825Y-19896674D01*
X13051015Y-20096674D02*
X13060539Y-20087150D01*
X13060539Y-20087150D02*
X13079587Y-20058579D01*
X13079587Y-20058579D02*
X13089111Y-20039531D01*
X13089111Y-20039531D02*
X13098634Y-20010960D01*
X13098634Y-20010960D02*
X13108158Y-19963341D01*
X13108158Y-19963341D02*
X13108158Y-19925246D01*
X13108158Y-19925246D02*
X13098634Y-19877627D01*
X13098634Y-19877627D02*
X13089111Y-19849055D01*
X13089111Y-19849055D02*
X13079587Y-19830008D01*
X13079587Y-19830008D02*
X13060539Y-19801436D01*
X13060539Y-19801436D02*
X13051015Y-19791912D01*
X6265711Y-20319711D02*
X6265711Y-20178289D01*
X6124289Y-20178289D01*
X6124289Y-20319711D01*
X6265711Y-20319711D01*
X6546253Y-20159531D02*
X6555777Y-20150008D01*
X6555777Y-20150008D02*
X6574824Y-20140484D01*
X6574824Y-20140484D02*
X6622443Y-20140484D01*
X6622443Y-20140484D02*
X6641491Y-20150008D01*
X6641491Y-20150008D02*
X6651015Y-20159531D01*
X6651015Y-20159531D02*
X6660539Y-20178579D01*
X6660539Y-20178579D02*
X6660539Y-20197627D01*
X6660539Y-20197627D02*
X6651015Y-20226198D01*
X6651015Y-20226198D02*
X6536729Y-20340484D01*
X6536729Y-20340484D02*
X6660539Y-20340484D01*
X6746253Y-20321436D02*
X6755777Y-20330960D01*
X6755777Y-20330960D02*
X6746253Y-20340484D01*
X6746253Y-20340484D02*
X6736729Y-20330960D01*
X6736729Y-20330960D02*
X6746253Y-20321436D01*
X6746253Y-20321436D02*
X6746253Y-20340484D01*
X6870062Y-20226198D02*
X6851015Y-20216674D01*
X6851015Y-20216674D02*
X6841491Y-20207150D01*
X6841491Y-20207150D02*
X6831967Y-20188103D01*
X6831967Y-20188103D02*
X6831967Y-20178579D01*
X6831967Y-20178579D02*
X6841491Y-20159531D01*
X6841491Y-20159531D02*
X6851015Y-20150008D01*
X6851015Y-20150008D02*
X6870062Y-20140484D01*
X6870062Y-20140484D02*
X6908158Y-20140484D01*
X6908158Y-20140484D02*
X6927205Y-20150008D01*
X6927205Y-20150008D02*
X6936729Y-20159531D01*
X6936729Y-20159531D02*
X6946253Y-20178579D01*
X6946253Y-20178579D02*
X6946253Y-20188103D01*
X6946253Y-20188103D02*
X6936729Y-20207150D01*
X6936729Y-20207150D02*
X6927205Y-20216674D01*
X6927205Y-20216674D02*
X6908158Y-20226198D01*
X6908158Y-20226198D02*
X6870062Y-20226198D01*
X6870062Y-20226198D02*
X6851015Y-20235722D01*
X6851015Y-20235722D02*
X6841491Y-20245246D01*
X6841491Y-20245246D02*
X6831967Y-20264293D01*
X6831967Y-20264293D02*
X6831967Y-20302389D01*
X6831967Y-20302389D02*
X6841491Y-20321436D01*
X6841491Y-20321436D02*
X6851015Y-20330960D01*
X6851015Y-20330960D02*
X6870062Y-20340484D01*
X6870062Y-20340484D02*
X6908158Y-20340484D01*
X6908158Y-20340484D02*
X6927205Y-20330960D01*
X6927205Y-20330960D02*
X6936729Y-20321436D01*
X6936729Y-20321436D02*
X6946253Y-20302389D01*
X6946253Y-20302389D02*
X6946253Y-20264293D01*
X6946253Y-20264293D02*
X6936729Y-20245246D01*
X6936729Y-20245246D02*
X6927205Y-20235722D01*
X6927205Y-20235722D02*
X6908158Y-20226198D01*
X7127205Y-20140484D02*
X7031967Y-20140484D01*
X7031967Y-20140484D02*
X7022443Y-20235722D01*
X7022443Y-20235722D02*
X7031967Y-20226198D01*
X7031967Y-20226198D02*
X7051015Y-20216674D01*
X7051015Y-20216674D02*
X7098634Y-20216674D01*
X7098634Y-20216674D02*
X7117682Y-20226198D01*
X7117682Y-20226198D02*
X7127205Y-20235722D01*
X7127205Y-20235722D02*
X7136729Y-20254770D01*
X7136729Y-20254770D02*
X7136729Y-20302389D01*
X7136729Y-20302389D02*
X7127205Y-20321436D01*
X7127205Y-20321436D02*
X7117682Y-20330960D01*
X7117682Y-20330960D02*
X7098634Y-20340484D01*
X7098634Y-20340484D02*
X7051015Y-20340484D01*
X7051015Y-20340484D02*
X7031967Y-20330960D01*
X7031967Y-20330960D02*
X7022443Y-20321436D01*
X7260539Y-20140484D02*
X7279586Y-20140484D01*
X7279586Y-20140484D02*
X7298634Y-20150008D01*
X7298634Y-20150008D02*
X7308158Y-20159531D01*
X7308158Y-20159531D02*
X7317682Y-20178579D01*
X7317682Y-20178579D02*
X7327205Y-20216674D01*
X7327205Y-20216674D02*
X7327205Y-20264293D01*
X7327205Y-20264293D02*
X7317682Y-20302389D01*
X7317682Y-20302389D02*
X7308158Y-20321436D01*
X7308158Y-20321436D02*
X7298634Y-20330960D01*
X7298634Y-20330960D02*
X7279586Y-20340484D01*
X7279586Y-20340484D02*
X7260539Y-20340484D01*
X7260539Y-20340484D02*
X7241491Y-20330960D01*
X7241491Y-20330960D02*
X7231967Y-20321436D01*
X7231967Y-20321436D02*
X7222443Y-20302389D01*
X7222443Y-20302389D02*
X7212920Y-20264293D01*
X7212920Y-20264293D02*
X7212920Y-20216674D01*
X7212920Y-20216674D02*
X7222443Y-20178579D01*
X7222443Y-20178579D02*
X7231967Y-20159531D01*
X7231967Y-20159531D02*
X7241491Y-20150008D01*
X7241491Y-20150008D02*
X7260539Y-20140484D01*
X7412920Y-20340484D02*
X7412920Y-20207150D01*
X7412920Y-20226198D02*
X7422443Y-20216674D01*
X7422443Y-20216674D02*
X7441491Y-20207150D01*
X7441491Y-20207150D02*
X7470063Y-20207150D01*
X7470063Y-20207150D02*
X7489110Y-20216674D01*
X7489110Y-20216674D02*
X7498634Y-20235722D01*
X7498634Y-20235722D02*
X7498634Y-20340484D01*
X7498634Y-20235722D02*
X7508158Y-20216674D01*
X7508158Y-20216674D02*
X7527205Y-20207150D01*
X7527205Y-20207150D02*
X7555777Y-20207150D01*
X7555777Y-20207150D02*
X7574824Y-20216674D01*
X7574824Y-20216674D02*
X7584348Y-20235722D01*
X7584348Y-20235722D02*
X7584348Y-20340484D01*
X7679586Y-20340484D02*
X7679586Y-20207150D01*
X7679586Y-20226198D02*
X7689110Y-20216674D01*
X7689110Y-20216674D02*
X7708158Y-20207150D01*
X7708158Y-20207150D02*
X7736729Y-20207150D01*
X7736729Y-20207150D02*
X7755777Y-20216674D01*
X7755777Y-20216674D02*
X7765301Y-20235722D01*
X7765301Y-20235722D02*
X7765301Y-20340484D01*
X7765301Y-20235722D02*
X7774824Y-20216674D01*
X7774824Y-20216674D02*
X7793872Y-20207150D01*
X7793872Y-20207150D02*
X7822443Y-20207150D01*
X7822443Y-20207150D02*
X7841491Y-20216674D01*
X7841491Y-20216674D02*
X7851015Y-20235722D01*
X7851015Y-20235722D02*
X7851015Y-20340484D01*
X8241491Y-20130960D02*
X8070063Y-20388103D01*
X8498634Y-20140484D02*
X8517682Y-20140484D01*
X8517682Y-20140484D02*
X8536729Y-20150008D01*
X8536729Y-20150008D02*
X8546253Y-20159531D01*
X8546253Y-20159531D02*
X8555777Y-20178579D01*
X8555777Y-20178579D02*
X8565301Y-20216674D01*
X8565301Y-20216674D02*
X8565301Y-20264293D01*
X8565301Y-20264293D02*
X8555777Y-20302389D01*
X8555777Y-20302389D02*
X8546253Y-20321436D01*
X8546253Y-20321436D02*
X8536729Y-20330960D01*
X8536729Y-20330960D02*
X8517682Y-20340484D01*
X8517682Y-20340484D02*
X8498634Y-20340484D01*
X8498634Y-20340484D02*
X8479587Y-20330960D01*
X8479587Y-20330960D02*
X8470063Y-20321436D01*
X8470063Y-20321436D02*
X8460539Y-20302389D01*
X8460539Y-20302389D02*
X8451015Y-20264293D01*
X8451015Y-20264293D02*
X8451015Y-20216674D01*
X8451015Y-20216674D02*
X8460539Y-20178579D01*
X8460539Y-20178579D02*
X8470063Y-20159531D01*
X8470063Y-20159531D02*
X8479587Y-20150008D01*
X8479587Y-20150008D02*
X8498634Y-20140484D01*
X8651015Y-20321436D02*
X8660539Y-20330960D01*
X8660539Y-20330960D02*
X8651015Y-20340484D01*
X8651015Y-20340484D02*
X8641491Y-20330960D01*
X8641491Y-20330960D02*
X8651015Y-20321436D01*
X8651015Y-20321436D02*
X8651015Y-20340484D01*
X8851015Y-20340484D02*
X8736729Y-20340484D01*
X8793872Y-20340484D02*
X8793872Y-20140484D01*
X8793872Y-20140484D02*
X8774825Y-20169055D01*
X8774825Y-20169055D02*
X8755777Y-20188103D01*
X8755777Y-20188103D02*
X8736729Y-20197627D01*
X9041491Y-20340484D02*
X8927206Y-20340484D01*
X8984348Y-20340484D02*
X8984348Y-20140484D01*
X8984348Y-20140484D02*
X8965301Y-20169055D01*
X8965301Y-20169055D02*
X8946253Y-20188103D01*
X8946253Y-20188103D02*
X8927206Y-20197627D01*
X9117682Y-20159531D02*
X9127206Y-20150008D01*
X9127206Y-20150008D02*
X9146253Y-20140484D01*
X9146253Y-20140484D02*
X9193872Y-20140484D01*
X9193872Y-20140484D02*
X9212920Y-20150008D01*
X9212920Y-20150008D02*
X9222444Y-20159531D01*
X9222444Y-20159531D02*
X9231968Y-20178579D01*
X9231968Y-20178579D02*
X9231968Y-20197627D01*
X9231968Y-20197627D02*
X9222444Y-20226198D01*
X9222444Y-20226198D02*
X9108158Y-20340484D01*
X9108158Y-20340484D02*
X9231968Y-20340484D01*
X9308158Y-20159531D02*
X9317682Y-20150008D01*
X9317682Y-20150008D02*
X9336729Y-20140484D01*
X9336729Y-20140484D02*
X9384349Y-20140484D01*
X9384349Y-20140484D02*
X9403396Y-20150008D01*
X9403396Y-20150008D02*
X9412920Y-20159531D01*
X9412920Y-20159531D02*
X9422444Y-20178579D01*
X9422444Y-20178579D02*
X9422444Y-20197627D01*
X9422444Y-20197627D02*
X9412920Y-20226198D01*
X9412920Y-20226198D02*
X9298634Y-20340484D01*
X9298634Y-20340484D02*
X9422444Y-20340484D01*
X9498634Y-20140484D02*
X9498634Y-20178579D01*
X9574825Y-20140484D02*
X9574825Y-20178579D01*
X9870063Y-20416674D02*
X9860539Y-20407150D01*
X9860539Y-20407150D02*
X9841491Y-20378579D01*
X9841491Y-20378579D02*
X9831968Y-20359531D01*
X9831968Y-20359531D02*
X9822444Y-20330960D01*
X9822444Y-20330960D02*
X9812920Y-20283341D01*
X9812920Y-20283341D02*
X9812920Y-20245246D01*
X9812920Y-20245246D02*
X9822444Y-20197627D01*
X9822444Y-20197627D02*
X9831968Y-20169055D01*
X9831968Y-20169055D02*
X9841491Y-20150008D01*
X9841491Y-20150008D02*
X9860539Y-20121436D01*
X9860539Y-20121436D02*
X9870063Y-20111912D01*
X10051015Y-20340484D02*
X9936730Y-20340484D01*
X9993872Y-20340484D02*
X9993872Y-20140484D01*
X9993872Y-20140484D02*
X9974825Y-20169055D01*
X9974825Y-20169055D02*
X9955777Y-20188103D01*
X9955777Y-20188103D02*
X9936730Y-20197627D01*
X10174825Y-20140484D02*
X10193872Y-20140484D01*
X10193872Y-20140484D02*
X10212920Y-20150008D01*
X10212920Y-20150008D02*
X10222444Y-20159531D01*
X10222444Y-20159531D02*
X10231968Y-20178579D01*
X10231968Y-20178579D02*
X10241491Y-20216674D01*
X10241491Y-20216674D02*
X10241491Y-20264293D01*
X10241491Y-20264293D02*
X10231968Y-20302389D01*
X10231968Y-20302389D02*
X10222444Y-20321436D01*
X10222444Y-20321436D02*
X10212920Y-20330960D01*
X10212920Y-20330960D02*
X10193872Y-20340484D01*
X10193872Y-20340484D02*
X10174825Y-20340484D01*
X10174825Y-20340484D02*
X10155777Y-20330960D01*
X10155777Y-20330960D02*
X10146253Y-20321436D01*
X10146253Y-20321436D02*
X10136730Y-20302389D01*
X10136730Y-20302389D02*
X10127206Y-20264293D01*
X10127206Y-20264293D02*
X10127206Y-20216674D01*
X10127206Y-20216674D02*
X10136730Y-20178579D01*
X10136730Y-20178579D02*
X10146253Y-20159531D01*
X10146253Y-20159531D02*
X10155777Y-20150008D01*
X10155777Y-20150008D02*
X10174825Y-20140484D01*
X10479587Y-20340484D02*
X10479587Y-20140484D01*
X10565301Y-20340484D02*
X10565301Y-20235722D01*
X10565301Y-20235722D02*
X10555777Y-20216674D01*
X10555777Y-20216674D02*
X10536730Y-20207150D01*
X10536730Y-20207150D02*
X10508158Y-20207150D01*
X10508158Y-20207150D02*
X10489111Y-20216674D01*
X10489111Y-20216674D02*
X10479587Y-20226198D01*
X10689111Y-20340484D02*
X10670063Y-20330960D01*
X10670063Y-20330960D02*
X10660539Y-20321436D01*
X10660539Y-20321436D02*
X10651015Y-20302389D01*
X10651015Y-20302389D02*
X10651015Y-20245246D01*
X10651015Y-20245246D02*
X10660539Y-20226198D01*
X10660539Y-20226198D02*
X10670063Y-20216674D01*
X10670063Y-20216674D02*
X10689111Y-20207150D01*
X10689111Y-20207150D02*
X10717682Y-20207150D01*
X10717682Y-20207150D02*
X10736730Y-20216674D01*
X10736730Y-20216674D02*
X10746253Y-20226198D01*
X10746253Y-20226198D02*
X10755777Y-20245246D01*
X10755777Y-20245246D02*
X10755777Y-20302389D01*
X10755777Y-20302389D02*
X10746253Y-20321436D01*
X10746253Y-20321436D02*
X10736730Y-20330960D01*
X10736730Y-20330960D02*
X10717682Y-20340484D01*
X10717682Y-20340484D02*
X10689111Y-20340484D01*
X10870063Y-20340484D02*
X10851015Y-20330960D01*
X10851015Y-20330960D02*
X10841492Y-20311912D01*
X10841492Y-20311912D02*
X10841492Y-20140484D01*
X11022444Y-20330960D02*
X11003396Y-20340484D01*
X11003396Y-20340484D02*
X10965301Y-20340484D01*
X10965301Y-20340484D02*
X10946253Y-20330960D01*
X10946253Y-20330960D02*
X10936730Y-20311912D01*
X10936730Y-20311912D02*
X10936730Y-20235722D01*
X10936730Y-20235722D02*
X10946253Y-20216674D01*
X10946253Y-20216674D02*
X10965301Y-20207150D01*
X10965301Y-20207150D02*
X11003396Y-20207150D01*
X11003396Y-20207150D02*
X11022444Y-20216674D01*
X11022444Y-20216674D02*
X11031968Y-20235722D01*
X11031968Y-20235722D02*
X11031968Y-20254770D01*
X11031968Y-20254770D02*
X10936730Y-20273817D01*
X11108158Y-20330960D02*
X11127206Y-20340484D01*
X11127206Y-20340484D02*
X11165301Y-20340484D01*
X11165301Y-20340484D02*
X11184349Y-20330960D01*
X11184349Y-20330960D02*
X11193872Y-20311912D01*
X11193872Y-20311912D02*
X11193872Y-20302389D01*
X11193872Y-20302389D02*
X11184349Y-20283341D01*
X11184349Y-20283341D02*
X11165301Y-20273817D01*
X11165301Y-20273817D02*
X11136730Y-20273817D01*
X11136730Y-20273817D02*
X11117682Y-20264293D01*
X11117682Y-20264293D02*
X11108158Y-20245246D01*
X11108158Y-20245246D02*
X11108158Y-20235722D01*
X11108158Y-20235722D02*
X11117682Y-20216674D01*
X11117682Y-20216674D02*
X11136730Y-20207150D01*
X11136730Y-20207150D02*
X11165301Y-20207150D01*
X11165301Y-20207150D02*
X11184349Y-20216674D01*
X11260539Y-20416674D02*
X11270063Y-20407150D01*
X11270063Y-20407150D02*
X11289111Y-20378579D01*
X11289111Y-20378579D02*
X11298634Y-20359531D01*
X11298634Y-20359531D02*
X11308158Y-20330960D01*
X11308158Y-20330960D02*
X11317682Y-20283341D01*
X11317682Y-20283341D02*
X11317682Y-20245246D01*
X11317682Y-20245246D02*
X11308158Y-20197627D01*
X11308158Y-20197627D02*
X11298634Y-20169055D01*
X11298634Y-20169055D02*
X11289111Y-20150008D01*
X11289111Y-20150008D02*
X11270063Y-20121436D01*
X11270063Y-20121436D02*
X11260539Y-20111912D01*
X11622444Y-20416674D02*
X11612920Y-20407150D01*
X11612920Y-20407150D02*
X11593872Y-20378579D01*
X11593872Y-20378579D02*
X11584349Y-20359531D01*
X11584349Y-20359531D02*
X11574825Y-20330960D01*
X11574825Y-20330960D02*
X11565301Y-20283341D01*
X11565301Y-20283341D02*
X11565301Y-20245246D01*
X11565301Y-20245246D02*
X11574825Y-20197627D01*
X11574825Y-20197627D02*
X11584349Y-20169055D01*
X11584349Y-20169055D02*
X11593872Y-20150008D01*
X11593872Y-20150008D02*
X11612920Y-20121436D01*
X11612920Y-20121436D02*
X11622444Y-20111912D01*
X11698634Y-20207150D02*
X11698634Y-20340484D01*
X11698634Y-20226198D02*
X11708158Y-20216674D01*
X11708158Y-20216674D02*
X11727206Y-20207150D01*
X11727206Y-20207150D02*
X11755777Y-20207150D01*
X11755777Y-20207150D02*
X11774825Y-20216674D01*
X11774825Y-20216674D02*
X11784349Y-20235722D01*
X11784349Y-20235722D02*
X11784349Y-20340484D01*
X11908158Y-20340484D02*
X11889111Y-20330960D01*
X11889111Y-20330960D02*
X11879587Y-20321436D01*
X11879587Y-20321436D02*
X11870063Y-20302389D01*
X11870063Y-20302389D02*
X11870063Y-20245246D01*
X11870063Y-20245246D02*
X11879587Y-20226198D01*
X11879587Y-20226198D02*
X11889111Y-20216674D01*
X11889111Y-20216674D02*
X11908158Y-20207150D01*
X11908158Y-20207150D02*
X11936730Y-20207150D01*
X11936730Y-20207150D02*
X11955777Y-20216674D01*
X11955777Y-20216674D02*
X11965301Y-20226198D01*
X11965301Y-20226198D02*
X11974825Y-20245246D01*
X11974825Y-20245246D02*
X11974825Y-20302389D01*
X11974825Y-20302389D02*
X11965301Y-20321436D01*
X11965301Y-20321436D02*
X11955777Y-20330960D01*
X11955777Y-20330960D02*
X11936730Y-20340484D01*
X11936730Y-20340484D02*
X11908158Y-20340484D01*
X12031968Y-20207150D02*
X12108158Y-20207150D01*
X12060539Y-20140484D02*
X12060539Y-20311912D01*
X12060539Y-20311912D02*
X12070063Y-20330960D01*
X12070063Y-20330960D02*
X12089111Y-20340484D01*
X12089111Y-20340484D02*
X12108158Y-20340484D01*
X12327206Y-20207150D02*
X12327206Y-20407150D01*
X12327206Y-20216674D02*
X12346253Y-20207150D01*
X12346253Y-20207150D02*
X12384349Y-20207150D01*
X12384349Y-20207150D02*
X12403396Y-20216674D01*
X12403396Y-20216674D02*
X12412920Y-20226198D01*
X12412920Y-20226198D02*
X12422444Y-20245246D01*
X12422444Y-20245246D02*
X12422444Y-20302389D01*
X12422444Y-20302389D02*
X12412920Y-20321436D01*
X12412920Y-20321436D02*
X12403396Y-20330960D01*
X12403396Y-20330960D02*
X12384349Y-20340484D01*
X12384349Y-20340484D02*
X12346253Y-20340484D01*
X12346253Y-20340484D02*
X12327206Y-20330960D01*
X12536730Y-20340484D02*
X12517682Y-20330960D01*
X12517682Y-20330960D02*
X12508158Y-20311912D01*
X12508158Y-20311912D02*
X12508158Y-20140484D01*
X12698634Y-20340484D02*
X12698634Y-20235722D01*
X12698634Y-20235722D02*
X12689111Y-20216674D01*
X12689111Y-20216674D02*
X12670063Y-20207150D01*
X12670063Y-20207150D02*
X12631968Y-20207150D01*
X12631968Y-20207150D02*
X12612920Y-20216674D01*
X12698634Y-20330960D02*
X12679587Y-20340484D01*
X12679587Y-20340484D02*
X12631968Y-20340484D01*
X12631968Y-20340484D02*
X12612920Y-20330960D01*
X12612920Y-20330960D02*
X12603396Y-20311912D01*
X12603396Y-20311912D02*
X12603396Y-20292865D01*
X12603396Y-20292865D02*
X12612920Y-20273817D01*
X12612920Y-20273817D02*
X12631968Y-20264293D01*
X12631968Y-20264293D02*
X12679587Y-20264293D01*
X12679587Y-20264293D02*
X12698634Y-20254770D01*
X12765301Y-20207150D02*
X12841492Y-20207150D01*
X12793873Y-20140484D02*
X12793873Y-20311912D01*
X12793873Y-20311912D02*
X12803396Y-20330960D01*
X12803396Y-20330960D02*
X12822444Y-20340484D01*
X12822444Y-20340484D02*
X12841492Y-20340484D01*
X12984349Y-20330960D02*
X12965301Y-20340484D01*
X12965301Y-20340484D02*
X12927206Y-20340484D01*
X12927206Y-20340484D02*
X12908158Y-20330960D01*
X12908158Y-20330960D02*
X12898634Y-20311912D01*
X12898634Y-20311912D02*
X12898634Y-20235722D01*
X12898634Y-20235722D02*
X12908158Y-20216674D01*
X12908158Y-20216674D02*
X12927206Y-20207150D01*
X12927206Y-20207150D02*
X12965301Y-20207150D01*
X12965301Y-20207150D02*
X12984349Y-20216674D01*
X12984349Y-20216674D02*
X12993873Y-20235722D01*
X12993873Y-20235722D02*
X12993873Y-20254770D01*
X12993873Y-20254770D02*
X12898634Y-20273817D01*
X13165301Y-20340484D02*
X13165301Y-20140484D01*
X13165301Y-20330960D02*
X13146254Y-20340484D01*
X13146254Y-20340484D02*
X13108158Y-20340484D01*
X13108158Y-20340484D02*
X13089111Y-20330960D01*
X13089111Y-20330960D02*
X13079587Y-20321436D01*
X13079587Y-20321436D02*
X13070063Y-20302389D01*
X13070063Y-20302389D02*
X13070063Y-20245246D01*
X13070063Y-20245246D02*
X13079587Y-20226198D01*
X13079587Y-20226198D02*
X13089111Y-20216674D01*
X13089111Y-20216674D02*
X13108158Y-20207150D01*
X13108158Y-20207150D02*
X13146254Y-20207150D01*
X13146254Y-20207150D02*
X13165301Y-20216674D01*
X13241492Y-20416674D02*
X13251015Y-20407150D01*
X13251015Y-20407150D02*
X13270063Y-20378579D01*
X13270063Y-20378579D02*
X13279587Y-20359531D01*
X13279587Y-20359531D02*
X13289111Y-20330960D01*
X13289111Y-20330960D02*
X13298634Y-20283341D01*
X13298634Y-20283341D02*
X13298634Y-20245246D01*
X13298634Y-20245246D02*
X13289111Y-20197627D01*
X13289111Y-20197627D02*
X13279587Y-20169055D01*
X13279587Y-20169055D02*
X13270063Y-20150008D01*
X13270063Y-20150008D02*
X13251015Y-20121436D01*
X13251015Y-20121436D02*
X13241492Y-20111912D01*
X6195000Y-20669000D02*
X6295000Y-20569000D01*
X6195000Y-20469000D01*
X6095000Y-20569000D01*
X6195000Y-20669000D01*
X6536729Y-20460484D02*
X6660539Y-20460484D01*
X6660539Y-20460484D02*
X6593872Y-20536674D01*
X6593872Y-20536674D02*
X6622443Y-20536674D01*
X6622443Y-20536674D02*
X6641491Y-20546198D01*
X6641491Y-20546198D02*
X6651015Y-20555722D01*
X6651015Y-20555722D02*
X6660539Y-20574770D01*
X6660539Y-20574770D02*
X6660539Y-20622389D01*
X6660539Y-20622389D02*
X6651015Y-20641436D01*
X6651015Y-20641436D02*
X6641491Y-20650960D01*
X6641491Y-20650960D02*
X6622443Y-20660484D01*
X6622443Y-20660484D02*
X6565301Y-20660484D01*
X6565301Y-20660484D02*
X6546253Y-20650960D01*
X6546253Y-20650960D02*
X6536729Y-20641436D01*
X6746253Y-20641436D02*
X6755777Y-20650960D01*
X6755777Y-20650960D02*
X6746253Y-20660484D01*
X6746253Y-20660484D02*
X6736729Y-20650960D01*
X6736729Y-20650960D02*
X6746253Y-20641436D01*
X6746253Y-20641436D02*
X6746253Y-20660484D01*
X6946253Y-20660484D02*
X6831967Y-20660484D01*
X6889110Y-20660484D02*
X6889110Y-20460484D01*
X6889110Y-20460484D02*
X6870062Y-20489055D01*
X6870062Y-20489055D02*
X6851015Y-20508103D01*
X6851015Y-20508103D02*
X6831967Y-20517627D01*
X7060539Y-20546198D02*
X7041491Y-20536674D01*
X7041491Y-20536674D02*
X7031967Y-20527150D01*
X7031967Y-20527150D02*
X7022443Y-20508103D01*
X7022443Y-20508103D02*
X7022443Y-20498579D01*
X7022443Y-20498579D02*
X7031967Y-20479531D01*
X7031967Y-20479531D02*
X7041491Y-20470008D01*
X7041491Y-20470008D02*
X7060539Y-20460484D01*
X7060539Y-20460484D02*
X7098634Y-20460484D01*
X7098634Y-20460484D02*
X7117682Y-20470008D01*
X7117682Y-20470008D02*
X7127205Y-20479531D01*
X7127205Y-20479531D02*
X7136729Y-20498579D01*
X7136729Y-20498579D02*
X7136729Y-20508103D01*
X7136729Y-20508103D02*
X7127205Y-20527150D01*
X7127205Y-20527150D02*
X7117682Y-20536674D01*
X7117682Y-20536674D02*
X7098634Y-20546198D01*
X7098634Y-20546198D02*
X7060539Y-20546198D01*
X7060539Y-20546198D02*
X7041491Y-20555722D01*
X7041491Y-20555722D02*
X7031967Y-20565246D01*
X7031967Y-20565246D02*
X7022443Y-20584293D01*
X7022443Y-20584293D02*
X7022443Y-20622389D01*
X7022443Y-20622389D02*
X7031967Y-20641436D01*
X7031967Y-20641436D02*
X7041491Y-20650960D01*
X7041491Y-20650960D02*
X7060539Y-20660484D01*
X7060539Y-20660484D02*
X7098634Y-20660484D01*
X7098634Y-20660484D02*
X7117682Y-20650960D01*
X7117682Y-20650960D02*
X7127205Y-20641436D01*
X7127205Y-20641436D02*
X7136729Y-20622389D01*
X7136729Y-20622389D02*
X7136729Y-20584293D01*
X7136729Y-20584293D02*
X7127205Y-20565246D01*
X7127205Y-20565246D02*
X7117682Y-20555722D01*
X7117682Y-20555722D02*
X7098634Y-20546198D01*
X7260539Y-20460484D02*
X7279586Y-20460484D01*
X7279586Y-20460484D02*
X7298634Y-20470008D01*
X7298634Y-20470008D02*
X7308158Y-20479531D01*
X7308158Y-20479531D02*
X7317682Y-20498579D01*
X7317682Y-20498579D02*
X7327205Y-20536674D01*
X7327205Y-20536674D02*
X7327205Y-20584293D01*
X7327205Y-20584293D02*
X7317682Y-20622389D01*
X7317682Y-20622389D02*
X7308158Y-20641436D01*
X7308158Y-20641436D02*
X7298634Y-20650960D01*
X7298634Y-20650960D02*
X7279586Y-20660484D01*
X7279586Y-20660484D02*
X7260539Y-20660484D01*
X7260539Y-20660484D02*
X7241491Y-20650960D01*
X7241491Y-20650960D02*
X7231967Y-20641436D01*
X7231967Y-20641436D02*
X7222443Y-20622389D01*
X7222443Y-20622389D02*
X7212920Y-20584293D01*
X7212920Y-20584293D02*
X7212920Y-20536674D01*
X7212920Y-20536674D02*
X7222443Y-20498579D01*
X7222443Y-20498579D02*
X7231967Y-20479531D01*
X7231967Y-20479531D02*
X7241491Y-20470008D01*
X7241491Y-20470008D02*
X7260539Y-20460484D01*
X7412920Y-20660484D02*
X7412920Y-20527150D01*
X7412920Y-20546198D02*
X7422443Y-20536674D01*
X7422443Y-20536674D02*
X7441491Y-20527150D01*
X7441491Y-20527150D02*
X7470063Y-20527150D01*
X7470063Y-20527150D02*
X7489110Y-20536674D01*
X7489110Y-20536674D02*
X7498634Y-20555722D01*
X7498634Y-20555722D02*
X7498634Y-20660484D01*
X7498634Y-20555722D02*
X7508158Y-20536674D01*
X7508158Y-20536674D02*
X7527205Y-20527150D01*
X7527205Y-20527150D02*
X7555777Y-20527150D01*
X7555777Y-20527150D02*
X7574824Y-20536674D01*
X7574824Y-20536674D02*
X7584348Y-20555722D01*
X7584348Y-20555722D02*
X7584348Y-20660484D01*
X7679586Y-20660484D02*
X7679586Y-20527150D01*
X7679586Y-20546198D02*
X7689110Y-20536674D01*
X7689110Y-20536674D02*
X7708158Y-20527150D01*
X7708158Y-20527150D02*
X7736729Y-20527150D01*
X7736729Y-20527150D02*
X7755777Y-20536674D01*
X7755777Y-20536674D02*
X7765301Y-20555722D01*
X7765301Y-20555722D02*
X7765301Y-20660484D01*
X7765301Y-20555722D02*
X7774824Y-20536674D01*
X7774824Y-20536674D02*
X7793872Y-20527150D01*
X7793872Y-20527150D02*
X7822443Y-20527150D01*
X7822443Y-20527150D02*
X7841491Y-20536674D01*
X7841491Y-20536674D02*
X7851015Y-20555722D01*
X7851015Y-20555722D02*
X7851015Y-20660484D01*
X8241491Y-20450960D02*
X8070063Y-20708103D01*
X8498634Y-20460484D02*
X8517682Y-20460484D01*
X8517682Y-20460484D02*
X8536729Y-20470008D01*
X8536729Y-20470008D02*
X8546253Y-20479531D01*
X8546253Y-20479531D02*
X8555777Y-20498579D01*
X8555777Y-20498579D02*
X8565301Y-20536674D01*
X8565301Y-20536674D02*
X8565301Y-20584293D01*
X8565301Y-20584293D02*
X8555777Y-20622389D01*
X8555777Y-20622389D02*
X8546253Y-20641436D01*
X8546253Y-20641436D02*
X8536729Y-20650960D01*
X8536729Y-20650960D02*
X8517682Y-20660484D01*
X8517682Y-20660484D02*
X8498634Y-20660484D01*
X8498634Y-20660484D02*
X8479587Y-20650960D01*
X8479587Y-20650960D02*
X8470063Y-20641436D01*
X8470063Y-20641436D02*
X8460539Y-20622389D01*
X8460539Y-20622389D02*
X8451015Y-20584293D01*
X8451015Y-20584293D02*
X8451015Y-20536674D01*
X8451015Y-20536674D02*
X8460539Y-20498579D01*
X8460539Y-20498579D02*
X8470063Y-20479531D01*
X8470063Y-20479531D02*
X8479587Y-20470008D01*
X8479587Y-20470008D02*
X8498634Y-20460484D01*
X8651015Y-20641436D02*
X8660539Y-20650960D01*
X8660539Y-20650960D02*
X8651015Y-20660484D01*
X8651015Y-20660484D02*
X8641491Y-20650960D01*
X8641491Y-20650960D02*
X8651015Y-20641436D01*
X8651015Y-20641436D02*
X8651015Y-20660484D01*
X8851015Y-20660484D02*
X8736729Y-20660484D01*
X8793872Y-20660484D02*
X8793872Y-20460484D01*
X8793872Y-20460484D02*
X8774825Y-20489055D01*
X8774825Y-20489055D02*
X8755777Y-20508103D01*
X8755777Y-20508103D02*
X8736729Y-20517627D01*
X8927206Y-20479531D02*
X8936729Y-20470008D01*
X8936729Y-20470008D02*
X8955777Y-20460484D01*
X8955777Y-20460484D02*
X9003396Y-20460484D01*
X9003396Y-20460484D02*
X9022444Y-20470008D01*
X9022444Y-20470008D02*
X9031968Y-20479531D01*
X9031968Y-20479531D02*
X9041491Y-20498579D01*
X9041491Y-20498579D02*
X9041491Y-20517627D01*
X9041491Y-20517627D02*
X9031968Y-20546198D01*
X9031968Y-20546198D02*
X8917682Y-20660484D01*
X8917682Y-20660484D02*
X9041491Y-20660484D01*
X9222444Y-20460484D02*
X9127206Y-20460484D01*
X9127206Y-20460484D02*
X9117682Y-20555722D01*
X9117682Y-20555722D02*
X9127206Y-20546198D01*
X9127206Y-20546198D02*
X9146253Y-20536674D01*
X9146253Y-20536674D02*
X9193872Y-20536674D01*
X9193872Y-20536674D02*
X9212920Y-20546198D01*
X9212920Y-20546198D02*
X9222444Y-20555722D01*
X9222444Y-20555722D02*
X9231968Y-20574770D01*
X9231968Y-20574770D02*
X9231968Y-20622389D01*
X9231968Y-20622389D02*
X9222444Y-20641436D01*
X9222444Y-20641436D02*
X9212920Y-20650960D01*
X9212920Y-20650960D02*
X9193872Y-20660484D01*
X9193872Y-20660484D02*
X9146253Y-20660484D01*
X9146253Y-20660484D02*
X9127206Y-20650960D01*
X9127206Y-20650960D02*
X9117682Y-20641436D01*
X9308158Y-20479531D02*
X9317682Y-20470008D01*
X9317682Y-20470008D02*
X9336729Y-20460484D01*
X9336729Y-20460484D02*
X9384349Y-20460484D01*
X9384349Y-20460484D02*
X9403396Y-20470008D01*
X9403396Y-20470008D02*
X9412920Y-20479531D01*
X9412920Y-20479531D02*
X9422444Y-20498579D01*
X9422444Y-20498579D02*
X9422444Y-20517627D01*
X9422444Y-20517627D02*
X9412920Y-20546198D01*
X9412920Y-20546198D02*
X9298634Y-20660484D01*
X9298634Y-20660484D02*
X9422444Y-20660484D01*
X9498634Y-20460484D02*
X9498634Y-20498579D01*
X9574825Y-20460484D02*
X9574825Y-20498579D01*
X9870063Y-20736674D02*
X9860539Y-20727150D01*
X9860539Y-20727150D02*
X9841491Y-20698579D01*
X9841491Y-20698579D02*
X9831968Y-20679531D01*
X9831968Y-20679531D02*
X9822444Y-20650960D01*
X9822444Y-20650960D02*
X9812920Y-20603341D01*
X9812920Y-20603341D02*
X9812920Y-20565246D01*
X9812920Y-20565246D02*
X9822444Y-20517627D01*
X9822444Y-20517627D02*
X9831968Y-20489055D01*
X9831968Y-20489055D02*
X9841491Y-20470008D01*
X9841491Y-20470008D02*
X9860539Y-20441436D01*
X9860539Y-20441436D02*
X9870063Y-20431912D01*
X9936730Y-20479531D02*
X9946253Y-20470008D01*
X9946253Y-20470008D02*
X9965301Y-20460484D01*
X9965301Y-20460484D02*
X10012920Y-20460484D01*
X10012920Y-20460484D02*
X10031968Y-20470008D01*
X10031968Y-20470008D02*
X10041491Y-20479531D01*
X10041491Y-20479531D02*
X10051015Y-20498579D01*
X10051015Y-20498579D02*
X10051015Y-20517627D01*
X10051015Y-20517627D02*
X10041491Y-20546198D01*
X10041491Y-20546198D02*
X9927206Y-20660484D01*
X9927206Y-20660484D02*
X10051015Y-20660484D01*
X10289111Y-20660484D02*
X10289111Y-20460484D01*
X10374825Y-20660484D02*
X10374825Y-20555722D01*
X10374825Y-20555722D02*
X10365301Y-20536674D01*
X10365301Y-20536674D02*
X10346253Y-20527150D01*
X10346253Y-20527150D02*
X10317682Y-20527150D01*
X10317682Y-20527150D02*
X10298634Y-20536674D01*
X10298634Y-20536674D02*
X10289111Y-20546198D01*
X10498634Y-20660484D02*
X10479587Y-20650960D01*
X10479587Y-20650960D02*
X10470063Y-20641436D01*
X10470063Y-20641436D02*
X10460539Y-20622389D01*
X10460539Y-20622389D02*
X10460539Y-20565246D01*
X10460539Y-20565246D02*
X10470063Y-20546198D01*
X10470063Y-20546198D02*
X10479587Y-20536674D01*
X10479587Y-20536674D02*
X10498634Y-20527150D01*
X10498634Y-20527150D02*
X10527206Y-20527150D01*
X10527206Y-20527150D02*
X10546253Y-20536674D01*
X10546253Y-20536674D02*
X10555777Y-20546198D01*
X10555777Y-20546198D02*
X10565301Y-20565246D01*
X10565301Y-20565246D02*
X10565301Y-20622389D01*
X10565301Y-20622389D02*
X10555777Y-20641436D01*
X10555777Y-20641436D02*
X10546253Y-20650960D01*
X10546253Y-20650960D02*
X10527206Y-20660484D01*
X10527206Y-20660484D02*
X10498634Y-20660484D01*
X10679587Y-20660484D02*
X10660539Y-20650960D01*
X10660539Y-20650960D02*
X10651015Y-20631912D01*
X10651015Y-20631912D02*
X10651015Y-20460484D01*
X10831968Y-20650960D02*
X10812920Y-20660484D01*
X10812920Y-20660484D02*
X10774825Y-20660484D01*
X10774825Y-20660484D02*
X10755777Y-20650960D01*
X10755777Y-20650960D02*
X10746253Y-20631912D01*
X10746253Y-20631912D02*
X10746253Y-20555722D01*
X10746253Y-20555722D02*
X10755777Y-20536674D01*
X10755777Y-20536674D02*
X10774825Y-20527150D01*
X10774825Y-20527150D02*
X10812920Y-20527150D01*
X10812920Y-20527150D02*
X10831968Y-20536674D01*
X10831968Y-20536674D02*
X10841492Y-20555722D01*
X10841492Y-20555722D02*
X10841492Y-20574770D01*
X10841492Y-20574770D02*
X10746253Y-20593817D01*
X10917682Y-20650960D02*
X10936730Y-20660484D01*
X10936730Y-20660484D02*
X10974825Y-20660484D01*
X10974825Y-20660484D02*
X10993873Y-20650960D01*
X10993873Y-20650960D02*
X11003396Y-20631912D01*
X11003396Y-20631912D02*
X11003396Y-20622389D01*
X11003396Y-20622389D02*
X10993873Y-20603341D01*
X10993873Y-20603341D02*
X10974825Y-20593817D01*
X10974825Y-20593817D02*
X10946253Y-20593817D01*
X10946253Y-20593817D02*
X10927206Y-20584293D01*
X10927206Y-20584293D02*
X10917682Y-20565246D01*
X10917682Y-20565246D02*
X10917682Y-20555722D01*
X10917682Y-20555722D02*
X10927206Y-20536674D01*
X10927206Y-20536674D02*
X10946253Y-20527150D01*
X10946253Y-20527150D02*
X10974825Y-20527150D01*
X10974825Y-20527150D02*
X10993873Y-20536674D01*
X11070063Y-20736674D02*
X11079587Y-20727150D01*
X11079587Y-20727150D02*
X11098634Y-20698579D01*
X11098634Y-20698579D02*
X11108158Y-20679531D01*
X11108158Y-20679531D02*
X11117682Y-20650960D01*
X11117682Y-20650960D02*
X11127206Y-20603341D01*
X11127206Y-20603341D02*
X11127206Y-20565246D01*
X11127206Y-20565246D02*
X11117682Y-20517627D01*
X11117682Y-20517627D02*
X11108158Y-20489055D01*
X11108158Y-20489055D02*
X11098634Y-20470008D01*
X11098634Y-20470008D02*
X11079587Y-20441436D01*
X11079587Y-20441436D02*
X11070063Y-20431912D01*
X11431968Y-20736674D02*
X11422444Y-20727150D01*
X11422444Y-20727150D02*
X11403396Y-20698579D01*
X11403396Y-20698579D02*
X11393872Y-20679531D01*
X11393872Y-20679531D02*
X11384349Y-20650960D01*
X11384349Y-20650960D02*
X11374825Y-20603341D01*
X11374825Y-20603341D02*
X11374825Y-20565246D01*
X11374825Y-20565246D02*
X11384349Y-20517627D01*
X11384349Y-20517627D02*
X11393872Y-20489055D01*
X11393872Y-20489055D02*
X11403396Y-20470008D01*
X11403396Y-20470008D02*
X11422444Y-20441436D01*
X11422444Y-20441436D02*
X11431968Y-20431912D01*
X11508158Y-20527150D02*
X11508158Y-20660484D01*
X11508158Y-20546198D02*
X11517682Y-20536674D01*
X11517682Y-20536674D02*
X11536730Y-20527150D01*
X11536730Y-20527150D02*
X11565301Y-20527150D01*
X11565301Y-20527150D02*
X11584349Y-20536674D01*
X11584349Y-20536674D02*
X11593872Y-20555722D01*
X11593872Y-20555722D02*
X11593872Y-20660484D01*
X11717682Y-20660484D02*
X11698634Y-20650960D01*
X11698634Y-20650960D02*
X11689111Y-20641436D01*
X11689111Y-20641436D02*
X11679587Y-20622389D01*
X11679587Y-20622389D02*
X11679587Y-20565246D01*
X11679587Y-20565246D02*
X11689111Y-20546198D01*
X11689111Y-20546198D02*
X11698634Y-20536674D01*
X11698634Y-20536674D02*
X11717682Y-20527150D01*
X11717682Y-20527150D02*
X11746253Y-20527150D01*
X11746253Y-20527150D02*
X11765301Y-20536674D01*
X11765301Y-20536674D02*
X11774825Y-20546198D01*
X11774825Y-20546198D02*
X11784349Y-20565246D01*
X11784349Y-20565246D02*
X11784349Y-20622389D01*
X11784349Y-20622389D02*
X11774825Y-20641436D01*
X11774825Y-20641436D02*
X11765301Y-20650960D01*
X11765301Y-20650960D02*
X11746253Y-20660484D01*
X11746253Y-20660484D02*
X11717682Y-20660484D01*
X11841492Y-20527150D02*
X11917682Y-20527150D01*
X11870063Y-20460484D02*
X11870063Y-20631912D01*
X11870063Y-20631912D02*
X11879587Y-20650960D01*
X11879587Y-20650960D02*
X11898634Y-20660484D01*
X11898634Y-20660484D02*
X11917682Y-20660484D01*
X12136730Y-20527150D02*
X12136730Y-20727150D01*
X12136730Y-20536674D02*
X12155777Y-20527150D01*
X12155777Y-20527150D02*
X12193873Y-20527150D01*
X12193873Y-20527150D02*
X12212920Y-20536674D01*
X12212920Y-20536674D02*
X12222444Y-20546198D01*
X12222444Y-20546198D02*
X12231968Y-20565246D01*
X12231968Y-20565246D02*
X12231968Y-20622389D01*
X12231968Y-20622389D02*
X12222444Y-20641436D01*
X12222444Y-20641436D02*
X12212920Y-20650960D01*
X12212920Y-20650960D02*
X12193873Y-20660484D01*
X12193873Y-20660484D02*
X12155777Y-20660484D01*
X12155777Y-20660484D02*
X12136730Y-20650960D01*
X12346253Y-20660484D02*
X12327206Y-20650960D01*
X12327206Y-20650960D02*
X12317682Y-20631912D01*
X12317682Y-20631912D02*
X12317682Y-20460484D01*
X12508158Y-20660484D02*
X12508158Y-20555722D01*
X12508158Y-20555722D02*
X12498634Y-20536674D01*
X12498634Y-20536674D02*
X12479587Y-20527150D01*
X12479587Y-20527150D02*
X12441492Y-20527150D01*
X12441492Y-20527150D02*
X12422444Y-20536674D01*
X12508158Y-20650960D02*
X12489111Y-20660484D01*
X12489111Y-20660484D02*
X12441492Y-20660484D01*
X12441492Y-20660484D02*
X12422444Y-20650960D01*
X12422444Y-20650960D02*
X12412920Y-20631912D01*
X12412920Y-20631912D02*
X12412920Y-20612865D01*
X12412920Y-20612865D02*
X12422444Y-20593817D01*
X12422444Y-20593817D02*
X12441492Y-20584293D01*
X12441492Y-20584293D02*
X12489111Y-20584293D01*
X12489111Y-20584293D02*
X12508158Y-20574770D01*
X12574825Y-20527150D02*
X12651015Y-20527150D01*
X12603396Y-20460484D02*
X12603396Y-20631912D01*
X12603396Y-20631912D02*
X12612920Y-20650960D01*
X12612920Y-20650960D02*
X12631968Y-20660484D01*
X12631968Y-20660484D02*
X12651015Y-20660484D01*
X12793873Y-20650960D02*
X12774825Y-20660484D01*
X12774825Y-20660484D02*
X12736730Y-20660484D01*
X12736730Y-20660484D02*
X12717682Y-20650960D01*
X12717682Y-20650960D02*
X12708158Y-20631912D01*
X12708158Y-20631912D02*
X12708158Y-20555722D01*
X12708158Y-20555722D02*
X12717682Y-20536674D01*
X12717682Y-20536674D02*
X12736730Y-20527150D01*
X12736730Y-20527150D02*
X12774825Y-20527150D01*
X12774825Y-20527150D02*
X12793873Y-20536674D01*
X12793873Y-20536674D02*
X12803396Y-20555722D01*
X12803396Y-20555722D02*
X12803396Y-20574770D01*
X12803396Y-20574770D02*
X12708158Y-20593817D01*
X12974825Y-20660484D02*
X12974825Y-20460484D01*
X12974825Y-20650960D02*
X12955777Y-20660484D01*
X12955777Y-20660484D02*
X12917682Y-20660484D01*
X12917682Y-20660484D02*
X12898634Y-20650960D01*
X12898634Y-20650960D02*
X12889111Y-20641436D01*
X12889111Y-20641436D02*
X12879587Y-20622389D01*
X12879587Y-20622389D02*
X12879587Y-20565246D01*
X12879587Y-20565246D02*
X12889111Y-20546198D01*
X12889111Y-20546198D02*
X12898634Y-20536674D01*
X12898634Y-20536674D02*
X12917682Y-20527150D01*
X12917682Y-20527150D02*
X12955777Y-20527150D01*
X12955777Y-20527150D02*
X12974825Y-20536674D01*
X13051015Y-20736674D02*
X13060539Y-20727150D01*
X13060539Y-20727150D02*
X13079587Y-20698579D01*
X13079587Y-20698579D02*
X13089111Y-20679531D01*
X13089111Y-20679531D02*
X13098634Y-20650960D01*
X13098634Y-20650960D02*
X13108158Y-20603341D01*
X13108158Y-20603341D02*
X13108158Y-20565246D01*
X13108158Y-20565246D02*
X13098634Y-20517627D01*
X13098634Y-20517627D02*
X13089111Y-20489055D01*
X13089111Y-20489055D02*
X13079587Y-20470008D01*
X13079587Y-20470008D02*
X13060539Y-20441436D01*
X13060539Y-20441436D02*
X13051015Y-20431912D01*
M02*
